<?xml version="1.0" encoding="utf-8"?>
<svg xmlns="http://www.w3.org/2000/svg" xmlns:xlink="http://www.w3.org/1999/xlink" width="600" height="400" viewBox="0 0 2400 1600">
<defs>
  <clipPath id="clip090">
    <rect x="0" y="0" width="2400" height="1600"/>
  </clipPath>
</defs>
<path clip-path="url(#clip090)" d="M0 1600 L2400 1600 L2400 0 L0 0  Z" fill="#ffffff" fill-rule="evenodd" fill-opacity="1"/>
<defs>
  <clipPath id="clip091">
    <rect x="480" y="0" width="1681" height="1600"/>
  </clipPath>
</defs>
<path clip-path="url(#clip090)" d="M264.287 1423.18 L2352.76 1423.18 L2352.76 47.2441 L264.287 47.2441  Z" fill="#ffffff" fill-rule="evenodd" fill-opacity="1"/>
<defs>
  <clipPath id="clip092">
    <rect x="264" y="47" width="2089" height="1377"/>
  </clipPath>
</defs>
<polyline clip-path="url(#clip092)" style="stroke:#000000; stroke-linecap:round; stroke-linejoin:round; stroke-width:2; stroke-opacity:0.1; fill:none" points="399.974,1423.18 399.974,47.2441 "/>
<polyline clip-path="url(#clip092)" style="stroke:#000000; stroke-linecap:round; stroke-linejoin:round; stroke-width:2; stroke-opacity:0.1; fill:none" points="696.657,1423.18 696.657,47.2441 "/>
<polyline clip-path="url(#clip092)" style="stroke:#000000; stroke-linecap:round; stroke-linejoin:round; stroke-width:2; stroke-opacity:0.1; fill:none" points="993.34,1423.18 993.34,47.2441 "/>
<polyline clip-path="url(#clip092)" style="stroke:#000000; stroke-linecap:round; stroke-linejoin:round; stroke-width:2; stroke-opacity:0.1; fill:none" points="1290.02,1423.18 1290.02,47.2441 "/>
<polyline clip-path="url(#clip092)" style="stroke:#000000; stroke-linecap:round; stroke-linejoin:round; stroke-width:2; stroke-opacity:0.1; fill:none" points="1586.71,1423.18 1586.71,47.2441 "/>
<polyline clip-path="url(#clip092)" style="stroke:#000000; stroke-linecap:round; stroke-linejoin:round; stroke-width:2; stroke-opacity:0.1; fill:none" points="1883.39,1423.18 1883.39,47.2441 "/>
<polyline clip-path="url(#clip092)" style="stroke:#000000; stroke-linecap:round; stroke-linejoin:round; stroke-width:2; stroke-opacity:0.1; fill:none" points="2180.07,1423.18 2180.07,47.2441 "/>
<polyline clip-path="url(#clip092)" style="stroke:#000000; stroke-linecap:round; stroke-linejoin:round; stroke-width:2; stroke-opacity:0.1; fill:none" points="264.287,1286.47 2352.76,1286.47 "/>
<polyline clip-path="url(#clip092)" style="stroke:#000000; stroke-linecap:round; stroke-linejoin:round; stroke-width:2; stroke-opacity:0.1; fill:none" points="264.287,975.092 2352.76,975.092 "/>
<polyline clip-path="url(#clip092)" style="stroke:#000000; stroke-linecap:round; stroke-linejoin:round; stroke-width:2; stroke-opacity:0.1; fill:none" points="264.287,663.715 2352.76,663.715 "/>
<polyline clip-path="url(#clip092)" style="stroke:#000000; stroke-linecap:round; stroke-linejoin:round; stroke-width:2; stroke-opacity:0.1; fill:none" points="264.287,352.337 2352.76,352.337 "/>
<polyline clip-path="url(#clip090)" style="stroke:#000000; stroke-linecap:round; stroke-linejoin:round; stroke-width:4; stroke-opacity:1; fill:none" points="264.287,1423.18 2352.76,1423.18 "/>
<polyline clip-path="url(#clip090)" style="stroke:#000000; stroke-linecap:round; stroke-linejoin:round; stroke-width:4; stroke-opacity:1; fill:none" points="399.974,1423.18 399.974,1404.28 "/>
<polyline clip-path="url(#clip090)" style="stroke:#000000; stroke-linecap:round; stroke-linejoin:round; stroke-width:4; stroke-opacity:1; fill:none" points="696.657,1423.18 696.657,1404.28 "/>
<polyline clip-path="url(#clip090)" style="stroke:#000000; stroke-linecap:round; stroke-linejoin:round; stroke-width:4; stroke-opacity:1; fill:none" points="993.34,1423.18 993.34,1404.28 "/>
<polyline clip-path="url(#clip090)" style="stroke:#000000; stroke-linecap:round; stroke-linejoin:round; stroke-width:4; stroke-opacity:1; fill:none" points="1290.02,1423.18 1290.02,1404.28 "/>
<polyline clip-path="url(#clip090)" style="stroke:#000000; stroke-linecap:round; stroke-linejoin:round; stroke-width:4; stroke-opacity:1; fill:none" points="1586.71,1423.18 1586.71,1404.28 "/>
<polyline clip-path="url(#clip090)" style="stroke:#000000; stroke-linecap:round; stroke-linejoin:round; stroke-width:4; stroke-opacity:1; fill:none" points="1883.39,1423.18 1883.39,1404.28 "/>
<polyline clip-path="url(#clip090)" style="stroke:#000000; stroke-linecap:round; stroke-linejoin:round; stroke-width:4; stroke-opacity:1; fill:none" points="2180.07,1423.18 2180.07,1404.28 "/>
<path clip-path="url(#clip090)" d="M373.064 1455.09 L361.259 1473.54 L373.064 1473.54 L373.064 1455.09 M371.838 1451.02 L377.717 1451.02 L377.717 1473.54 L382.648 1473.54 L382.648 1477.43 L377.717 1477.43 L377.717 1485.58 L373.064 1485.58 L373.064 1477.43 L357.463 1477.43 L357.463 1472.92 L371.838 1451.02 Z" fill="#000000" fill-rule="nonzero" fill-opacity="1" /><path clip-path="url(#clip090)" d="M400.379 1454.1 Q396.768 1454.1 394.939 1457.66 Q393.134 1461.2 393.134 1468.33 Q393.134 1475.44 394.939 1479.01 Q396.768 1482.55 400.379 1482.55 Q404.013 1482.55 405.819 1479.01 Q407.648 1475.44 407.648 1468.33 Q407.648 1461.2 405.819 1457.66 Q404.013 1454.1 400.379 1454.1 M400.379 1450.39 Q406.189 1450.39 409.245 1455 Q412.324 1459.58 412.324 1468.33 Q412.324 1477.06 409.245 1481.67 Q406.189 1486.25 400.379 1486.25 Q394.569 1486.25 391.49 1481.67 Q388.435 1477.06 388.435 1468.33 Q388.435 1459.58 391.49 1455 Q394.569 1450.39 400.379 1450.39 Z" fill="#000000" fill-rule="nonzero" fill-opacity="1" /><path clip-path="url(#clip090)" d="M430.541 1454.1 Q426.93 1454.1 425.101 1457.66 Q423.296 1461.2 423.296 1468.33 Q423.296 1475.44 425.101 1479.01 Q426.93 1482.55 430.541 1482.55 Q434.175 1482.55 435.981 1479.01 Q437.81 1475.44 437.81 1468.33 Q437.81 1461.2 435.981 1457.66 Q434.175 1454.1 430.541 1454.1 M430.541 1450.39 Q436.351 1450.39 439.407 1455 Q442.485 1459.58 442.485 1468.33 Q442.485 1477.06 439.407 1481.67 Q436.351 1486.25 430.541 1486.25 Q424.731 1486.25 421.652 1481.67 Q418.597 1477.06 418.597 1468.33 Q418.597 1459.58 421.652 1455 Q424.731 1450.39 430.541 1450.39 Z" fill="#000000" fill-rule="nonzero" fill-opacity="1" /><path clip-path="url(#clip090)" d="M656.275 1451.02 L674.632 1451.02 L674.632 1454.96 L660.558 1454.96 L660.558 1463.43 Q661.576 1463.08 662.595 1462.92 Q663.613 1462.73 664.632 1462.73 Q670.419 1462.73 673.799 1465.9 Q677.178 1469.08 677.178 1474.49 Q677.178 1480.07 673.706 1483.17 Q670.234 1486.25 663.914 1486.25 Q661.738 1486.25 659.47 1485.88 Q657.225 1485.51 654.817 1484.77 L654.817 1480.07 Q656.9 1481.2 659.123 1481.76 Q661.345 1482.32 663.822 1482.32 Q667.826 1482.32 670.164 1480.21 Q672.502 1478.1 672.502 1474.49 Q672.502 1470.88 670.164 1468.77 Q667.826 1466.67 663.822 1466.67 Q661.947 1466.67 660.072 1467.08 Q658.22 1467.5 656.275 1468.38 L656.275 1451.02 Z" fill="#000000" fill-rule="nonzero" fill-opacity="1" /><path clip-path="url(#clip090)" d="M696.391 1454.1 Q692.78 1454.1 690.951 1457.66 Q689.146 1461.2 689.146 1468.33 Q689.146 1475.44 690.951 1479.01 Q692.78 1482.55 696.391 1482.55 Q700.025 1482.55 701.831 1479.01 Q703.659 1475.44 703.659 1468.33 Q703.659 1461.2 701.831 1457.66 Q700.025 1454.1 696.391 1454.1 M696.391 1450.39 Q702.201 1450.39 705.257 1455 Q708.335 1459.58 708.335 1468.33 Q708.335 1477.06 705.257 1481.67 Q702.201 1486.25 696.391 1486.25 Q690.581 1486.25 687.502 1481.67 Q684.447 1477.06 684.447 1468.33 Q684.447 1459.58 687.502 1455 Q690.581 1450.39 696.391 1450.39 Z" fill="#000000" fill-rule="nonzero" fill-opacity="1" /><path clip-path="url(#clip090)" d="M726.553 1454.1 Q722.942 1454.1 721.113 1457.66 Q719.308 1461.2 719.308 1468.33 Q719.308 1475.44 721.113 1479.01 Q722.942 1482.55 726.553 1482.55 Q730.187 1482.55 731.993 1479.01 Q733.821 1475.44 733.821 1468.33 Q733.821 1461.2 731.993 1457.66 Q730.187 1454.1 726.553 1454.1 M726.553 1450.39 Q732.363 1450.39 735.419 1455 Q738.497 1459.58 738.497 1468.33 Q738.497 1477.06 735.419 1481.67 Q732.363 1486.25 726.553 1486.25 Q720.743 1486.25 717.664 1481.67 Q714.608 1477.06 714.608 1468.33 Q714.608 1459.58 717.664 1455 Q720.743 1450.39 726.553 1450.39 Z" fill="#000000" fill-rule="nonzero" fill-opacity="1" /><path clip-path="url(#clip090)" d="M963.665 1466.44 Q960.516 1466.44 958.665 1468.59 Q956.836 1470.74 956.836 1474.49 Q956.836 1478.22 958.665 1480.39 Q960.516 1482.55 963.665 1482.55 Q966.813 1482.55 968.641 1480.39 Q970.493 1478.22 970.493 1474.49 Q970.493 1470.74 968.641 1468.59 Q966.813 1466.44 963.665 1466.44 M972.947 1451.78 L972.947 1456.04 Q971.188 1455.21 969.382 1454.77 Q967.6 1454.33 965.84 1454.33 Q961.211 1454.33 958.757 1457.45 Q956.327 1460.58 955.979 1466.9 Q957.345 1464.89 959.405 1463.82 Q961.465 1462.73 963.942 1462.73 Q969.151 1462.73 972.16 1465.9 Q975.192 1469.05 975.192 1474.49 Q975.192 1479.82 972.044 1483.03 Q968.896 1486.25 963.665 1486.25 Q957.669 1486.25 954.498 1481.67 Q951.327 1477.06 951.327 1468.33 Q951.327 1460.14 955.216 1455.28 Q959.104 1450.39 965.655 1450.39 Q967.415 1450.39 969.197 1450.74 Q971.002 1451.09 972.947 1451.78 Z" fill="#000000" fill-rule="nonzero" fill-opacity="1" /><path clip-path="url(#clip090)" d="M993.248 1454.1 Q989.637 1454.1 987.808 1457.66 Q986.002 1461.2 986.002 1468.33 Q986.002 1475.44 987.808 1479.01 Q989.637 1482.55 993.248 1482.55 Q996.882 1482.55 998.687 1479.01 Q1000.52 1475.44 1000.52 1468.33 Q1000.52 1461.2 998.687 1457.66 Q996.882 1454.1 993.248 1454.1 M993.248 1450.39 Q999.058 1450.39 1002.11 1455 Q1005.19 1459.58 1005.19 1468.33 Q1005.19 1477.06 1002.11 1481.67 Q999.058 1486.25 993.248 1486.25 Q987.438 1486.25 984.359 1481.67 Q981.303 1477.06 981.303 1468.33 Q981.303 1459.58 984.359 1455 Q987.438 1450.39 993.248 1450.39 Z" fill="#000000" fill-rule="nonzero" fill-opacity="1" /><path clip-path="url(#clip090)" d="M1023.41 1454.1 Q1019.8 1454.1 1017.97 1457.66 Q1016.16 1461.2 1016.16 1468.33 Q1016.16 1475.44 1017.97 1479.01 Q1019.8 1482.55 1023.41 1482.55 Q1027.04 1482.55 1028.85 1479.01 Q1030.68 1475.44 1030.68 1468.33 Q1030.68 1461.2 1028.85 1457.66 Q1027.04 1454.1 1023.41 1454.1 M1023.41 1450.39 Q1029.22 1450.39 1032.28 1455 Q1035.35 1459.58 1035.35 1468.33 Q1035.35 1477.06 1032.28 1481.67 Q1029.22 1486.25 1023.41 1486.25 Q1017.6 1486.25 1014.52 1481.67 Q1011.47 1477.06 1011.47 1468.33 Q1011.47 1459.58 1014.52 1455 Q1017.6 1450.39 1023.41 1450.39 Z" fill="#000000" fill-rule="nonzero" fill-opacity="1" /><path clip-path="url(#clip090)" d="M1248.3 1451.02 L1270.52 1451.02 L1270.52 1453.01 L1257.97 1485.58 L1253.09 1485.58 L1264.9 1454.96 L1248.3 1454.96 L1248.3 1451.02 Z" fill="#000000" fill-rule="nonzero" fill-opacity="1" /><path clip-path="url(#clip090)" d="M1289.64 1454.1 Q1286.03 1454.1 1284.2 1457.66 Q1282.4 1461.2 1282.4 1468.33 Q1282.4 1475.44 1284.2 1479.01 Q1286.03 1482.55 1289.64 1482.55 Q1293.28 1482.55 1295.08 1479.01 Q1296.91 1475.44 1296.91 1468.33 Q1296.91 1461.2 1295.08 1457.66 Q1293.28 1454.1 1289.64 1454.1 M1289.64 1450.39 Q1295.45 1450.39 1298.51 1455 Q1301.59 1459.58 1301.59 1468.33 Q1301.59 1477.06 1298.51 1481.67 Q1295.45 1486.25 1289.64 1486.25 Q1283.83 1486.25 1280.75 1481.67 Q1277.7 1477.06 1277.7 1468.33 Q1277.7 1459.58 1280.75 1455 Q1283.83 1450.39 1289.64 1450.39 Z" fill="#000000" fill-rule="nonzero" fill-opacity="1" /><path clip-path="url(#clip090)" d="M1319.8 1454.1 Q1316.19 1454.1 1314.36 1457.66 Q1312.56 1461.2 1312.56 1468.33 Q1312.56 1475.44 1314.36 1479.01 Q1316.19 1482.55 1319.8 1482.55 Q1323.44 1482.55 1325.24 1479.01 Q1327.07 1475.44 1327.07 1468.33 Q1327.07 1461.2 1325.24 1457.66 Q1323.44 1454.1 1319.8 1454.1 M1319.8 1450.39 Q1325.61 1450.39 1328.67 1455 Q1331.75 1459.58 1331.75 1468.33 Q1331.75 1477.06 1328.67 1481.67 Q1325.61 1486.25 1319.8 1486.25 Q1313.99 1486.25 1310.91 1481.67 Q1307.86 1477.06 1307.86 1468.33 Q1307.86 1459.58 1310.91 1455 Q1313.99 1450.39 1319.8 1450.39 Z" fill="#000000" fill-rule="nonzero" fill-opacity="1" /><path clip-path="url(#clip090)" d="M1556.5 1469.17 Q1553.17 1469.17 1551.24 1470.95 Q1549.35 1472.73 1549.35 1475.86 Q1549.35 1478.98 1551.24 1480.77 Q1553.17 1482.55 1556.5 1482.55 Q1559.83 1482.55 1561.75 1480.77 Q1563.67 1478.96 1563.67 1475.86 Q1563.67 1472.73 1561.75 1470.95 Q1559.85 1469.17 1556.5 1469.17 M1551.82 1467.18 Q1548.81 1466.44 1547.12 1464.38 Q1545.46 1462.32 1545.46 1459.35 Q1545.46 1455.21 1548.4 1452.8 Q1551.36 1450.39 1556.5 1450.39 Q1561.66 1450.39 1564.6 1452.8 Q1567.54 1455.21 1567.54 1459.35 Q1567.54 1462.32 1565.85 1464.38 Q1564.18 1466.44 1561.2 1467.18 Q1564.58 1467.96 1566.45 1470.26 Q1568.35 1472.55 1568.35 1475.86 Q1568.35 1480.88 1565.27 1483.57 Q1562.22 1486.25 1556.5 1486.25 Q1550.78 1486.25 1547.7 1483.57 Q1544.65 1480.88 1544.65 1475.86 Q1544.65 1472.55 1546.54 1470.26 Q1548.44 1467.96 1551.82 1467.18 M1550.11 1459.79 Q1550.11 1462.48 1551.78 1463.98 Q1553.47 1465.49 1556.5 1465.49 Q1559.51 1465.49 1561.2 1463.98 Q1562.91 1462.48 1562.91 1459.79 Q1562.91 1457.11 1561.2 1455.6 Q1559.51 1454.1 1556.5 1454.1 Q1553.47 1454.1 1551.78 1455.6 Q1550.11 1457.11 1550.11 1459.79 Z" fill="#000000" fill-rule="nonzero" fill-opacity="1" /><path clip-path="url(#clip090)" d="M1586.66 1454.1 Q1583.05 1454.1 1581.22 1457.66 Q1579.41 1461.2 1579.41 1468.33 Q1579.41 1475.44 1581.22 1479.01 Q1583.05 1482.55 1586.66 1482.55 Q1590.29 1482.55 1592.1 1479.01 Q1593.93 1475.44 1593.93 1468.33 Q1593.93 1461.2 1592.1 1457.66 Q1590.29 1454.1 1586.66 1454.1 M1586.66 1450.39 Q1592.47 1450.39 1595.53 1455 Q1598.6 1459.58 1598.6 1468.33 Q1598.6 1477.06 1595.53 1481.67 Q1592.47 1486.25 1586.66 1486.25 Q1580.85 1486.25 1577.77 1481.67 Q1574.72 1477.06 1574.72 1468.33 Q1574.72 1459.58 1577.77 1455 Q1580.85 1450.39 1586.66 1450.39 Z" fill="#000000" fill-rule="nonzero" fill-opacity="1" /><path clip-path="url(#clip090)" d="M1616.82 1454.1 Q1613.21 1454.1 1611.38 1457.66 Q1609.58 1461.2 1609.58 1468.33 Q1609.58 1475.44 1611.38 1479.01 Q1613.21 1482.55 1616.82 1482.55 Q1620.46 1482.55 1622.26 1479.01 Q1624.09 1475.44 1624.09 1468.33 Q1624.09 1461.2 1622.26 1457.66 Q1620.46 1454.1 1616.82 1454.1 M1616.82 1450.39 Q1622.63 1450.39 1625.69 1455 Q1628.77 1459.58 1628.77 1468.33 Q1628.77 1477.06 1625.69 1481.67 Q1622.63 1486.25 1616.82 1486.25 Q1611.01 1486.25 1607.93 1481.67 Q1604.88 1477.06 1604.88 1468.33 Q1604.88 1459.58 1607.93 1455 Q1611.01 1450.39 1616.82 1450.39 Z" fill="#000000" fill-rule="nonzero" fill-opacity="1" /><path clip-path="url(#clip090)" d="M1843.44 1484.86 L1843.44 1480.6 Q1845.2 1481.44 1847 1481.88 Q1848.81 1482.32 1850.54 1482.32 Q1855.17 1482.32 1857.6 1479.21 Q1860.06 1476.09 1860.4 1469.75 Q1859.06 1471.74 1857 1472.8 Q1854.94 1473.87 1852.44 1473.87 Q1847.26 1473.87 1844.22 1470.74 Q1841.21 1467.59 1841.21 1462.15 Q1841.21 1456.83 1844.36 1453.61 Q1847.51 1450.39 1852.74 1450.39 Q1858.74 1450.39 1861.89 1455 Q1865.06 1459.58 1865.06 1468.33 Q1865.06 1476.51 1861.17 1481.39 Q1857.3 1486.25 1850.75 1486.25 Q1848.99 1486.25 1847.19 1485.9 Q1845.38 1485.56 1843.44 1484.86 M1852.74 1470.21 Q1855.89 1470.21 1857.72 1468.06 Q1859.57 1465.9 1859.57 1462.15 Q1859.57 1458.43 1857.72 1456.27 Q1855.89 1454.1 1852.74 1454.1 Q1849.59 1454.1 1847.74 1456.27 Q1845.91 1458.43 1845.91 1462.15 Q1845.91 1465.9 1847.74 1468.06 Q1849.59 1470.21 1852.74 1470.21 Z" fill="#000000" fill-rule="nonzero" fill-opacity="1" /><path clip-path="url(#clip090)" d="M1883.46 1454.1 Q1879.85 1454.1 1878.02 1457.66 Q1876.21 1461.2 1876.21 1468.33 Q1876.21 1475.44 1878.02 1479.01 Q1879.85 1482.55 1883.46 1482.55 Q1887.09 1482.55 1888.9 1479.01 Q1890.73 1475.44 1890.73 1468.33 Q1890.73 1461.2 1888.9 1457.66 Q1887.09 1454.1 1883.46 1454.1 M1883.46 1450.39 Q1889.27 1450.39 1892.32 1455 Q1895.4 1459.58 1895.4 1468.33 Q1895.4 1477.06 1892.32 1481.67 Q1889.27 1486.25 1883.46 1486.25 Q1877.65 1486.25 1874.57 1481.67 Q1871.51 1477.06 1871.51 1468.33 Q1871.51 1459.58 1874.57 1455 Q1877.65 1450.39 1883.46 1450.39 Z" fill="#000000" fill-rule="nonzero" fill-opacity="1" /><path clip-path="url(#clip090)" d="M1913.62 1454.1 Q1910.01 1454.1 1908.18 1457.66 Q1906.38 1461.2 1906.38 1468.33 Q1906.38 1475.44 1908.18 1479.01 Q1910.01 1482.55 1913.62 1482.55 Q1917.26 1482.55 1919.06 1479.01 Q1920.89 1475.44 1920.89 1468.33 Q1920.89 1461.2 1919.06 1457.66 Q1917.26 1454.1 1913.62 1454.1 M1913.62 1450.39 Q1919.43 1450.39 1922.49 1455 Q1925.57 1459.58 1925.57 1468.33 Q1925.57 1477.06 1922.49 1481.67 Q1919.43 1486.25 1913.62 1486.25 Q1907.81 1486.25 1904.73 1481.67 Q1901.68 1477.06 1901.68 1468.33 Q1901.68 1459.58 1904.73 1455 Q1907.81 1450.39 1913.62 1450.39 Z" fill="#000000" fill-rule="nonzero" fill-opacity="1" /><path clip-path="url(#clip090)" d="M2124.6 1481.64 L2132.24 1481.64 L2132.24 1455.28 L2123.93 1456.95 L2123.93 1452.69 L2132.19 1451.02 L2136.87 1451.02 L2136.87 1481.64 L2144.51 1481.64 L2144.51 1485.58 L2124.6 1485.58 L2124.6 1481.64 Z" fill="#000000" fill-rule="nonzero" fill-opacity="1" /><path clip-path="url(#clip090)" d="M2163.95 1454.1 Q2160.34 1454.1 2158.51 1457.66 Q2156.7 1461.2 2156.7 1468.33 Q2156.7 1475.44 2158.51 1479.01 Q2160.34 1482.55 2163.95 1482.55 Q2167.58 1482.55 2169.39 1479.01 Q2171.22 1475.44 2171.22 1468.33 Q2171.22 1461.2 2169.39 1457.66 Q2167.58 1454.1 2163.95 1454.1 M2163.95 1450.39 Q2169.76 1450.39 2172.82 1455 Q2175.89 1459.58 2175.89 1468.33 Q2175.89 1477.06 2172.82 1481.67 Q2169.76 1486.25 2163.95 1486.25 Q2158.14 1486.25 2155.06 1481.67 Q2152.01 1477.06 2152.01 1468.33 Q2152.01 1459.58 2155.06 1455 Q2158.14 1450.39 2163.95 1450.39 Z" fill="#000000" fill-rule="nonzero" fill-opacity="1" /><path clip-path="url(#clip090)" d="M2194.11 1454.1 Q2190.5 1454.1 2188.67 1457.66 Q2186.87 1461.2 2186.87 1468.33 Q2186.87 1475.44 2188.67 1479.01 Q2190.5 1482.55 2194.11 1482.55 Q2197.75 1482.55 2199.55 1479.01 Q2201.38 1475.44 2201.38 1468.33 Q2201.38 1461.2 2199.55 1457.66 Q2197.75 1454.1 2194.11 1454.1 M2194.11 1450.39 Q2199.92 1450.39 2202.98 1455 Q2206.06 1459.58 2206.06 1468.33 Q2206.06 1477.06 2202.98 1481.67 Q2199.92 1486.25 2194.11 1486.25 Q2188.3 1486.25 2185.22 1481.67 Q2182.17 1477.06 2182.17 1468.33 Q2182.17 1459.58 2185.22 1455 Q2188.3 1450.39 2194.11 1450.39 Z" fill="#000000" fill-rule="nonzero" fill-opacity="1" /><path clip-path="url(#clip090)" d="M2224.27 1454.1 Q2220.66 1454.1 2218.83 1457.66 Q2217.03 1461.2 2217.03 1468.33 Q2217.03 1475.44 2218.83 1479.01 Q2220.66 1482.55 2224.27 1482.55 Q2227.91 1482.55 2229.71 1479.01 Q2231.54 1475.44 2231.54 1468.33 Q2231.54 1461.2 2229.71 1457.66 Q2227.91 1454.1 2224.27 1454.1 M2224.27 1450.39 Q2230.08 1450.39 2233.14 1455 Q2236.22 1459.58 2236.22 1468.33 Q2236.22 1477.06 2233.14 1481.67 Q2230.08 1486.25 2224.27 1486.25 Q2218.46 1486.25 2215.39 1481.67 Q2212.33 1477.06 2212.33 1468.33 Q2212.33 1459.58 2215.39 1455 Q2218.46 1450.39 2224.27 1450.39 Z" fill="#000000" fill-rule="nonzero" fill-opacity="1" /><path clip-path="url(#clip090)" d="M1197.63 1520.52 L1224.94 1520.52 L1224.94 1525.93 L1204.06 1525.93 L1204.06 1539.94 L1222.9 1539.94 L1222.9 1545.35 L1204.06 1545.35 L1204.06 1568.04 L1197.63 1568.04 L1197.63 1520.52 Z" fill="#000000" fill-rule="nonzero" fill-opacity="1" /><path clip-path="url(#clip090)" d="M1236.81 1562.63 L1247.32 1562.63 L1247.32 1526.38 L1235.89 1528.67 L1235.89 1522.82 L1247.25 1520.52 L1253.68 1520.52 L1253.68 1562.63 L1264.18 1562.63 L1264.18 1568.04 L1236.81 1568.04 L1236.81 1562.63 Z" fill="#000000" fill-rule="nonzero" fill-opacity="1" /><path clip-path="url(#clip090)" d="M1311.13 1518.58 Q1306.87 1525.9 1304.8 1533.06 Q1302.73 1540.23 1302.73 1547.58 Q1302.73 1554.93 1304.8 1562.16 Q1306.9 1569.35 1311.13 1576.64 L1306.04 1576.64 Q1301.26 1569.16 1298.88 1561.93 Q1296.52 1554.71 1296.52 1547.58 Q1296.52 1540.48 1298.88 1533.29 Q1301.23 1526.09 1306.04 1518.58 L1311.13 1518.58 Z" fill="#000000" fill-rule="nonzero" fill-opacity="1" /><path clip-path="url(#clip090)" d="M1322.75 1520.52 L1329.18 1520.52 L1329.18 1540 L1352.54 1540 L1352.54 1520.52 L1358.97 1520.52 L1358.97 1568.04 L1352.54 1568.04 L1352.54 1545.41 L1329.18 1545.41 L1329.18 1568.04 L1322.75 1568.04 L1322.75 1520.52 Z" fill="#000000" fill-rule="nonzero" fill-opacity="1" /><path clip-path="url(#clip090)" d="M1368.96 1532.4 L1396.78 1532.4 L1396.78 1537.74 L1374.76 1563.37 L1396.78 1563.37 L1396.78 1568.04 L1368.17 1568.04 L1368.17 1562.7 L1390.19 1537.07 L1368.96 1537.07 L1368.96 1532.4 Z" fill="#000000" fill-rule="nonzero" fill-opacity="1" /><path clip-path="url(#clip090)" d="M1404.8 1518.58 L1409.9 1518.58 Q1414.67 1526.09 1417.03 1533.29 Q1419.41 1540.48 1419.41 1547.58 Q1419.41 1554.71 1417.03 1561.93 Q1414.67 1569.16 1409.9 1576.64 L1404.8 1576.64 Q1409.04 1569.35 1411.1 1562.16 Q1413.21 1554.93 1413.21 1547.58 Q1413.21 1540.23 1411.1 1533.06 Q1409.04 1525.9 1404.8 1518.58 Z" fill="#000000" fill-rule="nonzero" fill-opacity="1" /><polyline clip-path="url(#clip090)" style="stroke:#000000; stroke-linecap:round; stroke-linejoin:round; stroke-width:4; stroke-opacity:1; fill:none" points="264.287,1423.18 264.287,47.2441 "/>
<polyline clip-path="url(#clip090)" style="stroke:#000000; stroke-linecap:round; stroke-linejoin:round; stroke-width:4; stroke-opacity:1; fill:none" points="264.287,1286.47 283.185,1286.47 "/>
<polyline clip-path="url(#clip090)" style="stroke:#000000; stroke-linecap:round; stroke-linejoin:round; stroke-width:4; stroke-opacity:1; fill:none" points="264.287,975.092 283.185,975.092 "/>
<polyline clip-path="url(#clip090)" style="stroke:#000000; stroke-linecap:round; stroke-linejoin:round; stroke-width:4; stroke-opacity:1; fill:none" points="264.287,663.715 283.185,663.715 "/>
<polyline clip-path="url(#clip090)" style="stroke:#000000; stroke-linecap:round; stroke-linejoin:round; stroke-width:4; stroke-opacity:1; fill:none" points="264.287,352.337 283.185,352.337 "/>
<path clip-path="url(#clip090)" d="M116.668 1299.81 L124.306 1299.81 L124.306 1273.45 L115.996 1275.11 L115.996 1270.86 L124.26 1269.19 L128.936 1269.19 L128.936 1299.81 L136.575 1299.81 L136.575 1303.75 L116.668 1303.75 L116.668 1299.81 Z" fill="#000000" fill-rule="nonzero" fill-opacity="1" /><path clip-path="url(#clip090)" d="M156.019 1272.27 Q152.408 1272.27 150.579 1275.83 Q148.774 1279.37 148.774 1286.5 Q148.774 1293.61 150.579 1297.17 Q152.408 1300.72 156.019 1300.72 Q159.653 1300.72 161.459 1297.17 Q163.288 1293.61 163.288 1286.5 Q163.288 1279.37 161.459 1275.83 Q159.653 1272.27 156.019 1272.27 M156.019 1268.56 Q161.829 1268.56 164.885 1273.17 Q167.964 1277.75 167.964 1286.5 Q167.964 1295.23 164.885 1299.84 Q161.829 1304.42 156.019 1304.42 Q150.209 1304.42 147.13 1299.84 Q144.075 1295.23 144.075 1286.5 Q144.075 1277.75 147.13 1273.17 Q150.209 1268.56 156.019 1268.56 Z" fill="#000000" fill-rule="nonzero" fill-opacity="1" /><path clip-path="url(#clip090)" d="M186.181 1272.27 Q182.57 1272.27 180.741 1275.83 Q178.936 1279.37 178.936 1286.5 Q178.936 1293.61 180.741 1297.17 Q182.57 1300.72 186.181 1300.72 Q189.815 1300.72 191.621 1297.17 Q193.45 1293.61 193.45 1286.5 Q193.45 1279.37 191.621 1275.83 Q189.815 1272.27 186.181 1272.27 M186.181 1268.56 Q191.991 1268.56 195.047 1273.17 Q198.125 1277.75 198.125 1286.5 Q198.125 1295.23 195.047 1299.84 Q191.991 1304.42 186.181 1304.42 Q180.371 1304.42 177.292 1299.84 Q174.237 1295.23 174.237 1286.5 Q174.237 1277.75 177.292 1273.17 Q180.371 1268.56 186.181 1268.56 Z" fill="#000000" fill-rule="nonzero" fill-opacity="1" /><path clip-path="url(#clip090)" d="M216.343 1272.27 Q212.732 1272.27 210.903 1275.83 Q209.098 1279.37 209.098 1286.5 Q209.098 1293.61 210.903 1297.17 Q212.732 1300.72 216.343 1300.72 Q219.977 1300.72 221.783 1297.17 Q223.611 1293.61 223.611 1286.5 Q223.611 1279.37 221.783 1275.83 Q219.977 1272.27 216.343 1272.27 M216.343 1268.56 Q222.153 1268.56 225.209 1273.17 Q228.287 1277.75 228.287 1286.5 Q228.287 1295.23 225.209 1299.84 Q222.153 1304.42 216.343 1304.42 Q210.533 1304.42 207.454 1299.84 Q204.399 1295.23 204.399 1286.5 Q204.399 1277.75 207.454 1273.17 Q210.533 1268.56 216.343 1268.56 Z" fill="#000000" fill-rule="nonzero" fill-opacity="1" /><path clip-path="url(#clip090)" d="M116.668 988.437 L124.306 988.437 L124.306 962.071 L115.996 963.738 L115.996 959.478 L124.26 957.812 L128.936 957.812 L128.936 988.437 L136.575 988.437 L136.575 992.372 L116.668 992.372 L116.668 988.437 Z" fill="#000000" fill-rule="nonzero" fill-opacity="1" /><path clip-path="url(#clip090)" d="M146.066 957.812 L164.422 957.812 L164.422 961.747 L150.348 961.747 L150.348 970.219 Q151.366 969.872 152.385 969.71 Q153.403 969.525 154.422 969.525 Q160.209 969.525 163.589 972.696 Q166.968 975.867 166.968 981.284 Q166.968 986.862 163.496 989.964 Q160.024 993.043 153.704 993.043 Q151.528 993.043 149.26 992.673 Q147.015 992.302 144.607 991.562 L144.607 986.862 Q146.691 987.997 148.913 988.552 Q151.135 989.108 153.612 989.108 Q157.616 989.108 159.954 987.001 Q162.292 984.895 162.292 981.284 Q162.292 977.673 159.954 975.566 Q157.616 973.46 153.612 973.46 Q151.737 973.46 149.862 973.876 Q148.01 974.293 146.066 975.173 L146.066 957.812 Z" fill="#000000" fill-rule="nonzero" fill-opacity="1" /><path clip-path="url(#clip090)" d="M186.181 960.89 Q182.57 960.89 180.741 964.455 Q178.936 967.997 178.936 975.126 Q178.936 982.233 180.741 985.798 Q182.57 989.339 186.181 989.339 Q189.815 989.339 191.621 985.798 Q193.45 982.233 193.45 975.126 Q193.45 967.997 191.621 964.455 Q189.815 960.89 186.181 960.89 M186.181 957.187 Q191.991 957.187 195.047 961.793 Q198.125 966.376 198.125 975.126 Q198.125 983.853 195.047 988.46 Q191.991 993.043 186.181 993.043 Q180.371 993.043 177.292 988.46 Q174.237 983.853 174.237 975.126 Q174.237 966.376 177.292 961.793 Q180.371 957.187 186.181 957.187 Z" fill="#000000" fill-rule="nonzero" fill-opacity="1" /><path clip-path="url(#clip090)" d="M216.343 960.89 Q212.732 960.89 210.903 964.455 Q209.098 967.997 209.098 975.126 Q209.098 982.233 210.903 985.798 Q212.732 989.339 216.343 989.339 Q219.977 989.339 221.783 985.798 Q223.611 982.233 223.611 975.126 Q223.611 967.997 221.783 964.455 Q219.977 960.89 216.343 960.89 M216.343 957.187 Q222.153 957.187 225.209 961.793 Q228.287 966.376 228.287 975.126 Q228.287 983.853 225.209 988.46 Q222.153 993.043 216.343 993.043 Q210.533 993.043 207.454 988.46 Q204.399 983.853 204.399 975.126 Q204.399 966.376 207.454 961.793 Q210.533 957.187 216.343 957.187 Z" fill="#000000" fill-rule="nonzero" fill-opacity="1" /><path clip-path="url(#clip090)" d="M119.885 677.059 L136.204 677.059 L136.204 680.995 L114.26 680.995 L114.26 677.059 Q116.922 674.305 121.505 669.675 Q126.112 665.022 127.292 663.68 Q129.538 661.157 130.417 659.421 Q131.32 657.661 131.32 655.972 Q131.32 653.217 129.376 651.481 Q127.455 649.745 124.353 649.745 Q122.154 649.745 119.7 650.509 Q117.269 651.273 114.492 652.823 L114.492 648.101 Q117.316 646.967 119.769 646.388 Q122.223 645.81 124.26 645.81 Q129.63 645.81 132.825 648.495 Q136.019 651.18 136.019 655.671 Q136.019 657.8 135.209 659.722 Q134.422 661.62 132.316 664.212 Q131.737 664.884 128.635 668.101 Q125.533 671.296 119.885 677.059 Z" fill="#000000" fill-rule="nonzero" fill-opacity="1" /><path clip-path="url(#clip090)" d="M156.019 649.513 Q152.408 649.513 150.579 653.078 Q148.774 656.62 148.774 663.749 Q148.774 670.856 150.579 674.421 Q152.408 677.962 156.019 677.962 Q159.653 677.962 161.459 674.421 Q163.288 670.856 163.288 663.749 Q163.288 656.62 161.459 653.078 Q159.653 649.513 156.019 649.513 M156.019 645.81 Q161.829 645.81 164.885 650.416 Q167.964 654.999 167.964 663.749 Q167.964 672.476 164.885 677.083 Q161.829 681.666 156.019 681.666 Q150.209 681.666 147.13 677.083 Q144.075 672.476 144.075 663.749 Q144.075 654.999 147.13 650.416 Q150.209 645.81 156.019 645.81 Z" fill="#000000" fill-rule="nonzero" fill-opacity="1" /><path clip-path="url(#clip090)" d="M186.181 649.513 Q182.57 649.513 180.741 653.078 Q178.936 656.62 178.936 663.749 Q178.936 670.856 180.741 674.421 Q182.57 677.962 186.181 677.962 Q189.815 677.962 191.621 674.421 Q193.45 670.856 193.45 663.749 Q193.45 656.62 191.621 653.078 Q189.815 649.513 186.181 649.513 M186.181 645.81 Q191.991 645.81 195.047 650.416 Q198.125 654.999 198.125 663.749 Q198.125 672.476 195.047 677.083 Q191.991 681.666 186.181 681.666 Q180.371 681.666 177.292 677.083 Q174.237 672.476 174.237 663.749 Q174.237 654.999 177.292 650.416 Q180.371 645.81 186.181 645.81 Z" fill="#000000" fill-rule="nonzero" fill-opacity="1" /><path clip-path="url(#clip090)" d="M216.343 649.513 Q212.732 649.513 210.903 653.078 Q209.098 656.62 209.098 663.749 Q209.098 670.856 210.903 674.421 Q212.732 677.962 216.343 677.962 Q219.977 677.962 221.783 674.421 Q223.611 670.856 223.611 663.749 Q223.611 656.62 221.783 653.078 Q219.977 649.513 216.343 649.513 M216.343 645.81 Q222.153 645.81 225.209 650.416 Q228.287 654.999 228.287 663.749 Q228.287 672.476 225.209 677.083 Q222.153 681.666 216.343 681.666 Q210.533 681.666 207.454 677.083 Q204.399 672.476 204.399 663.749 Q204.399 654.999 207.454 650.416 Q210.533 645.81 216.343 645.81 Z" fill="#000000" fill-rule="nonzero" fill-opacity="1" /><path clip-path="url(#clip090)" d="M119.885 365.682 L136.204 365.682 L136.204 369.617 L114.26 369.617 L114.26 365.682 Q116.922 362.928 121.505 358.298 Q126.112 353.645 127.292 352.303 Q129.538 349.78 130.417 348.044 Q131.32 346.284 131.32 344.594 Q131.32 341.84 129.376 340.104 Q127.455 338.368 124.353 338.368 Q122.154 338.368 119.7 339.132 Q117.269 339.895 114.492 341.446 L114.492 336.724 Q117.316 335.59 119.769 335.011 Q122.223 334.432 124.26 334.432 Q129.63 334.432 132.825 337.118 Q136.019 339.803 136.019 344.294 Q136.019 346.423 135.209 348.344 Q134.422 350.243 132.316 352.835 Q131.737 353.506 128.635 356.724 Q125.533 359.918 119.885 365.682 Z" fill="#000000" fill-rule="nonzero" fill-opacity="1" /><path clip-path="url(#clip090)" d="M146.066 335.057 L164.422 335.057 L164.422 338.993 L150.348 338.993 L150.348 347.465 Q151.366 347.118 152.385 346.956 Q153.403 346.77 154.422 346.77 Q160.209 346.77 163.589 349.942 Q166.968 353.113 166.968 358.53 Q166.968 364.108 163.496 367.21 Q160.024 370.289 153.704 370.289 Q151.528 370.289 149.26 369.918 Q147.015 369.548 144.607 368.807 L144.607 364.108 Q146.691 365.242 148.913 365.798 Q151.135 366.354 153.612 366.354 Q157.616 366.354 159.954 364.247 Q162.292 362.141 162.292 358.53 Q162.292 354.918 159.954 352.812 Q157.616 350.706 153.612 350.706 Q151.737 350.706 149.862 351.122 Q148.01 351.539 146.066 352.418 L146.066 335.057 Z" fill="#000000" fill-rule="nonzero" fill-opacity="1" /><path clip-path="url(#clip090)" d="M186.181 338.136 Q182.57 338.136 180.741 341.701 Q178.936 345.243 178.936 352.372 Q178.936 359.479 180.741 363.043 Q182.57 366.585 186.181 366.585 Q189.815 366.585 191.621 363.043 Q193.45 359.479 193.45 352.372 Q193.45 345.243 191.621 341.701 Q189.815 338.136 186.181 338.136 M186.181 334.432 Q191.991 334.432 195.047 339.039 Q198.125 343.622 198.125 352.372 Q198.125 361.099 195.047 365.705 Q191.991 370.289 186.181 370.289 Q180.371 370.289 177.292 365.705 Q174.237 361.099 174.237 352.372 Q174.237 343.622 177.292 339.039 Q180.371 334.432 186.181 334.432 Z" fill="#000000" fill-rule="nonzero" fill-opacity="1" /><path clip-path="url(#clip090)" d="M216.343 338.136 Q212.732 338.136 210.903 341.701 Q209.098 345.243 209.098 352.372 Q209.098 359.479 210.903 363.043 Q212.732 366.585 216.343 366.585 Q219.977 366.585 221.783 363.043 Q223.611 359.479 223.611 352.372 Q223.611 345.243 221.783 341.701 Q219.977 338.136 216.343 338.136 M216.343 334.432 Q222.153 334.432 225.209 339.039 Q228.287 343.622 228.287 352.372 Q228.287 361.099 225.209 365.705 Q222.153 370.289 216.343 370.289 Q210.533 370.289 207.454 365.705 Q204.399 361.099 204.399 352.372 Q204.399 343.622 207.454 339.039 Q210.533 334.432 216.343 334.432 Z" fill="#000000" fill-rule="nonzero" fill-opacity="1" /><path clip-path="url(#clip090)" d="M16.4842 846.103 L16.4842 818.794 L21.895 818.794 L21.895 839.673 L35.8996 839.673 L35.8996 820.831 L41.3104 820.831 L41.3104 839.673 L64.0042 839.673 L64.0042 846.103 L16.4842 846.103 Z" fill="#000000" fill-rule="nonzero" fill-opacity="1" /><path clip-path="url(#clip090)" d="M58.5933 802.497 L58.5933 780.058 L64.0042 780.058 L64.0042 810.232 L58.5933 810.232 Q54.8057 806.572 48.44 800.269 Q42.0425 793.936 40.1964 792.312 Q36.7271 789.225 34.34 788.016 Q31.921 786.774 29.5975 786.774 Q25.8099 786.774 23.4228 789.448 Q21.0356 792.09 21.0356 796.355 Q21.0356 799.378 22.086 802.752 Q23.1363 806.094 25.2688 809.914 L18.7758 809.914 Q17.2162 806.03 16.4205 802.657 Q15.6248 799.283 15.6248 796.482 Q15.6248 789.098 19.3169 784.705 Q23.009 780.313 29.1837 780.313 Q32.112 780.313 34.7537 781.427 Q37.3637 782.509 40.9285 785.406 Q41.8515 786.201 46.2757 790.466 Q50.668 794.731 58.5933 802.497 Z" fill="#000000" fill-rule="nonzero" fill-opacity="1" /><path clip-path="url(#clip090)" d="M14.5426 732.602 Q21.8632 736.867 29.0246 738.936 Q36.186 741.005 43.5384 741.005 Q50.8908 741.005 58.1159 738.936 Q65.3091 736.835 72.5979 732.602 L72.5979 737.695 Q65.1182 742.469 57.8931 744.856 Q50.668 747.211 43.5384 747.211 Q36.4406 747.211 29.2474 744.856 Q22.0542 742.501 14.5426 737.695 L14.5426 732.602 Z" fill="#000000" fill-rule="nonzero" fill-opacity="1" /><path clip-path="url(#clip090)" d="M16.4842 720.985 L16.4842 714.555 L35.9632 714.555 L35.9632 691.193 L16.4842 691.193 L16.4842 684.764 L64.0042 684.764 L64.0042 691.193 L41.3741 691.193 L41.3741 714.555 L64.0042 714.555 L64.0042 720.985 L16.4842 720.985 Z" fill="#000000" fill-rule="nonzero" fill-opacity="1" /><path clip-path="url(#clip090)" d="M28.3562 674.77 L28.3562 646.951 L33.7034 646.951 L59.3254 668.977 L59.3254 646.951 L64.0042 646.951 L64.0042 675.565 L58.657 675.565 L33.035 653.54 L33.035 674.77 L28.3562 674.77 Z" fill="#000000" fill-rule="nonzero" fill-opacity="1" /><path clip-path="url(#clip090)" d="M14.5426 638.931 L14.5426 633.838 Q22.0542 629.064 29.2474 626.708 Q36.4406 624.321 43.5384 624.321 Q50.668 624.321 57.8931 626.708 Q65.1182 629.064 72.5979 633.838 L72.5979 638.931 Q65.3091 634.697 58.1159 632.629 Q50.8908 630.528 43.5384 630.528 Q36.186 630.528 29.0246 632.629 Q21.8632 634.697 14.5426 638.931 Z" fill="#000000" fill-rule="nonzero" fill-opacity="1" /><circle clip-path="url(#clip092)" cx="463.154" cy="206.783" r="10.8" fill="#009af9" fill-rule="evenodd" fill-opacity="1" stroke="#000000" stroke-opacity="1" stroke-width="3.2"/>
<polyline clip-path="url(#clip092)" style="stroke:#009af9; stroke-linecap:round; stroke-linejoin:round; stroke-width:12; stroke-opacity:1; fill:none" points="602.915,133.718 602.904,132.515 602.871,131.325 602.816,130.146 602.738,128.98 602.638,127.826 602.517,126.684 602.373,125.556 602.207,124.44 602.019,123.337 601.809,122.247 601.577,121.171 601.323,120.108 601.047,119.059 600.749,118.024 600.43,117.003 600.089,115.997 599.726,115.004 599.341,114.026 598.935,113.063 598.507,112.115 598.058,111.182 597.587,110.264 597.095,109.361 596.582,108.474 596.048,107.602 595.492,106.746 594.916,105.906 594.319,105.082 593.701,104.274 593.062,103.482 592.403,102.707 591.723,101.948 591.023,101.206 590.302,100.48 589.561,99.7716 588.801,99.0799 588.02,98.4053 587.22,97.7478 586.4,97.1077 585.56,96.4849 584.701,95.8797 583.823,95.292 582.925,94.722 582.009,94.1697 581.073,93.6353 580.119,93.1189 579.147,92.6204 578.156,92.1401 577.147,91.678 576.12,91.234 575.075,90.8085 574.012,90.4013 572.931,90.0125 571.834,89.6423 570.718,89.2906 569.586,88.9576 568.437,88.6432 567.272,88.3476 566.089,88.0708 564.891,87.8127 563.676,87.5736 562.446,87.3533 561.199,87.152 559.937,86.9696 558.66,86.8063 557.368,86.6619 556.061,86.5366 554.739,86.4304 553.402,86.3432 552.051,86.2752 550.686,86.2262 549.307,86.1964 547.915,86.1857 546.509,86.1941 545.09,86.2216 543.658,86.2682 542.213,86.334 540.755,86.4188 539.286,86.5227 537.804,86.6457 536.31,86.7878 534.805,86.9488 533.288,87.1289 531.761,87.3279 530.222,87.5459 528.673,87.7827 527.113,88.0385 525.544,88.313 523.964,88.6064 522.375,88.9185 520.776,89.2493 519.168,89.5987 517.551,89.9666 515.926,90.3531 514.292,90.7581 512.651,91.1815 511.001,91.6232 509.344,92.0831 507.679,92.5612 506.008,93.0575 504.329,93.5718 502.644,94.104 500.953,94.6541 499.256,95.2219 497.553,95.8075 495.845,96.4106 494.131,97.0313 492.413,97.6693 490.69,98.3247 488.962,98.9972 487.231,99.6868 485.495,100.393 483.756,101.117 482.014,101.857 480.269,102.614 478.521,103.387 476.771,104.177 475.018,104.983 473.264,105.805 471.508,106.644 469.751,107.498 467.992,108.367 466.233,109.253 464.474,110.154 462.714,111.07 460.954,112.001 459.195,112.948 457.436,113.909 455.678,114.885 453.921,115.876 452.166,116.88 450.413,117.9 448.661,118.933 446.912,119.98 445.166,121.041 443.422,122.116 441.681,123.204 439.944,124.305 438.211,125.42 436.481,126.547 434.756,127.687 433.035,128.839 431.319,130.004 429.608,131.181 427.902,132.37 426.202,133.571 424.508,134.784 422.82,136.007 421.138,137.243 419.463,138.489 417.795,139.746 416.134,141.013 414.481,142.291 412.835,143.579 411.197,144.878 409.568,146.186 407.947,147.503 406.334,148.83 404.731,150.167 403.137,151.512 401.553,152.866 399.978,154.228 398.413,155.599 396.859,156.978 395.315,158.365 393.782,159.76 392.259,161.162 390.748,162.571 389.249,163.987 387.761,165.41 386.285,166.84 384.822,168.276 383.371,169.718 381.932,171.166 380.506,172.619 379.094,174.078 377.695,175.542 376.309,177.011 374.937,178.485 373.579,179.964 372.235,181.446 370.906,182.933 369.591,184.423 368.292,185.917 367.007,187.414 365.737,188.914 364.483,190.418 363.245,191.923 362.022,193.431 360.815,194.942 359.625,196.454 358.451,197.967 357.294,199.482 356.153,200.999 355.029,202.516 353.923,204.034 352.834,205.552 351.762,207.071 350.708,208.589 349.672,210.107 348.654,211.625 347.654,213.142 346.672,214.657 345.709,216.172 344.764,217.685 343.838,219.197 342.931,220.706 342.043,222.213 341.175,223.718 340.325,225.22 339.496,226.719 338.685,228.215 337.895,229.708 337.124,231.197 336.373,232.682 335.643,234.163 334.932,235.64 334.242,237.112 333.573,238.579 332.924,240.041 332.295,241.498 331.688,242.949 331.101,244.395 330.535,245.835 329.99,247.268 329.466,248.696 328.964,250.116 328.482,251.53 328.022,252.936 327.584,254.335 327.167,255.727 326.772,257.111 326.398,258.487 326.046,259.855 325.715,261.214 325.407,262.565 325.12,263.907 324.855,265.239 324.612,266.563 324.391,267.877 324.192,269.181 324.015,270.476 323.86,271.76 323.727,273.034 323.616,274.298 323.528,275.551 323.461,276.792 323.417,278.023 323.395,279.243 323.395,280.451 323.417,281.647 323.461,282.832 323.528,284.004 323.616,285.165 323.727,286.312 323.86,287.448 324.015,288.57 324.192,289.679 324.391,290.776 324.612,291.859 324.855,292.928 325.12,293.984 325.407,295.026 325.715,296.054 326.046,297.068 326.398,298.067 326.772,299.052 327.167,300.023 327.584,300.979 328.022,301.919 328.482,302.845 328.964,303.755 329.466,304.65 329.99,305.53 330.535,306.394 331.101,307.242 331.688,308.074 332.295,308.89 332.924,309.69 333.573,310.473 334.242,311.241 334.932,311.991 335.643,312.725 336.373,313.442 337.124,314.142 337.895,314.826 338.685,315.492 339.496,316.14 340.325,316.772 341.175,317.386 342.043,317.982 342.931,318.561 343.838,319.122 344.764,319.666 345.709,320.191 346.672,320.699 347.654,321.188 348.654,321.659 349.672,322.112 350.708,322.547 351.762,322.963 352.834,323.361 353.923,323.741 355.029,324.102 356.153,324.444 357.294,324.768 358.451,325.073 359.625,325.359 360.815,325.627 362.022,325.875 363.245,326.105 364.483,326.316 365.737,326.508 367.007,326.68 368.292,326.834 369.591,326.969 370.906,327.085 372.235,327.182 373.579,327.259 374.937,327.318 376.309,327.357 377.695,327.377 379.094,327.378 380.506,327.361 381.932,327.323 383.371,327.267 384.822,327.192 386.285,327.098 387.761,326.984 389.249,326.852 390.748,326.7 392.259,326.529 393.782,326.34 395.315,326.131 396.859,325.904 398.413,325.658 399.978,325.393 401.553,325.109 403.137,324.806 404.731,324.484 406.334,324.144 407.947,323.786 409.568,323.408 411.197,323.013 412.835,322.598 414.481,322.166 416.134,321.715 417.795,321.246 419.463,320.759 421.138,320.254 422.82,319.73 424.508,319.189 426.202,318.63 427.902,318.053 429.608,317.459 431.319,316.847 433.035,316.218 434.756,315.571 436.481,314.907 438.211,314.226 439.944,313.528 441.681,312.813 443.422,312.081 445.166,311.332 446.912,310.567 448.661,309.786 450.413,308.988 452.166,308.174 453.921,307.343 455.678,306.497 457.436,305.635 459.195,304.758 460.954,303.865 462.714,302.956 464.474,302.032 466.233,301.093 467.992,300.139 469.751,299.171 471.508,298.188 473.264,297.19 475.018,296.178 476.771,295.151 478.521,294.111 480.269,293.057 482.014,291.989 483.756,290.908 485.495,289.813 487.231,288.705 488.962,287.584 490.69,286.451 492.413,285.304 494.131,284.146 495.845,282.975 497.553,281.792 499.256,280.597 500.953,279.39 502.644,278.172 504.329,276.942 506.008,275.702 507.679,274.45 509.344,273.188 511.001,271.915 512.651,270.632 514.292,269.339 515.926,268.036 517.551,266.723 519.168,265.4 520.776,264.069 522.375,262.728 523.964,261.378 525.544,260.02 527.113,258.653 528.673,257.278 530.222,255.895 531.761,254.505 533.288,253.106 534.805,251.701 536.31,250.288 537.804,248.868 539.286,247.442 540.755,246.009 542.213,244.57 543.658,243.125 545.09,241.674 546.509,240.218 547.915,238.756 549.307,237.29 550.686,235.818 552.051,234.342 553.402,232.862 554.739,231.377 556.061,229.889 557.368,228.396 558.66,226.901 559.937,225.402 561.199,223.9 562.446,222.396 563.676,220.889 564.891,219.38 566.089,217.869 567.272,216.356 568.437,214.841 569.586,213.325 570.718,211.809 571.834,210.291 572.931,208.773 574.012,207.255 575.075,205.736 576.12,204.218 577.147,202.7 578.156,201.183 579.147,199.666 580.119,198.151 581.073,196.637 582.009,195.125 582.925,193.614 583.823,192.106 584.701,190.6 585.56,189.097 586.4,187.596 587.22,186.098 588.02,184.604 588.801,183.113 589.561,181.626 590.302,180.143 591.023,178.664 591.723,177.19 592.403,175.72 593.062,174.255 593.701,172.796 594.319,171.342 594.916,169.893 595.492,168.45 596.048,167.013 596.582,165.583 597.095,164.159 597.587,162.742 598.058,161.332 598.507,159.929 598.935,158.534 599.341,157.146 599.726,155.766 600.089,154.394 600.43,153.031 600.749,151.676 601.047,150.329 601.323,148.992 601.577,147.664 601.809,146.345 602.019,145.036 602.207,143.736 602.373,142.447 602.517,141.168 602.638,139.899 602.738,138.64 602.816,137.393 602.871,136.157 602.904,134.931 602.915,133.718 "/>
<circle clip-path="url(#clip092)" cx="1901.32" cy="965.381" r="10.8" fill="#e26f46" fill-rule="evenodd" fill-opacity="1" stroke="#000000" stroke-opacity="1" stroke-width="3.2"/>
<polyline clip-path="url(#clip092)" style="stroke:#e26f46; stroke-linecap:round; stroke-linejoin:round; stroke-width:12; stroke-opacity:1; fill:none" points="2293.65,889.093 2293.62,887.618 2293.52,886.156 2293.37,884.706 2293.15,883.269 2292.87,881.845 2292.53,880.434 2292.13,879.037 2291.66,877.654 2291.13,876.284 2290.54,874.928 2289.89,873.587 2289.18,872.261 2288.4,870.949 2287.57,869.652 2286.67,868.37 2285.71,867.104 2284.69,865.853 2283.61,864.618 2282.47,863.399 2281.27,862.196 2280.01,861.01 2278.69,859.84 2277.31,858.687 2275.87,857.551 2274.37,856.431 2272.81,855.329 2271.19,854.245 2269.52,853.178 2267.78,852.129 2265.99,851.098 2264.14,850.085 2262.23,849.09 2260.26,848.114 2258.24,847.157 2256.16,846.218 2254.03,845.298 2251.84,844.397 2249.59,843.515 2247.29,842.652 2244.93,841.809 2242.52,840.986 2240.05,840.182 2237.53,839.398 2234.96,838.635 2232.34,837.891 2229.66,837.167 2226.93,836.464 2224.15,835.781 2221.31,835.119 2218.43,834.477 2215.5,833.857 2212.51,833.257 2209.48,832.678 2206.4,832.12 2203.27,831.583 2200.09,831.067 2196.86,830.573 2193.59,830.1 2190.27,829.648 2186.91,829.218 2183.5,828.81 2180.04,828.423 2176.55,828.058 2173,827.714 2169.42,827.393 2165.79,827.093 2162.12,826.816 2158.41,826.56 2154.66,826.326 2150.87,826.115 2147.03,825.925 2143.16,825.758 2139.26,825.612 2135.31,825.489 2131.32,825.388 2127.3,825.309 2123.25,825.253 2119.16,825.218 2115.03,825.206 2110.87,825.216 2106.68,825.249 2102.45,825.303 2098.2,825.38 2093.91,825.479 2089.59,825.6 2085.24,825.743 2080.86,825.909 2076.46,826.096 2072.02,826.306 2067.56,826.537 2063.07,826.791 2058.56,827.067 2054.02,827.364 2049.46,827.684 2044.87,828.025 2040.26,828.388 2035.63,828.773 2030.98,829.179 2026.31,829.607 2021.62,830.057 2016.9,830.528 2012.17,831.02 2007.43,831.534 2002.66,832.069 1997.88,832.625 1993.09,833.202 1988.28,833.8 1983.45,834.419 1978.62,835.059 1973.77,835.719 1968.91,836.4 1964.03,837.101 1959.15,837.823 1954.26,838.565 1949.36,839.327 1944.46,840.109 1939.54,840.911 1934.62,841.733 1929.7,842.574 1924.77,843.434 1919.84,844.314 1914.9,845.214 1909.96,846.132 1905.02,847.069 1900.08,848.025 1895.14,849 1890.21,849.993 1885.27,851.004 1880.33,852.033 1875.4,853.081 1870.48,854.146 1865.55,855.229 1860.64,856.329 1855.73,857.446 1850.82,858.581 1845.93,859.733 1841.04,860.901 1836.17,862.086 1831.3,863.287 1826.45,864.505 1821.6,865.738 1816.77,866.988 1811.96,868.253 1807.15,869.533 1802.36,870.828 1797.59,872.139 1792.84,873.464 1788.1,874.804 1783.38,876.158 1778.67,877.526 1773.99,878.909 1769.33,880.305 1764.69,881.714 1760.07,883.137 1755.47,884.573 1750.9,886.021 1746.35,887.482 1741.82,888.956 1737.32,890.442 1732.85,891.939 1728.4,893.448 1723.98,894.969 1719.58,896.5 1715.22,898.043 1710.89,899.596 1706.58,901.16 1702.31,902.734 1698.07,904.318 1693.86,905.912 1689.68,907.515 1685.54,909.127 1681.43,910.748 1677.36,912.377 1673.32,914.016 1669.32,915.662 1665.35,917.316 1661.43,918.978 1657.54,920.647 1653.68,922.323 1649.87,924.006 1646.1,925.696 1642.37,927.392 1638.68,929.094 1635.03,930.801 1631.42,932.515 1627.86,934.233 1624.34,935.956 1620.86,937.684 1617.43,939.417 1614.04,941.153 1610.7,942.893 1607.41,944.637 1604.16,946.385 1600.95,948.135 1597.8,949.888 1594.69,951.643 1591.64,953.401 1588.63,955.16 1585.67,956.921 1582.76,958.684 1579.9,960.447 1577.1,962.211 1574.34,963.976 1571.64,965.741 1568.98,967.506 1566.39,969.271 1563.84,971.035 1561.35,972.798 1558.91,974.56 1556.52,976.32 1554.2,978.079 1551.92,979.836 1549.7,981.59 1547.54,983.342 1545.43,985.091 1543.38,986.837 1541.39,988.579 1539.45,990.318 1537.57,992.053 1535.75,993.783 1533.98,995.51 1532.28,997.231 1530.63,998.947 1529.04,1000.66 1527.51,1002.36 1526.04,1004.06 1524.63,1005.76 1523.28,1007.44 1521.99,1009.12 1520.76,1010.8 1519.59,1012.46 1518.48,1014.12 1517.43,1015.77 1516.44,1017.42 1515.51,1019.05 1514.65,1020.68 1513.84,1022.29 1513.1,1023.9 1512.41,1025.5 1511.79,1027.09 1511.24,1028.67 1510.74,1030.24 1510.3,1031.8 1509.93,1033.35 1509.62,1034.89 1509.37,1036.42 1509.19,1037.93 1509.06,1039.44 1509,1040.93 1509,1042.41 1509.06,1043.88 1509.19,1045.33 1509.37,1046.78 1509.62,1048.21 1509.93,1049.62 1510.3,1051.03 1510.74,1052.42 1511.24,1053.8 1511.79,1055.16 1512.41,1056.51 1513.1,1057.84 1513.84,1059.16 1514.65,1060.46 1515.51,1061.75 1516.44,1063.03 1517.43,1064.29 1518.48,1065.53 1519.59,1066.76 1520.76,1067.97 1521.99,1069.16 1523.28,1070.34 1524.63,1071.5 1526.04,1072.65 1527.51,1073.77 1529.04,1074.88 1530.63,1075.98 1532.28,1077.05 1533.98,1078.11 1535.75,1079.15 1537.57,1080.17 1539.45,1081.18 1541.39,1082.16 1543.38,1083.13 1545.43,1084.08 1547.54,1085.01 1549.7,1085.92 1551.92,1086.81 1554.2,1087.68 1556.52,1088.53 1558.91,1089.37 1561.35,1090.18 1563.84,1090.97 1566.39,1091.75 1568.98,1092.5 1571.64,1093.24 1574.34,1093.95 1577.1,1094.64 1579.9,1095.32 1582.76,1095.97 1585.67,1096.6 1588.63,1097.21 1591.64,1097.8 1594.69,1098.37 1597.8,1098.91 1600.95,1099.44 1604.16,1099.95 1607.41,1100.43 1610.7,1100.89 1614.04,1101.33 1617.43,1101.75 1620.86,1102.15 1624.34,1102.53 1627.86,1102.88 1631.42,1103.21 1635.03,1103.52 1638.68,1103.81 1642.37,1104.08 1646.1,1104.32 1649.87,1104.55 1653.68,1104.75 1657.54,1104.92 1661.43,1105.08 1665.35,1105.21 1669.32,1105.33 1673.32,1105.42 1677.36,1105.48 1681.43,1105.53 1685.54,1105.55 1689.68,1105.55 1693.86,1105.53 1698.07,1105.49 1702.31,1105.42 1706.58,1105.34 1710.89,1105.23 1715.22,1105.09 1719.58,1104.94 1723.98,1104.76 1728.4,1104.56 1732.85,1104.34 1737.32,1104.1 1741.82,1103.84 1746.35,1103.55 1750.9,1103.24 1755.47,1102.91 1760.07,1102.56 1764.69,1102.18 1769.33,1101.79 1773.99,1101.37 1778.67,1100.93 1783.38,1100.47 1788.1,1099.99 1792.84,1099.49 1797.59,1098.96 1802.36,1098.42 1807.15,1097.85 1811.96,1097.26 1816.77,1096.66 1821.6,1096.03 1826.45,1095.38 1831.3,1094.71 1836.17,1094.01 1841.04,1093.3 1845.93,1092.57 1850.82,1091.82 1855.73,1091.05 1860.64,1090.26 1865.55,1089.44 1870.48,1088.61 1875.4,1087.76 1880.33,1086.89 1885.27,1086 1890.21,1085.09 1895.14,1084.16 1900.08,1083.22 1905.02,1082.25 1909.96,1081.27 1914.9,1080.27 1919.84,1079.25 1924.77,1078.21 1929.7,1077.15 1934.62,1076.08 1939.54,1074.99 1944.46,1073.88 1949.36,1072.75 1954.26,1071.61 1959.15,1070.45 1964.03,1069.27 1968.91,1068.08 1973.77,1066.87 1978.62,1065.64 1983.45,1064.4 1988.28,1063.14 1993.09,1061.87 1997.88,1060.58 2002.66,1059.28 2007.43,1057.96 2012.17,1056.63 2016.9,1055.28 2021.62,1053.92 2026.31,1052.55 2030.98,1051.16 2035.63,1049.76 2040.26,1048.34 2044.87,1046.91 2049.46,1045.47 2054.02,1044.01 2058.56,1042.55 2063.07,1041.07 2067.56,1039.57 2072.02,1038.07 2076.46,1036.56 2080.86,1035.03 2085.24,1033.49 2089.59,1031.94 2093.91,1030.39 2098.2,1028.82 2102.45,1027.24 2106.68,1025.65 2110.87,1024.05 2115.03,1022.44 2119.16,1020.83 2123.25,1019.2 2127.3,1017.57 2131.32,1015.93 2135.31,1014.27 2139.26,1012.62 2143.16,1010.95 2147.03,1009.28 2150.87,1007.6 2154.66,1005.91 2158.41,1004.22 2162.12,1002.52 2165.79,1000.82 2169.42,999.105 2173,997.39 2176.55,995.669 2180.04,993.943 2183.5,992.213 2186.91,990.478 2190.27,988.74 2193.59,986.998 2196.86,985.252 2200.09,983.504 2203.27,981.752 2206.4,979.998 2209.48,978.241 2212.51,976.483 2215.5,974.722 2218.43,972.961 2221.31,971.198 2224.15,969.434 2226.93,967.669 2229.66,965.904 2232.34,964.139 2234.96,962.374 2237.53,960.61 2240.05,958.846 2242.52,957.084 2244.93,955.323 2247.29,953.563 2249.59,951.805 2251.84,950.05 2254.03,948.297 2256.16,946.546 2258.24,944.799 2260.26,943.054 2262.23,941.314 2264.14,939.577 2265.99,937.844 2267.78,936.116 2269.52,934.392 2271.19,932.673 2272.81,930.959 2274.37,929.251 2275.87,927.549 2277.31,925.852 2278.69,924.162 2280.01,922.478 2281.27,920.801 2282.47,919.132 2283.61,917.469 2284.69,915.814 2285.71,914.167 2286.67,912.528 2287.57,910.898 2288.4,909.276 2289.18,907.663 2289.89,906.059 2290.54,904.465 2291.13,902.88 2291.66,901.305 2292.13,899.74 2292.53,898.186 2292.87,896.643 2293.15,895.11 2293.37,893.588 2293.52,892.078 2293.62,890.579 2293.65,889.093 "/>
<circle clip-path="url(#clip092)" cx="548.23" cy="1203.01" r="10.8" fill="#3da44d" fill-rule="evenodd" fill-opacity="1" stroke="#000000" stroke-opacity="1" stroke-width="3.2"/>
<polyline clip-path="url(#clip092)" style="stroke:#3da44d; stroke-linecap:round; stroke-linejoin:round; stroke-width:12; stroke-opacity:1; fill:none" points="750.398,1232.66 750.382,1230.41 750.334,1228.15 750.253,1225.89 750.141,1223.62 749.997,1221.35 749.821,1219.08 749.613,1216.81 749.373,1214.53 749.101,1212.25 748.797,1209.97 748.462,1207.69 748.094,1205.41 747.695,1203.13 747.265,1200.85 746.802,1198.57 746.309,1196.28 745.784,1194 745.227,1191.73 744.64,1189.45 744.021,1187.18 743.371,1184.9 742.69,1182.63 741.979,1180.37 741.236,1178.11 740.463,1175.85 739.66,1173.59 738.826,1171.35 737.962,1169.1 737.068,1166.86 736.144,1164.63 735.191,1162.4 734.207,1160.18 733.194,1157.97 732.152,1155.76 731.081,1153.56 729.98,1151.37 728.851,1149.19 727.693,1147.01 726.507,1144.85 725.293,1142.69 724.05,1140.54 722.78,1138.41 721.481,1136.28 720.156,1134.16 718.803,1132.06 717.423,1129.96 716.016,1127.88 714.583,1125.81 713.123,1123.75 711.637,1121.71 710.125,1119.67 708.588,1117.65 707.025,1115.65 705.437,1113.66 703.824,1111.68 702.187,1109.71 700.524,1107.77 698.838,1105.83 697.128,1103.91 695.395,1102.01 693.638,1100.12 691.857,1098.25 690.055,1096.4 688.229,1094.56 686.382,1092.74 684.512,1090.94 682.621,1089.16 680.709,1087.39 678.776,1085.64 676.822,1083.91 674.847,1082.2 672.853,1080.51 670.838,1078.84 668.805,1077.19 666.752,1075.56 664.68,1073.94 662.59,1072.35 660.482,1070.78 658.356,1069.23 656.213,1067.7 654.052,1066.2 651.875,1064.71 649.681,1063.25 647.471,1061.8 645.245,1060.39 643.004,1058.99 640.748,1057.62 638.478,1056.27 636.193,1054.94 633.894,1053.63 631.581,1052.35 629.256,1051.1 626.917,1049.87 624.566,1048.66 622.203,1047.47 619.828,1046.32 617.442,1045.18 615.044,1044.07 612.637,1042.99 610.219,1041.93 607.791,1040.9 605.354,1039.89 602.907,1038.91 600.452,1037.95 597.989,1037.03 595.518,1036.12 593.039,1035.25 590.553,1034.4 588.061,1033.57 585.562,1032.78 583.057,1032.01 580.547,1031.27 578.032,1030.55 575.512,1029.86 572.987,1029.2 570.459,1028.57 567.927,1027.97 565.392,1027.39 562.854,1026.84 560.314,1026.32 557.772,1025.83 555.229,1025.36 552.684,1024.93 550.139,1024.52 547.593,1024.14 545.048,1023.78 542.503,1023.46 539.959,1023.17 537.416,1022.9 534.875,1022.66 532.336,1022.45 529.8,1022.27 527.266,1022.12 524.736,1021.99 522.21,1021.9 519.687,1021.83 517.17,1021.8 514.657,1021.79 512.149,1021.81 509.647,1021.86 507.152,1021.93 504.663,1022.04 502.18,1022.18 499.705,1022.34 497.238,1022.53 494.779,1022.75 492.328,1023 489.886,1023.28 487.454,1023.59 485.031,1023.92 482.618,1024.28 480.215,1024.68 477.823,1025.1 475.443,1025.54 473.074,1026.02 470.717,1026.52 468.372,1027.06 466.039,1027.62 463.72,1028.21 461.415,1028.82 459.123,1029.46 456.845,1030.14 454.581,1030.83 452.333,1031.56 450.099,1032.31 447.882,1033.09 445.68,1033.9 443.494,1034.73 441.325,1035.59 439.173,1036.48 437.038,1037.39 434.921,1038.33 432.822,1039.3 430.741,1040.29 428.679,1041.31 426.636,1042.35 424.612,1043.42 422.607,1044.51 420.623,1045.63 418.658,1046.77 416.715,1047.94 414.792,1049.14 412.89,1050.35 411.01,1051.6 409.151,1052.86 407.315,1054.15 405.501,1055.46 403.709,1056.8 401.941,1058.16 400.195,1059.54 398.473,1060.95 396.775,1062.38 395.101,1063.83 393.451,1065.3 391.826,1066.79 390.225,1068.31 388.65,1069.85 387.1,1071.41 385.575,1072.98 384.076,1074.58 382.603,1076.2 381.157,1077.84 379.737,1079.5 378.343,1081.18 376.977,1082.88 375.638,1084.6 374.326,1086.34 373.041,1088.09 371.785,1089.87 370.556,1091.66 369.356,1093.47 368.184,1095.29 367.04,1097.14 365.925,1099 364.839,1100.87 363.783,1102.77 362.755,1104.68 361.757,1106.6 360.788,1108.54 359.849,1110.5 358.94,1112.46 358.061,1114.45 357.213,1116.45 356.394,1118.46 355.606,1120.48 354.848,1122.52 354.121,1124.57 353.425,1126.64 352.76,1128.71 352.126,1130.8 351.522,1132.9 350.95,1135.01 350.41,1137.13 349.9,1139.26 349.422,1141.4 348.976,1143.55 348.561,1145.71 348.178,1147.88 347.826,1150.06 347.507,1152.24 347.219,1154.44 346.963,1156.64 346.739,1158.85 346.547,1161.07 346.386,1163.29 346.258,1165.52 346.162,1167.75 346.098,1170 346.066,1172.24 346.066,1174.49 346.098,1176.75 346.162,1179.01 346.258,1181.27 346.386,1183.54 346.547,1185.81 346.739,1188.08 346.963,1190.36 347.219,1192.63 347.507,1194.91 347.826,1197.19 348.178,1199.48 348.561,1201.76 348.976,1204.04 349.422,1206.32 349.9,1208.6 350.41,1210.88 350.95,1213.16 351.522,1215.44 352.126,1217.71 352.76,1219.99 353.425,1222.26 354.121,1224.53 354.848,1226.79 355.606,1229.05 356.394,1231.31 357.213,1233.56 358.061,1235.8 358.94,1238.05 359.849,1240.28 360.788,1242.51 361.757,1244.74 362.755,1246.95 363.783,1249.16 364.839,1251.37 365.925,1253.56 367.04,1255.75 368.184,1257.93 369.356,1260.1 370.556,1262.26 371.785,1264.41 373.041,1266.55 374.326,1268.69 375.638,1270.81 376.977,1272.92 378.343,1275.02 379.737,1277.11 381.157,1279.18 382.603,1281.25 384.076,1283.3 385.575,1285.34 387.1,1287.36 388.65,1289.38 390.225,1291.38 391.826,1293.36 393.451,1295.33 395.101,1297.29 396.775,1299.23 398.473,1301.16 400.195,1303.07 401.941,1304.96 403.709,1306.84 405.501,1308.7 407.315,1310.55 409.151,1312.38 411.01,1314.19 412.89,1315.98 414.792,1317.75 416.715,1319.51 418.658,1321.25 420.623,1322.97 422.607,1324.67 424.612,1326.35 426.636,1328.02 428.679,1329.66 430.741,1331.28 432.822,1332.88 434.921,1334.46 437.038,1336.02 439.173,1337.56 441.325,1339.08 443.494,1340.58 445.68,1342.05 447.882,1343.5 450.099,1344.93 452.333,1346.34 454.581,1347.73 456.845,1349.09 459.123,1350.43 461.415,1351.74 463.72,1353.04 466.039,1354.3 468.372,1355.55 470.717,1356.77 473.074,1357.96 475.443,1359.14 477.823,1360.28 480.215,1361.4 482.618,1362.5 485.031,1363.57 487.454,1364.62 489.886,1365.64 492.328,1366.63 494.779,1367.6 497.238,1368.54 499.705,1369.46 502.18,1370.35 504.663,1371.21 507.152,1372.04 509.647,1372.85 512.149,1373.64 514.657,1374.39 517.17,1375.12 519.687,1375.82 522.21,1376.5 524.736,1377.14 527.266,1377.76 529.8,1378.35 532.336,1378.91 534.875,1379.45 537.416,1379.96 539.959,1380.44 542.503,1380.89 545.048,1381.31 547.593,1381.7 550.139,1382.07 552.684,1382.41 555.229,1382.72 557.772,1383 560.314,1383.25 562.854,1383.47 565.392,1383.67 567.927,1383.84 570.459,1383.97 572.987,1384.08 575.512,1384.16 578.032,1384.22 580.547,1384.24 583.057,1384.23 585.562,1384.2 588.061,1384.13 590.553,1384.04 593.039,1383.92 595.518,1383.77 597.989,1383.6 600.452,1383.39 602.907,1383.15 605.354,1382.89 607.791,1382.6 610.219,1382.28 612.637,1381.93 615.044,1381.55 617.442,1381.14 619.828,1380.71 622.203,1380.25 624.566,1379.76 626.917,1379.24 629.256,1378.69 631.581,1378.12 633.894,1377.52 636.193,1376.89 638.478,1376.23 640.748,1375.55 643.004,1374.83 645.245,1374.09 647.471,1373.33 649.681,1372.53 651.875,1371.71 654.052,1370.87 656.213,1369.99 658.356,1369.09 660.482,1368.17 662.59,1367.22 664.68,1366.24 666.752,1365.23 668.805,1364.2 670.838,1363.15 672.853,1362.06 674.847,1360.96 676.822,1359.83 678.776,1358.67 680.709,1357.49 682.621,1356.28 684.512,1355.05 686.382,1353.8 688.229,1352.52 690.055,1351.22 691.857,1349.9 693.638,1348.55 695.395,1347.18 697.128,1345.78 698.838,1344.37 700.524,1342.93 702.187,1341.47 703.824,1339.98 705.437,1338.48 707.025,1336.95 708.588,1335.4 710.125,1333.83 711.637,1332.25 713.123,1330.64 714.583,1329 716.016,1327.35 717.423,1325.68 718.803,1324 720.156,1322.29 721.481,1320.56 722.78,1318.81 724.05,1317.05 725.293,1315.27 726.507,1313.47 727.693,1311.65 728.851,1309.81 729.98,1307.96 731.081,1306.09 732.152,1304.21 733.194,1302.31 734.207,1300.39 735.191,1298.46 736.144,1296.51 737.068,1294.55 737.962,1292.57 738.826,1290.58 739.66,1288.58 740.463,1286.56 741.236,1284.53 741.979,1282.48 742.69,1280.42 743.371,1278.36 744.021,1276.27 744.64,1274.18 745.227,1272.08 745.784,1269.96 746.309,1267.84 746.802,1265.7 747.265,1263.55 747.695,1261.4 748.094,1259.23 748.462,1257.06 748.797,1254.88 749.101,1252.69 749.373,1250.49 749.613,1248.28 749.821,1246.07 749.997,1243.85 750.141,1241.62 750.253,1239.39 750.334,1237.15 750.382,1234.91 750.398,1232.66 "/>
<circle clip-path="url(#clip092)" style="fill:#ed5d92; stroke:none; fill-opacity:1" cx="551.037" cy="150.908" r="2"/>
<circle clip-path="url(#clip092)" style="fill:#ed5d92; stroke:none; fill-opacity:1" cx="1989.2" cy="909.507" r="2"/>
<circle clip-path="url(#clip092)" style="fill:#ed5d92; stroke:none; fill-opacity:1" cx="636.113" cy="1147.14" r="2"/>
<path clip-path="url(#clip090)" d="M520.108 135.778 L527.562 135.778 L527.562 181.148 L520.108 181.148 L520.108 135.778 M520.108 118.116 L527.562 118.116 L527.562 127.555 L520.108 127.555 L520.108 118.116 Z" fill="#000000" fill-rule="nonzero" fill-opacity="1" /><path clip-path="url(#clip090)" d="M562.035 185.361 Q558.875 193.463 555.878 195.934 Q552.88 198.405 547.857 198.405 L541.902 198.405 L541.902 192.167 L546.277 192.167 Q549.356 192.167 551.057 190.708 Q552.758 189.25 554.824 183.822 L556.161 180.419 L537.811 135.778 L545.71 135.778 L559.888 171.264 L574.066 135.778 L581.965 135.778 L562.035 185.361 Z" fill="#000000" fill-rule="nonzero" fill-opacity="1" /><path clip-path="url(#clip090)" d="M1968.08 916.94 Q1959.04 916.94 1955.56 919.006 Q1952.08 921.072 1952.08 926.054 Q1952.08 930.024 1954.67 932.374 Q1957.3 934.683 1961.8 934.683 Q1968 934.683 1971.72 930.308 Q1975.49 925.892 1975.49 918.601 L1975.49 916.94 L1968.08 916.94 M1982.94 913.861 L1982.94 939.747 L1975.49 939.747 L1975.49 932.86 Q1972.94 936.992 1969.13 938.977 Q1965.32 940.921 1959.81 940.921 Q1952.85 940.921 1948.71 937.032 Q1944.62 933.103 1944.62 926.541 Q1944.62 918.884 1949.73 914.996 Q1954.87 911.107 1965.04 911.107 L1975.49 911.107 L1975.49 910.377 Q1975.49 905.233 1972.09 902.438 Q1968.73 899.602 1962.61 899.602 Q1958.72 899.602 1955.03 900.534 Q1951.35 901.466 1947.94 903.329 L1947.94 896.442 Q1952.04 894.863 1955.88 894.093 Q1959.73 893.283 1963.38 893.283 Q1973.22 893.283 1978.08 898.387 Q1982.94 903.491 1982.94 913.861 Z" fill="#000000" fill-rule="nonzero" fill-opacity="1" /><path clip-path="url(#clip090)" d="M2018.92 916.94 Q2009.88 916.94 2006.4 919.006 Q2002.91 921.072 2002.91 926.054 Q2002.91 930.024 2005.51 932.374 Q2008.14 934.683 2012.64 934.683 Q2018.83 934.683 2022.56 930.308 Q2026.33 925.892 2026.33 918.601 L2026.33 916.94 L2018.92 916.94 M2033.78 913.861 L2033.78 939.747 L2026.33 939.747 L2026.33 932.86 Q2023.78 936.992 2019.97 938.977 Q2016.16 940.921 2010.65 940.921 Q2003.68 940.921 1999.55 937.032 Q1995.46 933.103 1995.46 926.541 Q1995.46 918.884 2000.57 914.996 Q2005.71 911.107 2015.88 911.107 L2026.33 911.107 L2026.33 910.377 Q2026.33 905.233 2022.93 902.438 Q2019.56 899.602 2013.45 899.602 Q2009.56 899.602 2005.87 900.534 Q2002.19 901.466 1998.78 903.329 L1998.78 896.442 Q2002.87 894.863 2006.72 894.093 Q2010.57 893.283 2014.22 893.283 Q2024.06 893.283 2028.92 898.387 Q2033.78 903.491 2033.78 913.861 Z" fill="#000000" fill-rule="nonzero" fill-opacity="1" /><path clip-path="url(#clip090)" d="M581.162 1159.47 L581.162 1132.01 L588.616 1132.01 L588.616 1159.19 Q588.616 1165.63 591.127 1168.87 Q593.639 1172.07 598.662 1172.07 Q604.698 1172.07 608.182 1168.22 Q611.706 1164.38 611.706 1157.73 L611.706 1132.01 L619.16 1132.01 L619.16 1177.38 L611.706 1177.38 L611.706 1170.41 Q608.992 1174.54 605.387 1176.57 Q601.822 1178.55 597.082 1178.55 Q589.264 1178.55 585.213 1173.69 Q581.162 1168.83 581.162 1159.47 M599.918 1130.91 L599.918 1130.91 Z" fill="#000000" fill-rule="nonzero" fill-opacity="1" /><path clip-path="url(#clip090)" d="M630.178 1132.01 L637.632 1132.01 L646.949 1167.41 L656.226 1132.01 L665.016 1132.01 L674.333 1167.41 L683.61 1132.01 L691.063 1132.01 L679.194 1177.38 L670.404 1177.38 L660.641 1140.19 L650.838 1177.38 L642.047 1177.38 L630.178 1132.01 Z" fill="#000000" fill-rule="nonzero" fill-opacity="1" /><path clip-path="url(#clip090)" d="M2011.49 300.469 L2283.14 300.469 L2283.14 93.1086 L2011.49 93.1086  Z" fill="#ffffff" fill-rule="evenodd" fill-opacity="1"/>
<polyline clip-path="url(#clip090)" style="stroke:#000000; stroke-linecap:round; stroke-linejoin:round; stroke-width:4; stroke-opacity:1; fill:none" points="2011.49,300.469 2283.14,300.469 2283.14,93.1086 2011.49,93.1086 2011.49,300.469 "/>
<circle clip-path="url(#clip090)" cx="2104.31" cy="144.949" r="19.7486" fill="#009af9" fill-rule="evenodd" fill-opacity="1" stroke="#000000" stroke-opacity="1" stroke-width="5.85143"/>
<path clip-path="url(#clip090)" d="M2197.13 136.303 L2201.39 136.303 L2201.39 162.229 L2197.13 162.229 L2197.13 136.303 M2197.13 126.21 L2201.39 126.21 L2201.39 131.604 L2197.13 131.604 L2197.13 126.21 Z" fill="#000000" fill-rule="nonzero" fill-opacity="1" /><path clip-path="url(#clip090)" d="M2221.09 164.636 Q2219.29 169.266 2217.57 170.678 Q2215.86 172.09 2212.99 172.09 L2209.59 172.09 L2209.59 168.525 L2212.09 168.525 Q2213.85 168.525 2214.82 167.692 Q2215.79 166.858 2216.97 163.756 L2217.74 161.812 L2207.25 136.303 L2211.76 136.303 L2219.87 156.581 L2227.97 136.303 L2232.48 136.303 L2221.09 164.636 Z" fill="#000000" fill-rule="nonzero" fill-opacity="1" /><circle clip-path="url(#clip090)" cx="2104.31" cy="196.789" r="19.7486" fill="#e26f46" fill-rule="evenodd" fill-opacity="1" stroke="#000000" stroke-opacity="1" stroke-width="5.85143"/>
<path clip-path="url(#clip090)" d="M2210.54 201.036 Q2205.38 201.036 2203.38 202.217 Q2201.39 203.397 2201.39 206.245 Q2201.39 208.513 2202.88 209.856 Q2204.38 211.175 2206.95 211.175 Q2210.49 211.175 2212.62 208.675 Q2214.77 206.152 2214.77 201.985 L2214.77 201.036 L2210.54 201.036 M2219.03 199.277 L2219.03 214.069 L2214.77 214.069 L2214.77 210.133 Q2213.31 212.495 2211.14 213.629 Q2208.96 214.74 2205.81 214.74 Q2201.83 214.74 2199.47 212.518 Q2197.13 210.272 2197.13 206.522 Q2197.13 202.147 2200.05 199.925 Q2202.99 197.703 2208.8 197.703 L2214.77 197.703 L2214.77 197.286 Q2214.77 194.347 2212.83 192.749 Q2210.91 191.129 2207.41 191.129 Q2205.19 191.129 2203.08 191.661 Q2200.98 192.194 2199.03 193.259 L2199.03 189.323 Q2201.37 188.421 2203.57 187.981 Q2205.77 187.518 2207.85 187.518 Q2213.48 187.518 2216.25 190.434 Q2219.03 193.351 2219.03 199.277 Z" fill="#000000" fill-rule="nonzero" fill-opacity="1" /><path clip-path="url(#clip090)" d="M2239.59 201.036 Q2234.43 201.036 2232.44 202.217 Q2230.44 203.397 2230.44 206.245 Q2230.44 208.513 2231.93 209.856 Q2233.43 211.175 2236 211.175 Q2239.54 211.175 2241.67 208.675 Q2243.82 206.152 2243.82 201.985 L2243.82 201.036 L2239.59 201.036 M2248.08 199.277 L2248.08 214.069 L2243.82 214.069 L2243.82 210.133 Q2242.37 212.495 2240.19 213.629 Q2238.01 214.74 2234.87 214.74 Q2230.88 214.74 2228.52 212.518 Q2226.19 210.272 2226.19 206.522 Q2226.19 202.147 2229.1 199.925 Q2232.04 197.703 2237.85 197.703 L2243.82 197.703 L2243.82 197.286 Q2243.82 194.347 2241.88 192.749 Q2239.96 191.129 2236.46 191.129 Q2234.24 191.129 2232.13 191.661 Q2230.03 192.194 2228.08 193.259 L2228.08 189.323 Q2230.42 188.421 2232.62 187.981 Q2234.82 187.518 2236.9 187.518 Q2242.53 187.518 2245.31 190.434 Q2248.08 193.351 2248.08 199.277 Z" fill="#000000" fill-rule="nonzero" fill-opacity="1" /><circle clip-path="url(#clip090)" cx="2104.31" cy="248.629" r="19.7486" fill="#3da44d" fill-rule="evenodd" fill-opacity="1" stroke="#000000" stroke-opacity="1" stroke-width="5.85143"/>
<path clip-path="url(#clip090)" d="M2197.13 255.677 L2197.13 239.983 L2201.39 239.983 L2201.39 255.515 Q2201.39 259.196 2202.83 261.048 Q2204.26 262.876 2207.13 262.876 Q2210.58 262.876 2212.57 260.677 Q2214.59 258.478 2214.59 254.682 L2214.59 239.983 L2218.85 239.983 L2218.85 265.909 L2214.59 265.909 L2214.59 261.927 Q2213.04 264.288 2210.98 265.446 Q2208.94 266.58 2206.23 266.58 Q2201.76 266.58 2199.45 263.802 Q2197.13 261.024 2197.13 255.677 M2207.85 239.358 L2207.85 239.358 Z" fill="#000000" fill-rule="nonzero" fill-opacity="1" /><path clip-path="url(#clip090)" d="M2225.14 239.983 L2229.4 239.983 L2234.73 260.214 L2240.03 239.983 L2245.05 239.983 L2250.37 260.214 L2255.68 239.983 L2259.94 239.983 L2253.15 265.909 L2248.13 265.909 L2242.55 244.659 L2236.95 265.909 L2231.93 265.909 L2225.14 239.983 Z" fill="#000000" fill-rule="nonzero" fill-opacity="1" /></svg>
