<?xml version="1.0" encoding="utf-8"?>
<svg xmlns="http://www.w3.org/2000/svg" xmlns:xlink="http://www.w3.org/1999/xlink" width="600" height="400" viewBox="0 0 2400 1600">
<defs>
  <clipPath id="clip300">
    <rect x="0" y="0" width="2400" height="1600"/>
  </clipPath>
</defs>
<path clip-path="url(#clip300)" d="M0 1600 L2400 1600 L2400 0 L0 0  Z" fill="#ffffff" fill-rule="evenodd" fill-opacity="1"/>
<defs>
  <clipPath id="clip301">
    <rect x="480" y="0" width="1681" height="1600"/>
  </clipPath>
</defs>
<path clip-path="url(#clip300)" d="M262.551 1423.18 L2352.76 1423.18 L2352.76 47.2441 L262.551 47.2441  Z" fill="#ffffff" fill-rule="evenodd" fill-opacity="1"/>
<defs>
  <clipPath id="clip302">
    <rect x="262" y="47" width="2091" height="1377"/>
  </clipPath>
</defs>
<polyline clip-path="url(#clip302)" style="stroke:#000000; stroke-linecap:round; stroke-linejoin:round; stroke-width:2; stroke-opacity:0.1; fill:none" points="2025.89,47.2441 2025.89,1423.18 "/>
<polyline clip-path="url(#clip302)" style="stroke:#000000; stroke-linecap:round; stroke-linejoin:round; stroke-width:2; stroke-opacity:0.1; fill:none" points="1621.54,47.2441 1621.54,1423.18 "/>
<polyline clip-path="url(#clip302)" style="stroke:#000000; stroke-linecap:round; stroke-linejoin:round; stroke-width:2; stroke-opacity:0.1; fill:none" points="1217.19,47.2441 1217.19,1423.18 "/>
<polyline clip-path="url(#clip302)" style="stroke:#000000; stroke-linecap:round; stroke-linejoin:round; stroke-width:2; stroke-opacity:0.1; fill:none" points="812.845,47.2441 812.845,1423.18 "/>
<polyline clip-path="url(#clip302)" style="stroke:#000000; stroke-linecap:round; stroke-linejoin:round; stroke-width:2; stroke-opacity:0.1; fill:none" points="408.496,47.2441 408.496,1423.18 "/>
<polyline clip-path="url(#clip302)" style="stroke:#000000; stroke-linecap:round; stroke-linejoin:round; stroke-width:2; stroke-opacity:0.1; fill:none" points="2352.76,173.309 262.551,173.309 "/>
<polyline clip-path="url(#clip302)" style="stroke:#000000; stroke-linecap:round; stroke-linejoin:round; stroke-width:2; stroke-opacity:0.1; fill:none" points="2352.76,512.898 262.551,512.898 "/>
<polyline clip-path="url(#clip302)" style="stroke:#000000; stroke-linecap:round; stroke-linejoin:round; stroke-width:2; stroke-opacity:0.1; fill:none" points="2352.76,852.486 262.551,852.486 "/>
<polyline clip-path="url(#clip302)" style="stroke:#000000; stroke-linecap:round; stroke-linejoin:round; stroke-width:2; stroke-opacity:0.1; fill:none" points="2352.76,1192.08 262.551,1192.08 "/>
<polyline clip-path="url(#clip300)" style="stroke:#000000; stroke-linecap:round; stroke-linejoin:round; stroke-width:4; stroke-opacity:1; fill:none" points="2352.76,1423.18 262.551,1423.18 "/>
<polyline clip-path="url(#clip300)" style="stroke:#000000; stroke-linecap:round; stroke-linejoin:round; stroke-width:4; stroke-opacity:1; fill:none" points="2025.89,1423.18 2025.89,1404.28 "/>
<polyline clip-path="url(#clip300)" style="stroke:#000000; stroke-linecap:round; stroke-linejoin:round; stroke-width:4; stroke-opacity:1; fill:none" points="1621.54,1423.18 1621.54,1404.28 "/>
<polyline clip-path="url(#clip300)" style="stroke:#000000; stroke-linecap:round; stroke-linejoin:round; stroke-width:4; stroke-opacity:1; fill:none" points="1217.19,1423.18 1217.19,1404.28 "/>
<polyline clip-path="url(#clip300)" style="stroke:#000000; stroke-linecap:round; stroke-linejoin:round; stroke-width:4; stroke-opacity:1; fill:none" points="812.845,1423.18 812.845,1404.28 "/>
<polyline clip-path="url(#clip300)" style="stroke:#000000; stroke-linecap:round; stroke-linejoin:round; stroke-width:4; stroke-opacity:1; fill:none" points="408.496,1423.18 408.496,1404.28 "/>
<path clip-path="url(#clip300)" d="M1970.42 1481.64 L1978.06 1481.64 L1978.06 1455.28 L1969.75 1456.95 L1969.75 1452.69 L1978.01 1451.02 L1982.69 1451.02 L1982.69 1481.64 L1990.33 1481.64 L1990.33 1485.58 L1970.42 1485.58 L1970.42 1481.64 Z" fill="#000000" fill-rule="nonzero" fill-opacity="1" /><path clip-path="url(#clip300)" d="M2009.77 1454.1 Q2006.16 1454.1 2004.33 1457.66 Q2002.53 1461.2 2002.53 1468.33 Q2002.53 1475.44 2004.33 1479.01 Q2006.16 1482.55 2009.77 1482.55 Q2013.41 1482.55 2015.21 1479.01 Q2017.04 1475.44 2017.04 1468.33 Q2017.04 1461.2 2015.21 1457.66 Q2013.41 1454.1 2009.77 1454.1 M2009.77 1450.39 Q2015.58 1450.39 2018.64 1455 Q2021.72 1459.58 2021.72 1468.33 Q2021.72 1477.06 2018.64 1481.67 Q2015.58 1486.25 2009.77 1486.25 Q2003.96 1486.25 2000.88 1481.67 Q1997.83 1477.06 1997.83 1468.33 Q1997.83 1459.58 2000.88 1455 Q2003.96 1450.39 2009.77 1450.39 Z" fill="#000000" fill-rule="nonzero" fill-opacity="1" /><path clip-path="url(#clip300)" d="M2039.93 1454.1 Q2036.32 1454.1 2034.49 1457.66 Q2032.69 1461.2 2032.69 1468.33 Q2032.69 1475.44 2034.49 1479.01 Q2036.32 1482.55 2039.93 1482.55 Q2043.57 1482.55 2045.37 1479.01 Q2047.2 1475.44 2047.2 1468.33 Q2047.2 1461.2 2045.37 1457.66 Q2043.57 1454.1 2039.93 1454.1 M2039.93 1450.39 Q2045.74 1450.39 2048.8 1455 Q2051.88 1459.58 2051.88 1468.33 Q2051.88 1477.06 2048.8 1481.67 Q2045.74 1486.25 2039.93 1486.25 Q2034.12 1486.25 2031.04 1481.67 Q2027.99 1477.06 2027.99 1468.33 Q2027.99 1459.58 2031.04 1455 Q2034.12 1450.39 2039.93 1450.39 Z" fill="#000000" fill-rule="nonzero" fill-opacity="1" /><path clip-path="url(#clip300)" d="M2070.1 1454.1 Q2066.48 1454.1 2064.66 1457.66 Q2062.85 1461.2 2062.85 1468.33 Q2062.85 1475.44 2064.66 1479.01 Q2066.48 1482.55 2070.1 1482.55 Q2073.73 1482.55 2075.53 1479.01 Q2077.36 1475.44 2077.36 1468.33 Q2077.36 1461.2 2075.53 1457.66 Q2073.73 1454.1 2070.1 1454.1 M2070.1 1450.39 Q2075.91 1450.39 2078.96 1455 Q2082.04 1459.58 2082.04 1468.33 Q2082.04 1477.06 2078.96 1481.67 Q2075.91 1486.25 2070.1 1486.25 Q2064.29 1486.25 2061.21 1481.67 Q2058.15 1477.06 2058.15 1468.33 Q2058.15 1459.58 2061.21 1455 Q2064.29 1450.39 2070.1 1450.39 Z" fill="#000000" fill-rule="nonzero" fill-opacity="1" /><path clip-path="url(#clip300)" d="M1566.07 1481.64 L1573.71 1481.64 L1573.71 1455.28 L1565.4 1456.95 L1565.4 1452.69 L1573.66 1451.02 L1578.34 1451.02 L1578.34 1481.64 L1585.98 1481.64 L1585.98 1485.58 L1566.07 1485.58 L1566.07 1481.64 Z" fill="#000000" fill-rule="nonzero" fill-opacity="1" /><path clip-path="url(#clip300)" d="M1595.47 1451.02 L1613.82 1451.02 L1613.82 1454.96 L1599.75 1454.96 L1599.75 1463.43 Q1600.77 1463.08 1601.79 1462.92 Q1602.81 1462.73 1603.82 1462.73 Q1609.61 1462.73 1612.99 1465.9 Q1616.37 1469.08 1616.37 1474.49 Q1616.37 1480.07 1612.9 1483.17 Q1609.43 1486.25 1603.11 1486.25 Q1600.93 1486.25 1598.66 1485.88 Q1596.42 1485.51 1594.01 1484.77 L1594.01 1480.07 Q1596.09 1481.2 1598.32 1481.76 Q1600.54 1482.32 1603.01 1482.32 Q1607.02 1482.32 1609.36 1480.21 Q1611.7 1478.1 1611.7 1474.49 Q1611.7 1470.88 1609.36 1468.77 Q1607.02 1466.67 1603.01 1466.67 Q1601.14 1466.67 1599.26 1467.08 Q1597.41 1467.5 1595.47 1468.38 L1595.47 1451.02 Z" fill="#000000" fill-rule="nonzero" fill-opacity="1" /><path clip-path="url(#clip300)" d="M1635.58 1454.1 Q1631.97 1454.1 1630.14 1457.66 Q1628.34 1461.2 1628.34 1468.33 Q1628.34 1475.44 1630.14 1479.01 Q1631.97 1482.55 1635.58 1482.55 Q1639.22 1482.55 1641.02 1479.01 Q1642.85 1475.44 1642.85 1468.33 Q1642.85 1461.2 1641.02 1457.66 Q1639.22 1454.1 1635.58 1454.1 M1635.58 1450.39 Q1641.39 1450.39 1644.45 1455 Q1647.53 1459.58 1647.53 1468.33 Q1647.53 1477.06 1644.45 1481.67 Q1641.39 1486.25 1635.58 1486.25 Q1629.77 1486.25 1626.69 1481.67 Q1623.64 1477.06 1623.64 1468.33 Q1623.64 1459.58 1626.69 1455 Q1629.77 1450.39 1635.58 1450.39 Z" fill="#000000" fill-rule="nonzero" fill-opacity="1" /><path clip-path="url(#clip300)" d="M1665.75 1454.1 Q1662.13 1454.1 1660.31 1457.66 Q1658.5 1461.2 1658.5 1468.33 Q1658.5 1475.44 1660.31 1479.01 Q1662.13 1482.55 1665.75 1482.55 Q1669.38 1482.55 1671.19 1479.01 Q1673.01 1475.44 1673.01 1468.33 Q1673.01 1461.2 1671.19 1457.66 Q1669.38 1454.1 1665.75 1454.1 M1665.75 1450.39 Q1671.56 1450.39 1674.61 1455 Q1677.69 1459.58 1677.69 1468.33 Q1677.69 1477.06 1674.61 1481.67 Q1671.56 1486.25 1665.75 1486.25 Q1659.94 1486.25 1656.86 1481.67 Q1653.8 1477.06 1653.8 1468.33 Q1653.8 1459.58 1656.86 1455 Q1659.94 1450.39 1665.75 1450.39 Z" fill="#000000" fill-rule="nonzero" fill-opacity="1" /><path clip-path="url(#clip300)" d="M1165.81 1481.64 L1182.13 1481.64 L1182.13 1485.58 L1160.18 1485.58 L1160.18 1481.64 Q1162.84 1478.89 1167.43 1474.26 Q1172.03 1469.61 1173.21 1468.27 Q1175.46 1465.74 1176.34 1464.01 Q1177.24 1462.25 1177.24 1460.56 Q1177.24 1457.8 1175.3 1456.07 Q1173.38 1454.33 1170.27 1454.33 Q1168.07 1454.33 1165.62 1455.09 Q1163.19 1455.86 1160.41 1457.41 L1160.41 1452.69 Q1163.24 1451.55 1165.69 1450.97 Q1168.14 1450.39 1170.18 1450.39 Q1175.55 1450.39 1178.75 1453.08 Q1181.94 1455.77 1181.94 1460.26 Q1181.94 1462.39 1181.13 1464.31 Q1180.34 1466.2 1178.24 1468.8 Q1177.66 1469.47 1174.56 1472.69 Q1171.45 1475.88 1165.81 1481.64 Z" fill="#000000" fill-rule="nonzero" fill-opacity="1" /><path clip-path="url(#clip300)" d="M1201.94 1454.1 Q1198.33 1454.1 1196.5 1457.66 Q1194.7 1461.2 1194.7 1468.33 Q1194.7 1475.44 1196.5 1479.01 Q1198.33 1482.55 1201.94 1482.55 Q1205.57 1482.55 1207.38 1479.01 Q1209.21 1475.44 1209.21 1468.33 Q1209.21 1461.2 1207.38 1457.66 Q1205.57 1454.1 1201.94 1454.1 M1201.94 1450.39 Q1207.75 1450.39 1210.81 1455 Q1213.88 1459.58 1213.88 1468.33 Q1213.88 1477.06 1210.81 1481.67 Q1207.75 1486.25 1201.94 1486.25 Q1196.13 1486.25 1193.05 1481.67 Q1190 1477.06 1190 1468.33 Q1190 1459.58 1193.05 1455 Q1196.13 1450.39 1201.94 1450.39 Z" fill="#000000" fill-rule="nonzero" fill-opacity="1" /><path clip-path="url(#clip300)" d="M1232.1 1454.1 Q1228.49 1454.1 1226.66 1457.66 Q1224.86 1461.2 1224.86 1468.33 Q1224.86 1475.44 1226.66 1479.01 Q1228.49 1482.55 1232.1 1482.55 Q1235.74 1482.55 1237.54 1479.01 Q1239.37 1475.44 1239.37 1468.33 Q1239.37 1461.2 1237.54 1457.66 Q1235.74 1454.1 1232.1 1454.1 M1232.1 1450.39 Q1237.91 1450.39 1240.97 1455 Q1244.05 1459.58 1244.05 1468.33 Q1244.05 1477.06 1240.97 1481.67 Q1237.91 1486.25 1232.1 1486.25 Q1226.29 1486.25 1223.21 1481.67 Q1220.16 1477.06 1220.16 1468.33 Q1220.16 1459.58 1223.21 1455 Q1226.29 1450.39 1232.1 1450.39 Z" fill="#000000" fill-rule="nonzero" fill-opacity="1" /><path clip-path="url(#clip300)" d="M1262.26 1454.1 Q1258.65 1454.1 1256.82 1457.66 Q1255.02 1461.2 1255.02 1468.33 Q1255.02 1475.44 1256.82 1479.01 Q1258.65 1482.55 1262.26 1482.55 Q1265.9 1482.55 1267.7 1479.01 Q1269.53 1475.44 1269.53 1468.33 Q1269.53 1461.2 1267.7 1457.66 Q1265.9 1454.1 1262.26 1454.1 M1262.26 1450.39 Q1268.07 1450.39 1271.13 1455 Q1274.21 1459.58 1274.21 1468.33 Q1274.21 1477.06 1271.13 1481.67 Q1268.07 1486.25 1262.26 1486.25 Q1256.45 1486.25 1253.38 1481.67 Q1250.32 1477.06 1250.32 1468.33 Q1250.32 1459.58 1253.38 1455 Q1256.45 1450.39 1262.26 1450.39 Z" fill="#000000" fill-rule="nonzero" fill-opacity="1" /><path clip-path="url(#clip300)" d="M761.457 1481.64 L777.776 1481.64 L777.776 1485.58 L755.832 1485.58 L755.832 1481.64 Q758.494 1478.89 763.077 1474.26 Q767.684 1469.61 768.864 1468.27 Q771.11 1465.74 771.989 1464.01 Q772.892 1462.25 772.892 1460.56 Q772.892 1457.8 770.947 1456.07 Q769.026 1454.33 765.924 1454.33 Q763.725 1454.33 761.272 1455.09 Q758.841 1455.86 756.063 1457.41 L756.063 1452.69 Q758.887 1451.55 761.341 1450.97 Q763.795 1450.39 765.832 1450.39 Q771.202 1450.39 774.397 1453.08 Q777.591 1455.77 777.591 1460.26 Q777.591 1462.39 776.781 1464.31 Q775.994 1466.2 773.887 1468.8 Q773.309 1469.47 770.207 1472.69 Q767.105 1475.88 761.457 1481.64 Z" fill="#000000" fill-rule="nonzero" fill-opacity="1" /><path clip-path="url(#clip300)" d="M787.637 1451.02 L805.994 1451.02 L805.994 1454.96 L791.92 1454.96 L791.92 1463.43 Q792.938 1463.08 793.957 1462.92 Q794.975 1462.73 795.994 1462.73 Q801.781 1462.73 805.16 1465.9 Q808.54 1469.08 808.54 1474.49 Q808.54 1480.07 805.068 1483.17 Q801.595 1486.25 795.276 1486.25 Q793.1 1486.25 790.832 1485.88 Q788.586 1485.51 786.179 1484.77 L786.179 1480.07 Q788.262 1481.2 790.484 1481.76 Q792.707 1482.32 795.183 1482.32 Q799.188 1482.32 801.526 1480.21 Q803.864 1478.1 803.864 1474.49 Q803.864 1470.88 801.526 1468.77 Q799.188 1466.67 795.183 1466.67 Q793.308 1466.67 791.433 1467.08 Q789.582 1467.5 787.637 1468.38 L787.637 1451.02 Z" fill="#000000" fill-rule="nonzero" fill-opacity="1" /><path clip-path="url(#clip300)" d="M827.753 1454.1 Q824.142 1454.1 822.313 1457.66 Q820.507 1461.2 820.507 1468.33 Q820.507 1475.44 822.313 1479.01 Q824.142 1482.55 827.753 1482.55 Q831.387 1482.55 833.193 1479.01 Q835.021 1475.44 835.021 1468.33 Q835.021 1461.2 833.193 1457.66 Q831.387 1454.1 827.753 1454.1 M827.753 1450.39 Q833.563 1450.39 836.618 1455 Q839.697 1459.58 839.697 1468.33 Q839.697 1477.06 836.618 1481.67 Q833.563 1486.25 827.753 1486.25 Q821.943 1486.25 818.864 1481.67 Q815.808 1477.06 815.808 1468.33 Q815.808 1459.58 818.864 1455 Q821.943 1450.39 827.753 1450.39 Z" fill="#000000" fill-rule="nonzero" fill-opacity="1" /><path clip-path="url(#clip300)" d="M857.915 1454.1 Q854.303 1454.1 852.475 1457.66 Q850.669 1461.2 850.669 1468.33 Q850.669 1475.44 852.475 1479.01 Q854.303 1482.55 857.915 1482.55 Q861.549 1482.55 863.354 1479.01 Q865.183 1475.44 865.183 1468.33 Q865.183 1461.2 863.354 1457.66 Q861.549 1454.1 857.915 1454.1 M857.915 1450.39 Q863.725 1450.39 866.78 1455 Q869.859 1459.58 869.859 1468.33 Q869.859 1477.06 866.78 1481.67 Q863.725 1486.25 857.915 1486.25 Q852.104 1486.25 849.026 1481.67 Q845.97 1477.06 845.97 1468.33 Q845.97 1459.58 849.026 1455 Q852.104 1450.39 857.915 1450.39 Z" fill="#000000" fill-rule="nonzero" fill-opacity="1" /><path clip-path="url(#clip300)" d="M367.177 1466.95 Q370.533 1467.66 372.408 1469.93 Q374.306 1472.2 374.306 1475.53 Q374.306 1480.65 370.788 1483.45 Q367.269 1486.25 360.788 1486.25 Q358.612 1486.25 356.297 1485.81 Q354.005 1485.39 351.552 1484.54 L351.552 1480.02 Q353.496 1481.16 355.811 1481.74 Q358.126 1482.32 360.649 1482.32 Q365.047 1482.32 367.339 1480.58 Q369.653 1478.84 369.653 1475.53 Q369.653 1472.48 367.501 1470.77 Q365.371 1469.03 361.552 1469.03 L357.524 1469.03 L357.524 1465.19 L361.737 1465.19 Q365.186 1465.19 367.015 1463.82 Q368.843 1462.43 368.843 1459.84 Q368.843 1457.18 366.945 1455.77 Q365.07 1454.33 361.552 1454.33 Q359.63 1454.33 357.431 1454.75 Q355.232 1455.16 352.593 1456.04 L352.593 1451.88 Q355.255 1451.14 357.57 1450.77 Q359.908 1450.39 361.968 1450.39 Q367.292 1450.39 370.394 1452.83 Q373.496 1455.23 373.496 1459.35 Q373.496 1462.22 371.853 1464.21 Q370.209 1466.18 367.177 1466.95 Z" fill="#000000" fill-rule="nonzero" fill-opacity="1" /><path clip-path="url(#clip300)" d="M393.172 1454.1 Q389.561 1454.1 387.732 1457.66 Q385.927 1461.2 385.927 1468.33 Q385.927 1475.44 387.732 1479.01 Q389.561 1482.55 393.172 1482.55 Q396.806 1482.55 398.612 1479.01 Q400.44 1475.44 400.44 1468.33 Q400.44 1461.2 398.612 1457.66 Q396.806 1454.1 393.172 1454.1 M393.172 1450.39 Q398.982 1450.39 402.038 1455 Q405.116 1459.58 405.116 1468.33 Q405.116 1477.06 402.038 1481.67 Q398.982 1486.25 393.172 1486.25 Q387.362 1486.25 384.283 1481.67 Q381.227 1477.06 381.227 1468.33 Q381.227 1459.58 384.283 1455 Q387.362 1450.39 393.172 1450.39 Z" fill="#000000" fill-rule="nonzero" fill-opacity="1" /><path clip-path="url(#clip300)" d="M423.334 1454.1 Q419.723 1454.1 417.894 1457.66 Q416.088 1461.2 416.088 1468.33 Q416.088 1475.44 417.894 1479.01 Q419.723 1482.55 423.334 1482.55 Q426.968 1482.55 428.774 1479.01 Q430.602 1475.44 430.602 1468.33 Q430.602 1461.2 428.774 1457.66 Q426.968 1454.1 423.334 1454.1 M423.334 1450.39 Q429.144 1450.39 432.199 1455 Q435.278 1459.58 435.278 1468.33 Q435.278 1477.06 432.199 1481.67 Q429.144 1486.25 423.334 1486.25 Q417.524 1486.25 414.445 1481.67 Q411.389 1477.06 411.389 1468.33 Q411.389 1459.58 414.445 1455 Q417.524 1450.39 423.334 1450.39 Z" fill="#000000" fill-rule="nonzero" fill-opacity="1" /><path clip-path="url(#clip300)" d="M453.496 1454.1 Q449.884 1454.1 448.056 1457.66 Q446.25 1461.2 446.25 1468.33 Q446.25 1475.44 448.056 1479.01 Q449.884 1482.55 453.496 1482.55 Q457.13 1482.55 458.935 1479.01 Q460.764 1475.44 460.764 1468.33 Q460.764 1461.2 458.935 1457.66 Q457.13 1454.1 453.496 1454.1 M453.496 1450.39 Q459.306 1450.39 462.361 1455 Q465.44 1459.58 465.44 1468.33 Q465.44 1477.06 462.361 1481.67 Q459.306 1486.25 453.496 1486.25 Q447.685 1486.25 444.607 1481.67 Q441.551 1477.06 441.551 1468.33 Q441.551 1459.58 444.607 1455 Q447.685 1450.39 453.496 1450.39 Z" fill="#000000" fill-rule="nonzero" fill-opacity="1" /><path clip-path="url(#clip300)" d="M1196.76 1520.52 L1224.07 1520.52 L1224.07 1525.93 L1203.19 1525.93 L1203.19 1539.94 L1222.03 1539.94 L1222.03 1545.35 L1203.19 1545.35 L1203.19 1568.04 L1196.76 1568.04 L1196.76 1520.52 Z" fill="#000000" fill-rule="nonzero" fill-opacity="1" /><path clip-path="url(#clip300)" d="M1240.37 1562.63 L1262.81 1562.63 L1262.81 1568.04 L1232.63 1568.04 L1232.63 1562.63 Q1236.29 1558.85 1242.6 1552.48 Q1248.93 1546.08 1250.55 1544.24 Q1253.64 1540.77 1254.85 1538.38 Q1256.09 1535.96 1256.09 1533.64 Q1256.09 1529.85 1253.42 1527.46 Q1250.78 1525.08 1246.51 1525.08 Q1243.49 1525.08 1240.11 1526.13 Q1236.77 1527.18 1232.95 1529.31 L1232.95 1522.82 Q1236.84 1521.26 1240.21 1520.46 Q1243.58 1519.66 1246.38 1519.66 Q1253.77 1519.66 1258.16 1523.36 Q1262.55 1527.05 1262.55 1533.22 Q1262.55 1536.15 1261.44 1538.79 Q1260.36 1541.4 1257.46 1544.97 Q1256.66 1545.89 1252.4 1550.32 Q1248.13 1554.71 1240.37 1562.63 Z" fill="#000000" fill-rule="nonzero" fill-opacity="1" /><path clip-path="url(#clip300)" d="M1310.26 1518.58 Q1306 1525.9 1303.93 1533.06 Q1301.86 1540.23 1301.86 1547.58 Q1301.86 1554.93 1303.93 1562.16 Q1306.03 1569.35 1310.26 1576.64 L1305.17 1576.64 Q1300.4 1569.16 1298.01 1561.93 Q1295.65 1554.71 1295.65 1547.58 Q1295.65 1540.48 1298.01 1533.29 Q1300.36 1526.09 1305.17 1518.58 L1310.26 1518.58 Z" fill="#000000" fill-rule="nonzero" fill-opacity="1" /><path clip-path="url(#clip300)" d="M1321.88 1520.52 L1328.31 1520.52 L1328.31 1540 L1351.67 1540 L1351.67 1520.52 L1358.1 1520.52 L1358.1 1568.04 L1351.67 1568.04 L1351.67 1545.41 L1328.31 1545.41 L1328.31 1568.04 L1321.88 1568.04 L1321.88 1520.52 Z" fill="#000000" fill-rule="nonzero" fill-opacity="1" /><path clip-path="url(#clip300)" d="M1368.1 1532.4 L1395.91 1532.4 L1395.91 1537.74 L1373.89 1563.37 L1395.91 1563.37 L1395.91 1568.04 L1367.3 1568.04 L1367.3 1562.7 L1389.33 1537.07 L1368.1 1537.07 L1368.1 1532.4 Z" fill="#000000" fill-rule="nonzero" fill-opacity="1" /><path clip-path="url(#clip300)" d="M1403.93 1518.58 L1409.03 1518.58 Q1413.8 1526.09 1416.16 1533.29 Q1418.54 1540.48 1418.54 1547.58 Q1418.54 1554.71 1416.16 1561.93 Q1413.8 1569.16 1409.03 1576.64 L1403.93 1576.64 Q1408.17 1569.35 1410.24 1562.16 Q1412.34 1554.93 1412.34 1547.58 Q1412.34 1540.23 1410.24 1533.06 Q1408.17 1525.9 1403.93 1518.58 Z" fill="#000000" fill-rule="nonzero" fill-opacity="1" /><polyline clip-path="url(#clip300)" style="stroke:#000000; stroke-linecap:round; stroke-linejoin:round; stroke-width:4; stroke-opacity:1; fill:none" points="262.551,47.2441 262.551,1423.18 "/>
<polyline clip-path="url(#clip300)" style="stroke:#000000; stroke-linecap:round; stroke-linejoin:round; stroke-width:4; stroke-opacity:1; fill:none" points="262.551,173.309 281.449,173.309 "/>
<polyline clip-path="url(#clip300)" style="stroke:#000000; stroke-linecap:round; stroke-linejoin:round; stroke-width:4; stroke-opacity:1; fill:none" points="262.551,512.898 281.449,512.898 "/>
<polyline clip-path="url(#clip300)" style="stroke:#000000; stroke-linecap:round; stroke-linejoin:round; stroke-width:4; stroke-opacity:1; fill:none" points="262.551,852.486 281.449,852.486 "/>
<polyline clip-path="url(#clip300)" style="stroke:#000000; stroke-linecap:round; stroke-linejoin:round; stroke-width:4; stroke-opacity:1; fill:none" points="262.551,1192.08 281.449,1192.08 "/>
<path clip-path="url(#clip300)" d="M157.13 160.103 L145.325 178.552 L157.13 178.552 L157.13 160.103 M155.903 156.029 L161.783 156.029 L161.783 178.552 L166.714 178.552 L166.714 182.441 L161.783 182.441 L161.783 190.589 L157.13 190.589 L157.13 182.441 L141.529 182.441 L141.529 177.927 L155.903 156.029 Z" fill="#000000" fill-rule="nonzero" fill-opacity="1" /><path clip-path="url(#clip300)" d="M184.445 159.107 Q180.834 159.107 179.005 162.672 Q177.2 166.214 177.2 173.343 Q177.2 180.45 179.005 184.015 Q180.834 187.556 184.445 187.556 Q188.079 187.556 189.885 184.015 Q191.713 180.45 191.713 173.343 Q191.713 166.214 189.885 162.672 Q188.079 159.107 184.445 159.107 M184.445 155.404 Q190.255 155.404 193.311 160.01 Q196.389 164.593 196.389 173.343 Q196.389 182.07 193.311 186.677 Q190.255 191.26 184.445 191.26 Q178.635 191.26 175.556 186.677 Q172.501 182.07 172.501 173.343 Q172.501 164.593 175.556 160.01 Q178.635 155.404 184.445 155.404 Z" fill="#000000" fill-rule="nonzero" fill-opacity="1" /><path clip-path="url(#clip300)" d="M214.607 159.107 Q210.996 159.107 209.167 162.672 Q207.362 166.214 207.362 173.343 Q207.362 180.45 209.167 184.015 Q210.996 187.556 214.607 187.556 Q218.241 187.556 220.047 184.015 Q221.875 180.45 221.875 173.343 Q221.875 166.214 220.047 162.672 Q218.241 159.107 214.607 159.107 M214.607 155.404 Q220.417 155.404 223.473 160.01 Q226.551 164.593 226.551 173.343 Q226.551 182.07 223.473 186.677 Q220.417 191.26 214.607 191.26 Q208.797 191.26 205.718 186.677 Q202.662 182.07 202.662 173.343 Q202.662 164.593 205.718 160.01 Q208.797 155.404 214.607 155.404 Z" fill="#000000" fill-rule="nonzero" fill-opacity="1" /><path clip-path="url(#clip300)" d="M154.862 511.034 Q151.714 511.034 149.862 513.187 Q148.033 515.34 148.033 519.09 Q148.033 522.816 149.862 524.992 Q151.714 527.145 154.862 527.145 Q158.01 527.145 159.839 524.992 Q161.69 522.816 161.69 519.09 Q161.69 515.34 159.839 513.187 Q158.01 511.034 154.862 511.034 M164.144 496.381 L164.144 500.641 Q162.385 499.807 160.579 499.367 Q158.797 498.928 157.038 498.928 Q152.408 498.928 149.954 502.053 Q147.524 505.178 147.177 511.497 Q148.542 509.483 150.603 508.418 Q152.663 507.33 155.14 507.33 Q160.348 507.33 163.357 510.502 Q166.39 513.65 166.39 519.09 Q166.39 524.414 163.241 527.631 Q160.093 530.849 154.862 530.849 Q148.866 530.849 145.695 526.265 Q142.524 521.659 142.524 512.932 Q142.524 504.738 146.413 499.877 Q150.302 494.993 156.853 494.993 Q158.612 494.993 160.394 495.34 Q162.2 495.687 164.144 496.381 Z" fill="#000000" fill-rule="nonzero" fill-opacity="1" /><path clip-path="url(#clip300)" d="M184.445 498.696 Q180.834 498.696 179.005 502.261 Q177.2 505.803 177.2 512.932 Q177.2 520.039 179.005 523.603 Q180.834 527.145 184.445 527.145 Q188.079 527.145 189.885 523.603 Q191.713 520.039 191.713 512.932 Q191.713 505.803 189.885 502.261 Q188.079 498.696 184.445 498.696 M184.445 494.993 Q190.255 494.993 193.311 499.599 Q196.389 504.182 196.389 512.932 Q196.389 521.659 193.311 526.265 Q190.255 530.849 184.445 530.849 Q178.635 530.849 175.556 526.265 Q172.501 521.659 172.501 512.932 Q172.501 504.182 175.556 499.599 Q178.635 494.993 184.445 494.993 Z" fill="#000000" fill-rule="nonzero" fill-opacity="1" /><path clip-path="url(#clip300)" d="M214.607 498.696 Q210.996 498.696 209.167 502.261 Q207.362 505.803 207.362 512.932 Q207.362 520.039 209.167 523.603 Q210.996 527.145 214.607 527.145 Q218.241 527.145 220.047 523.603 Q221.875 520.039 221.875 512.932 Q221.875 505.803 220.047 502.261 Q218.241 498.696 214.607 498.696 M214.607 494.993 Q220.417 494.993 223.473 499.599 Q226.551 504.182 226.551 512.932 Q226.551 521.659 223.473 526.265 Q220.417 530.849 214.607 530.849 Q208.797 530.849 205.718 526.265 Q202.662 521.659 202.662 512.932 Q202.662 504.182 205.718 499.599 Q208.797 494.993 214.607 494.993 Z" fill="#000000" fill-rule="nonzero" fill-opacity="1" /><path clip-path="url(#clip300)" d="M154.283 853.354 Q150.95 853.354 149.028 855.137 Q147.13 856.919 147.13 860.044 Q147.13 863.169 149.028 864.952 Q150.95 866.734 154.283 866.734 Q157.616 866.734 159.538 864.952 Q161.459 863.146 161.459 860.044 Q161.459 856.919 159.538 855.137 Q157.64 853.354 154.283 853.354 M149.607 851.364 Q146.598 850.623 144.908 848.563 Q143.241 846.503 143.241 843.54 Q143.241 839.396 146.181 836.989 Q149.144 834.581 154.283 834.581 Q159.445 834.581 162.385 836.989 Q165.325 839.396 165.325 843.54 Q165.325 846.503 163.635 848.563 Q161.968 850.623 158.982 851.364 Q162.362 852.151 164.237 854.442 Q166.135 856.734 166.135 860.044 Q166.135 865.067 163.056 867.752 Q160.001 870.438 154.283 870.438 Q148.566 870.438 145.487 867.752 Q142.431 865.067 142.431 860.044 Q142.431 856.734 144.329 854.442 Q146.228 852.151 149.607 851.364 M147.894 843.979 Q147.894 846.665 149.561 848.169 Q151.251 849.674 154.283 849.674 Q157.292 849.674 158.982 848.169 Q160.695 846.665 160.695 843.979 Q160.695 841.294 158.982 839.79 Q157.292 838.285 154.283 838.285 Q151.251 838.285 149.561 839.79 Q147.894 841.294 147.894 843.979 Z" fill="#000000" fill-rule="nonzero" fill-opacity="1" /><path clip-path="url(#clip300)" d="M184.445 838.285 Q180.834 838.285 179.005 841.85 Q177.2 845.391 177.2 852.521 Q177.2 859.627 179.005 863.192 Q180.834 866.734 184.445 866.734 Q188.079 866.734 189.885 863.192 Q191.713 859.627 191.713 852.521 Q191.713 845.391 189.885 841.85 Q188.079 838.285 184.445 838.285 M184.445 834.581 Q190.255 834.581 193.311 839.188 Q196.389 843.771 196.389 852.521 Q196.389 861.248 193.311 865.854 Q190.255 870.438 184.445 870.438 Q178.635 870.438 175.556 865.854 Q172.501 861.248 172.501 852.521 Q172.501 843.771 175.556 839.188 Q178.635 834.581 184.445 834.581 Z" fill="#000000" fill-rule="nonzero" fill-opacity="1" /><path clip-path="url(#clip300)" d="M214.607 838.285 Q210.996 838.285 209.167 841.85 Q207.362 845.391 207.362 852.521 Q207.362 859.627 209.167 863.192 Q210.996 866.734 214.607 866.734 Q218.241 866.734 220.047 863.192 Q221.875 859.627 221.875 852.521 Q221.875 845.391 220.047 841.85 Q218.241 838.285 214.607 838.285 M214.607 834.581 Q220.417 834.581 223.473 839.188 Q226.551 843.771 226.551 852.521 Q226.551 861.248 223.473 865.854 Q220.417 870.438 214.607 870.438 Q208.797 870.438 205.718 865.854 Q202.662 861.248 202.662 852.521 Q202.662 843.771 205.718 839.188 Q208.797 834.581 214.607 834.581 Z" fill="#000000" fill-rule="nonzero" fill-opacity="1" /><path clip-path="url(#clip300)" d="M114.931 1205.42 L122.57 1205.42 L122.57 1179.05 L114.26 1180.72 L114.26 1176.46 L122.524 1174.8 L127.2 1174.8 L127.2 1205.42 L134.839 1205.42 L134.839 1209.36 L114.931 1209.36 L114.931 1205.42 Z" fill="#000000" fill-rule="nonzero" fill-opacity="1" /><path clip-path="url(#clip300)" d="M154.283 1177.87 Q150.672 1177.87 148.843 1181.44 Q147.038 1184.98 147.038 1192.11 Q147.038 1199.22 148.843 1202.78 Q150.672 1206.32 154.283 1206.32 Q157.917 1206.32 159.723 1202.78 Q161.552 1199.22 161.552 1192.11 Q161.552 1184.98 159.723 1181.44 Q157.917 1177.87 154.283 1177.87 M154.283 1174.17 Q160.093 1174.17 163.149 1178.78 Q166.227 1183.36 166.227 1192.11 Q166.227 1200.84 163.149 1205.44 Q160.093 1210.03 154.283 1210.03 Q148.473 1210.03 145.394 1205.44 Q142.339 1200.84 142.339 1192.11 Q142.339 1183.36 145.394 1178.78 Q148.473 1174.17 154.283 1174.17 Z" fill="#000000" fill-rule="nonzero" fill-opacity="1" /><path clip-path="url(#clip300)" d="M184.445 1177.87 Q180.834 1177.87 179.005 1181.44 Q177.2 1184.98 177.2 1192.11 Q177.2 1199.22 179.005 1202.78 Q180.834 1206.32 184.445 1206.32 Q188.079 1206.32 189.885 1202.78 Q191.713 1199.22 191.713 1192.11 Q191.713 1184.98 189.885 1181.44 Q188.079 1177.87 184.445 1177.87 M184.445 1174.17 Q190.255 1174.17 193.311 1178.78 Q196.389 1183.36 196.389 1192.11 Q196.389 1200.84 193.311 1205.44 Q190.255 1210.03 184.445 1210.03 Q178.635 1210.03 175.556 1205.44 Q172.501 1200.84 172.501 1192.11 Q172.501 1183.36 175.556 1178.78 Q178.635 1174.17 184.445 1174.17 Z" fill="#000000" fill-rule="nonzero" fill-opacity="1" /><path clip-path="url(#clip300)" d="M214.607 1177.87 Q210.996 1177.87 209.167 1181.44 Q207.362 1184.98 207.362 1192.11 Q207.362 1199.22 209.167 1202.78 Q210.996 1206.32 214.607 1206.32 Q218.241 1206.32 220.047 1202.78 Q221.875 1199.22 221.875 1192.11 Q221.875 1184.98 220.047 1181.44 Q218.241 1177.87 214.607 1177.87 M214.607 1174.17 Q220.417 1174.17 223.473 1178.78 Q226.551 1183.36 226.551 1192.11 Q226.551 1200.84 223.473 1205.44 Q220.417 1210.03 214.607 1210.03 Q208.797 1210.03 205.718 1205.44 Q202.662 1200.84 202.662 1192.11 Q202.662 1183.36 205.718 1178.78 Q208.797 1174.17 214.607 1174.17 Z" fill="#000000" fill-rule="nonzero" fill-opacity="1" /><path clip-path="url(#clip300)" d="M16.4842 846.103 L16.4842 818.794 L21.895 818.794 L21.895 839.673 L35.8996 839.673 L35.8996 820.831 L41.3104 820.831 L41.3104 839.673 L64.0042 839.673 L64.0042 846.103 L16.4842 846.103 Z" fill="#000000" fill-rule="nonzero" fill-opacity="1" /><path clip-path="url(#clip300)" d="M58.5933 806.922 L58.5933 796.418 L22.3406 796.418 L24.6323 807.845 L18.7758 807.845 L16.4842 796.482 L16.4842 790.053 L58.5933 790.053 L58.5933 779.549 L64.0042 779.549 L64.0042 806.922 L58.5933 806.922 Z" fill="#000000" fill-rule="nonzero" fill-opacity="1" /><path clip-path="url(#clip300)" d="M14.5426 732.602 Q21.8632 736.867 29.0246 738.936 Q36.186 741.005 43.5384 741.005 Q50.8908 741.005 58.1159 738.936 Q65.3091 736.835 72.5979 732.602 L72.5979 737.695 Q65.1182 742.469 57.8931 744.856 Q50.668 747.211 43.5384 747.211 Q36.4406 747.211 29.2474 744.856 Q22.0542 742.501 14.5426 737.695 L14.5426 732.602 Z" fill="#000000" fill-rule="nonzero" fill-opacity="1" /><path clip-path="url(#clip300)" d="M16.4842 720.985 L16.4842 714.555 L35.9632 714.555 L35.9632 691.193 L16.4842 691.193 L16.4842 684.764 L64.0042 684.764 L64.0042 691.193 L41.3741 691.193 L41.3741 714.555 L64.0042 714.555 L64.0042 720.985 L16.4842 720.985 Z" fill="#000000" fill-rule="nonzero" fill-opacity="1" /><path clip-path="url(#clip300)" d="M28.3562 674.77 L28.3562 646.951 L33.7034 646.951 L59.3254 668.977 L59.3254 646.951 L64.0042 646.951 L64.0042 675.565 L58.657 675.565 L33.035 653.54 L33.035 674.77 L28.3562 674.77 Z" fill="#000000" fill-rule="nonzero" fill-opacity="1" /><path clip-path="url(#clip300)" d="M14.5426 638.931 L14.5426 633.838 Q22.0542 629.064 29.2474 626.708 Q36.4406 624.321 43.5384 624.321 Q50.668 624.321 57.8931 626.708 Q65.1182 629.064 72.5979 633.838 L72.5979 638.931 Q65.3091 634.697 58.1159 632.629 Q50.8908 630.528 43.5384 630.528 Q36.186 630.528 29.0246 632.629 Q21.8632 634.697 14.5426 638.931 Z" fill="#000000" fill-rule="nonzero" fill-opacity="1" /><circle clip-path="url(#clip302)" cx="481.516" cy="245.045" r="10.8" fill="#009af9" fill-rule="evenodd" fill-opacity="1" stroke="#000000" stroke-opacity="1" stroke-width="3.2"/>
<circle clip-path="url(#clip302)" cx="538.9" cy="225.603" r="10.8" fill="#009af9" fill-rule="evenodd" fill-opacity="1" stroke="#000000" stroke-opacity="1" stroke-width="3.2"/>
<circle clip-path="url(#clip302)" cx="673.562" cy="137.841" r="10.8" fill="#009af9" fill-rule="evenodd" fill-opacity="1" stroke="#000000" stroke-opacity="1" stroke-width="3.2"/>
<circle clip-path="url(#clip302)" cx="661.985" cy="294.811" r="10.8" fill="#009af9" fill-rule="evenodd" fill-opacity="1" stroke="#000000" stroke-opacity="1" stroke-width="3.2"/>
<circle clip-path="url(#clip302)" cx="705.146" cy="182.553" r="10.8" fill="#009af9" fill-rule="evenodd" fill-opacity="1" stroke="#000000" stroke-opacity="1" stroke-width="3.2"/>
<circle clip-path="url(#clip302)" cx="694.592" cy="188.099" r="10.8" fill="#009af9" fill-rule="evenodd" fill-opacity="1" stroke="#000000" stroke-opacity="1" stroke-width="3.2"/>
<circle clip-path="url(#clip302)" cx="728.231" cy="269.574" r="10.8" fill="#009af9" fill-rule="evenodd" fill-opacity="1" stroke="#000000" stroke-opacity="1" stroke-width="3.2"/>
<circle clip-path="url(#clip302)" cx="689.605" cy="215.317" r="10.8" fill="#009af9" fill-rule="evenodd" fill-opacity="1" stroke="#000000" stroke-opacity="1" stroke-width="3.2"/>
<circle clip-path="url(#clip302)" cx="643.42" cy="181.329" r="10.8" fill="#009af9" fill-rule="evenodd" fill-opacity="1" stroke="#000000" stroke-opacity="1" stroke-width="3.2"/>
<circle clip-path="url(#clip302)" cx="668.218" cy="195.458" r="10.8" fill="#009af9" fill-rule="evenodd" fill-opacity="1" stroke="#000000" stroke-opacity="1" stroke-width="3.2"/>
<circle clip-path="url(#clip302)" cx="597.124" cy="190.861" r="10.8" fill="#009af9" fill-rule="evenodd" fill-opacity="1" stroke="#000000" stroke-opacity="1" stroke-width="3.2"/>
<circle clip-path="url(#clip302)" cx="529.077" cy="278.405" r="10.8" fill="#009af9" fill-rule="evenodd" fill-opacity="1" stroke="#000000" stroke-opacity="1" stroke-width="3.2"/>
<circle clip-path="url(#clip302)" cx="650.562" cy="194.247" r="10.8" fill="#009af9" fill-rule="evenodd" fill-opacity="1" stroke="#000000" stroke-opacity="1" stroke-width="3.2"/>
<circle clip-path="url(#clip302)" cx="684.156" cy="156.779" r="10.8" fill="#009af9" fill-rule="evenodd" fill-opacity="1" stroke="#000000" stroke-opacity="1" stroke-width="3.2"/>
<circle clip-path="url(#clip302)" cx="321.708" cy="318.597" r="10.8" fill="#009af9" fill-rule="evenodd" fill-opacity="1" stroke="#000000" stroke-opacity="1" stroke-width="3.2"/>
<circle clip-path="url(#clip302)" cx="550.054" cy="285.293" r="10.8" fill="#009af9" fill-rule="evenodd" fill-opacity="1" stroke="#000000" stroke-opacity="1" stroke-width="3.2"/>
<circle clip-path="url(#clip302)" cx="863.962" cy="97.6491" r="10.8" fill="#009af9" fill-rule="evenodd" fill-opacity="1" stroke="#000000" stroke-opacity="1" stroke-width="3.2"/>
<circle clip-path="url(#clip302)" cx="809.387" cy="165.614" r="10.8" fill="#009af9" fill-rule="evenodd" fill-opacity="1" stroke="#000000" stroke-opacity="1" stroke-width="3.2"/>
<circle clip-path="url(#clip302)" cx="527.62" cy="197.109" r="10.8" fill="#009af9" fill-rule="evenodd" fill-opacity="1" stroke="#000000" stroke-opacity="1" stroke-width="3.2"/>
<circle clip-path="url(#clip302)" cx="649.339" cy="167.082" r="10.8" fill="#009af9" fill-rule="evenodd" fill-opacity="1" stroke="#000000" stroke-opacity="1" stroke-width="3.2"/>
<circle clip-path="url(#clip302)" cx="641.4" cy="259.126" r="10.8" fill="#009af9" fill-rule="evenodd" fill-opacity="1" stroke="#000000" stroke-opacity="1" stroke-width="3.2"/>
<circle clip-path="url(#clip302)" cx="528.229" cy="246.422" r="10.8" fill="#009af9" fill-rule="evenodd" fill-opacity="1" stroke="#000000" stroke-opacity="1" stroke-width="3.2"/>
<circle clip-path="url(#clip302)" cx="659.056" cy="155.139" r="10.8" fill="#009af9" fill-rule="evenodd" fill-opacity="1" stroke="#000000" stroke-opacity="1" stroke-width="3.2"/>
<circle clip-path="url(#clip302)" cx="552.357" cy="283.185" r="10.8" fill="#009af9" fill-rule="evenodd" fill-opacity="1" stroke="#000000" stroke-opacity="1" stroke-width="3.2"/>
<circle clip-path="url(#clip302)" cx="637.944" cy="152.629" r="10.8" fill="#009af9" fill-rule="evenodd" fill-opacity="1" stroke="#000000" stroke-opacity="1" stroke-width="3.2"/>
<circle clip-path="url(#clip302)" cx="720.876" cy="196.504" r="10.8" fill="#009af9" fill-rule="evenodd" fill-opacity="1" stroke="#000000" stroke-opacity="1" stroke-width="3.2"/>
<circle clip-path="url(#clip302)" cx="595.98" cy="135.329" r="10.8" fill="#009af9" fill-rule="evenodd" fill-opacity="1" stroke="#000000" stroke-opacity="1" stroke-width="3.2"/>
<circle clip-path="url(#clip302)" cx="523.13" cy="226.705" r="10.8" fill="#009af9" fill-rule="evenodd" fill-opacity="1" stroke="#000000" stroke-opacity="1" stroke-width="3.2"/>
<circle clip-path="url(#clip302)" cx="661.996" cy="228.313" r="10.8" fill="#009af9" fill-rule="evenodd" fill-opacity="1" stroke="#000000" stroke-opacity="1" stroke-width="3.2"/>
<circle clip-path="url(#clip302)" cx="525.785" cy="213.393" r="10.8" fill="#009af9" fill-rule="evenodd" fill-opacity="1" stroke="#000000" stroke-opacity="1" stroke-width="3.2"/>
<circle clip-path="url(#clip302)" cx="1597.73" cy="907.87" r="10.8" fill="#e26f46" fill-rule="evenodd" fill-opacity="1" stroke="#000000" stroke-opacity="1" stroke-width="3.2"/>
<circle clip-path="url(#clip302)" cx="1336.93" cy="1325.89" r="10.8" fill="#e26f46" fill-rule="evenodd" fill-opacity="1" stroke="#000000" stroke-opacity="1" stroke-width="3.2"/>
<circle clip-path="url(#clip302)" cx="1452.66" cy="1139.45" r="10.8" fill="#e26f46" fill-rule="evenodd" fill-opacity="1" stroke="#000000" stroke-opacity="1" stroke-width="3.2"/>
<circle clip-path="url(#clip302)" cx="1561.6" cy="1008.8" r="10.8" fill="#e26f46" fill-rule="evenodd" fill-opacity="1" stroke="#000000" stroke-opacity="1" stroke-width="3.2"/>
<circle clip-path="url(#clip302)" cx="1545.7" cy="880.945" r="10.8" fill="#e26f46" fill-rule="evenodd" fill-opacity="1" stroke="#000000" stroke-opacity="1" stroke-width="3.2"/>
<circle clip-path="url(#clip302)" cx="1598.81" cy="936.686" r="10.8" fill="#e26f46" fill-rule="evenodd" fill-opacity="1" stroke="#000000" stroke-opacity="1" stroke-width="3.2"/>
<circle clip-path="url(#clip302)" cx="1754.37" cy="967.367" r="10.8" fill="#e26f46" fill-rule="evenodd" fill-opacity="1" stroke="#000000" stroke-opacity="1" stroke-width="3.2"/>
<circle clip-path="url(#clip302)" cx="1673.05" cy="1121.87" r="10.8" fill="#e26f46" fill-rule="evenodd" fill-opacity="1" stroke="#000000" stroke-opacity="1" stroke-width="3.2"/>
<circle clip-path="url(#clip302)" cx="1624.79" cy="956.215" r="10.8" fill="#e26f46" fill-rule="evenodd" fill-opacity="1" stroke="#000000" stroke-opacity="1" stroke-width="3.2"/>
<circle clip-path="url(#clip302)" cx="1691.96" cy="1093.81" r="10.8" fill="#e26f46" fill-rule="evenodd" fill-opacity="1" stroke="#000000" stroke-opacity="1" stroke-width="3.2"/>
<circle clip-path="url(#clip302)" cx="1714.49" cy="941.438" r="10.8" fill="#e26f46" fill-rule="evenodd" fill-opacity="1" stroke="#000000" stroke-opacity="1" stroke-width="3.2"/>
<circle clip-path="url(#clip302)" cx="1556.52" cy="1043.42" r="10.8" fill="#e26f46" fill-rule="evenodd" fill-opacity="1" stroke="#000000" stroke-opacity="1" stroke-width="3.2"/>
<circle clip-path="url(#clip302)" cx="1632.63" cy="1094.72" r="10.8" fill="#e26f46" fill-rule="evenodd" fill-opacity="1" stroke="#000000" stroke-opacity="1" stroke-width="3.2"/>
<circle clip-path="url(#clip302)" cx="1553.07" cy="1246.43" r="10.8" fill="#e26f46" fill-rule="evenodd" fill-opacity="1" stroke="#000000" stroke-opacity="1" stroke-width="3.2"/>
<circle clip-path="url(#clip302)" cx="1685.05" cy="906.049" r="10.8" fill="#e26f46" fill-rule="evenodd" fill-opacity="1" stroke="#000000" stroke-opacity="1" stroke-width="3.2"/>
<circle clip-path="url(#clip302)" cx="1331.96" cy="1182.62" r="10.8" fill="#e26f46" fill-rule="evenodd" fill-opacity="1" stroke="#000000" stroke-opacity="1" stroke-width="3.2"/>
<circle clip-path="url(#clip302)" cx="1785.71" cy="898.148" r="10.8" fill="#e26f46" fill-rule="evenodd" fill-opacity="1" stroke="#000000" stroke-opacity="1" stroke-width="3.2"/>
<circle clip-path="url(#clip302)" cx="1553.24" cy="1384.24" r="10.8" fill="#e26f46" fill-rule="evenodd" fill-opacity="1" stroke="#000000" stroke-opacity="1" stroke-width="3.2"/>
<circle clip-path="url(#clip302)" cx="1614.9" cy="1108.99" r="10.8" fill="#e26f46" fill-rule="evenodd" fill-opacity="1" stroke="#000000" stroke-opacity="1" stroke-width="3.2"/>
<circle clip-path="url(#clip302)" cx="1688.52" cy="965.412" r="10.8" fill="#e26f46" fill-rule="evenodd" fill-opacity="1" stroke="#000000" stroke-opacity="1" stroke-width="3.2"/>
<circle clip-path="url(#clip302)" cx="1728.75" cy="1108.11" r="10.8" fill="#e26f46" fill-rule="evenodd" fill-opacity="1" stroke="#000000" stroke-opacity="1" stroke-width="3.2"/>
<circle clip-path="url(#clip302)" cx="1518.53" cy="1240.37" r="10.8" fill="#e26f46" fill-rule="evenodd" fill-opacity="1" stroke="#000000" stroke-opacity="1" stroke-width="3.2"/>
<circle clip-path="url(#clip302)" cx="1691.99" cy="1024.19" r="10.8" fill="#e26f46" fill-rule="evenodd" fill-opacity="1" stroke="#000000" stroke-opacity="1" stroke-width="3.2"/>
<circle clip-path="url(#clip302)" cx="1566.45" cy="993.37" r="10.8" fill="#e26f46" fill-rule="evenodd" fill-opacity="1" stroke="#000000" stroke-opacity="1" stroke-width="3.2"/>
<circle clip-path="url(#clip302)" cx="1392.22" cy="1129.94" r="10.8" fill="#e26f46" fill-rule="evenodd" fill-opacity="1" stroke="#000000" stroke-opacity="1" stroke-width="3.2"/>
<circle clip-path="url(#clip302)" cx="1515" cy="959.877" r="10.8" fill="#e26f46" fill-rule="evenodd" fill-opacity="1" stroke="#000000" stroke-opacity="1" stroke-width="3.2"/>
<circle clip-path="url(#clip302)" cx="1697.28" cy="774.967" r="10.8" fill="#e26f46" fill-rule="evenodd" fill-opacity="1" stroke="#000000" stroke-opacity="1" stroke-width="3.2"/>
<circle clip-path="url(#clip302)" cx="1796.02" cy="1041.52" r="10.8" fill="#e26f46" fill-rule="evenodd" fill-opacity="1" stroke="#000000" stroke-opacity="1" stroke-width="3.2"/>
<circle clip-path="url(#clip302)" cx="1643.41" cy="784.945" r="10.8" fill="#e26f46" fill-rule="evenodd" fill-opacity="1" stroke="#000000" stroke-opacity="1" stroke-width="3.2"/>
<circle clip-path="url(#clip302)" cx="1764.71" cy="808.616" r="10.8" fill="#e26f46" fill-rule="evenodd" fill-opacity="1" stroke="#000000" stroke-opacity="1" stroke-width="3.2"/>
<circle clip-path="url(#clip302)" cx="1983.71" cy="227.647" r="10.8" fill="#3da44d" fill-rule="evenodd" fill-opacity="1" stroke="#000000" stroke-opacity="1" stroke-width="3.2"/>
<circle clip-path="url(#clip302)" cx="1962.39" cy="338.623" r="10.8" fill="#3da44d" fill-rule="evenodd" fill-opacity="1" stroke="#000000" stroke-opacity="1" stroke-width="3.2"/>
<circle clip-path="url(#clip302)" cx="1902.52" cy="340.04" r="10.8" fill="#3da44d" fill-rule="evenodd" fill-opacity="1" stroke="#000000" stroke-opacity="1" stroke-width="3.2"/>
<circle clip-path="url(#clip302)" cx="2165.04" cy="325.504" r="10.8" fill="#3da44d" fill-rule="evenodd" fill-opacity="1" stroke="#000000" stroke-opacity="1" stroke-width="3.2"/>
<circle clip-path="url(#clip302)" cx="1610.84" cy="328.867" r="10.8" fill="#3da44d" fill-rule="evenodd" fill-opacity="1" stroke="#000000" stroke-opacity="1" stroke-width="3.2"/>
<circle clip-path="url(#clip302)" cx="2041.32" cy="307.544" r="10.8" fill="#3da44d" fill-rule="evenodd" fill-opacity="1" stroke="#000000" stroke-opacity="1" stroke-width="3.2"/>
<circle clip-path="url(#clip302)" cx="1940.08" cy="394.462" r="10.8" fill="#3da44d" fill-rule="evenodd" fill-opacity="1" stroke="#000000" stroke-opacity="1" stroke-width="3.2"/>
<circle clip-path="url(#clip302)" cx="1900.8" cy="220.112" r="10.8" fill="#3da44d" fill-rule="evenodd" fill-opacity="1" stroke="#000000" stroke-opacity="1" stroke-width="3.2"/>
<circle clip-path="url(#clip302)" cx="1767.56" cy="293.989" r="10.8" fill="#3da44d" fill-rule="evenodd" fill-opacity="1" stroke="#000000" stroke-opacity="1" stroke-width="3.2"/>
<circle clip-path="url(#clip302)" cx="2293.6" cy="300.995" r="10.8" fill="#3da44d" fill-rule="evenodd" fill-opacity="1" stroke="#000000" stroke-opacity="1" stroke-width="3.2"/>
<circle clip-path="url(#clip302)" cx="2149.74" cy="227.835" r="10.8" fill="#3da44d" fill-rule="evenodd" fill-opacity="1" stroke="#000000" stroke-opacity="1" stroke-width="3.2"/>
<circle clip-path="url(#clip302)" cx="1956.17" cy="339.117" r="10.8" fill="#3da44d" fill-rule="evenodd" fill-opacity="1" stroke="#000000" stroke-opacity="1" stroke-width="3.2"/>
<circle clip-path="url(#clip302)" cx="1909.68" cy="196.868" r="10.8" fill="#3da44d" fill-rule="evenodd" fill-opacity="1" stroke="#000000" stroke-opacity="1" stroke-width="3.2"/>
<circle clip-path="url(#clip302)" cx="1796.25" cy="271.769" r="10.8" fill="#3da44d" fill-rule="evenodd" fill-opacity="1" stroke="#000000" stroke-opacity="1" stroke-width="3.2"/>
<circle clip-path="url(#clip302)" cx="1734.64" cy="138.505" r="10.8" fill="#3da44d" fill-rule="evenodd" fill-opacity="1" stroke="#000000" stroke-opacity="1" stroke-width="3.2"/>
<circle clip-path="url(#clip302)" cx="1799.59" cy="204.262" r="10.8" fill="#3da44d" fill-rule="evenodd" fill-opacity="1" stroke="#000000" stroke-opacity="1" stroke-width="3.2"/>
<circle clip-path="url(#clip302)" cx="1857.16" cy="319.629" r="10.8" fill="#3da44d" fill-rule="evenodd" fill-opacity="1" stroke="#000000" stroke-opacity="1" stroke-width="3.2"/>
<circle clip-path="url(#clip302)" cx="2125.25" cy="181.411" r="10.8" fill="#3da44d" fill-rule="evenodd" fill-opacity="1" stroke="#000000" stroke-opacity="1" stroke-width="3.2"/>
<circle clip-path="url(#clip302)" cx="1726.14" cy="86.1857" r="10.8" fill="#3da44d" fill-rule="evenodd" fill-opacity="1" stroke="#000000" stroke-opacity="1" stroke-width="3.2"/>
<circle clip-path="url(#clip302)" cx="2013.27" cy="333.946" r="10.8" fill="#3da44d" fill-rule="evenodd" fill-opacity="1" stroke="#000000" stroke-opacity="1" stroke-width="3.2"/>
<circle clip-path="url(#clip302)" cx="1906.43" cy="240.643" r="10.8" fill="#3da44d" fill-rule="evenodd" fill-opacity="1" stroke="#000000" stroke-opacity="1" stroke-width="3.2"/>
<circle clip-path="url(#clip302)" cx="2044.45" cy="228.221" r="10.8" fill="#3da44d" fill-rule="evenodd" fill-opacity="1" stroke="#000000" stroke-opacity="1" stroke-width="3.2"/>
<circle clip-path="url(#clip302)" cx="1878.82" cy="424.841" r="10.8" fill="#3da44d" fill-rule="evenodd" fill-opacity="1" stroke="#000000" stroke-opacity="1" stroke-width="3.2"/>
<circle clip-path="url(#clip302)" cx="1828.19" cy="162.718" r="10.8" fill="#3da44d" fill-rule="evenodd" fill-opacity="1" stroke="#000000" stroke-opacity="1" stroke-width="3.2"/>
<circle clip-path="url(#clip302)" cx="2089.42" cy="226.281" r="10.8" fill="#3da44d" fill-rule="evenodd" fill-opacity="1" stroke="#000000" stroke-opacity="1" stroke-width="3.2"/>
<circle clip-path="url(#clip302)" cx="2044.39" cy="170.248" r="10.8" fill="#3da44d" fill-rule="evenodd" fill-opacity="1" stroke="#000000" stroke-opacity="1" stroke-width="3.2"/>
<circle clip-path="url(#clip302)" cx="1765.24" cy="195.276" r="10.8" fill="#3da44d" fill-rule="evenodd" fill-opacity="1" stroke="#000000" stroke-opacity="1" stroke-width="3.2"/>
<circle clip-path="url(#clip302)" cx="1675.76" cy="235.222" r="10.8" fill="#3da44d" fill-rule="evenodd" fill-opacity="1" stroke="#000000" stroke-opacity="1" stroke-width="3.2"/>
<circle clip-path="url(#clip302)" cx="1787.12" cy="255.936" r="10.8" fill="#3da44d" fill-rule="evenodd" fill-opacity="1" stroke="#000000" stroke-opacity="1" stroke-width="3.2"/>
<circle clip-path="url(#clip302)" cx="1870.05" cy="228.01" r="10.8" fill="#3da44d" fill-rule="evenodd" fill-opacity="1" stroke="#000000" stroke-opacity="1" stroke-width="3.2"/>
<path clip-path="url(#clip300)" d="M2011.26 300.469 L2283.08 300.469 L2283.08 93.1086 L2011.26 93.1086  Z" fill="#ffffff" fill-rule="evenodd" fill-opacity="1"/>
<polyline clip-path="url(#clip300)" style="stroke:#000000; stroke-linecap:round; stroke-linejoin:round; stroke-width:4; stroke-opacity:1; fill:none" points="2011.26,300.469 2283.08,300.469 2283.08,93.1086 2011.26,93.1086 2011.26,300.469 "/>
<circle clip-path="url(#clip300)" cx="2104.16" cy="144.949" r="19.7486" fill="#009af9" fill-rule="evenodd" fill-opacity="1" stroke="#000000" stroke-opacity="1" stroke-width="5.85143"/>
<path clip-path="url(#clip300)" d="M2197.06 136.303 L2201.32 136.303 L2201.32 162.229 L2197.06 162.229 L2197.06 136.303 M2197.06 126.21 L2201.32 126.21 L2201.32 131.604 L2197.06 131.604 L2197.06 126.21 Z" fill="#000000" fill-rule="nonzero" fill-opacity="1" /><path clip-path="url(#clip300)" d="M2221.02 164.636 Q2219.21 169.266 2217.5 170.678 Q2215.78 172.09 2212.91 172.09 L2209.51 172.09 L2209.51 168.525 L2212.01 168.525 Q2213.77 168.525 2214.74 167.692 Q2215.71 166.858 2216.9 163.756 L2217.66 161.812 L2207.17 136.303 L2211.69 136.303 L2219.79 156.581 L2227.89 136.303 L2232.4 136.303 L2221.02 164.636 Z" fill="#000000" fill-rule="nonzero" fill-opacity="1" /><circle clip-path="url(#clip300)" cx="2104.16" cy="196.789" r="19.7486" fill="#e26f46" fill-rule="evenodd" fill-opacity="1" stroke="#000000" stroke-opacity="1" stroke-width="5.85143"/>
<path clip-path="url(#clip300)" d="M2210.46 201.036 Q2205.3 201.036 2203.31 202.217 Q2201.32 203.397 2201.32 206.245 Q2201.32 208.513 2202.8 209.856 Q2204.3 211.175 2206.87 211.175 Q2210.41 211.175 2212.54 208.675 Q2214.7 206.152 2214.7 201.985 L2214.7 201.036 L2210.46 201.036 M2218.96 199.277 L2218.96 214.069 L2214.7 214.069 L2214.7 210.133 Q2213.24 212.495 2211.06 213.629 Q2208.89 214.74 2205.74 214.74 Q2201.76 214.74 2199.4 212.518 Q2197.06 210.272 2197.06 206.522 Q2197.06 202.147 2199.97 199.925 Q2202.91 197.703 2208.72 197.703 L2214.7 197.703 L2214.7 197.286 Q2214.7 194.347 2212.75 192.749 Q2210.83 191.129 2207.34 191.129 Q2205.11 191.129 2203.01 191.661 Q2200.9 192.194 2198.96 193.259 L2198.96 189.323 Q2201.29 188.421 2203.49 187.981 Q2205.69 187.518 2207.77 187.518 Q2213.4 187.518 2216.18 190.434 Q2218.96 193.351 2218.96 199.277 Z" fill="#000000" fill-rule="nonzero" fill-opacity="1" /><path clip-path="url(#clip300)" d="M2239.51 201.036 Q2234.35 201.036 2232.36 202.217 Q2230.37 203.397 2230.37 206.245 Q2230.37 208.513 2231.85 209.856 Q2233.35 211.175 2235.92 211.175 Q2239.46 211.175 2241.59 208.675 Q2243.75 206.152 2243.75 201.985 L2243.75 201.036 L2239.51 201.036 M2248.01 199.277 L2248.01 214.069 L2243.75 214.069 L2243.75 210.133 Q2242.29 212.495 2240.11 213.629 Q2237.94 214.74 2234.79 214.74 Q2230.81 214.74 2228.45 212.518 Q2226.11 210.272 2226.11 206.522 Q2226.11 202.147 2229.02 199.925 Q2231.96 197.703 2237.77 197.703 L2243.75 197.703 L2243.75 197.286 Q2243.75 194.347 2241.8 192.749 Q2239.88 191.129 2236.39 191.129 Q2234.16 191.129 2232.06 191.661 Q2229.95 192.194 2228.01 193.259 L2228.01 189.323 Q2230.34 188.421 2232.54 187.981 Q2234.74 187.518 2236.83 187.518 Q2242.45 187.518 2245.23 190.434 Q2248.01 193.351 2248.01 199.277 Z" fill="#000000" fill-rule="nonzero" fill-opacity="1" /><circle clip-path="url(#clip300)" cx="2104.16" cy="248.629" r="19.7486" fill="#3da44d" fill-rule="evenodd" fill-opacity="1" stroke="#000000" stroke-opacity="1" stroke-width="5.85143"/>
<path clip-path="url(#clip300)" d="M2197.06 255.677 L2197.06 239.983 L2201.32 239.983 L2201.32 255.515 Q2201.32 259.196 2202.75 261.048 Q2204.19 262.876 2207.06 262.876 Q2210.51 262.876 2212.5 260.677 Q2214.51 258.478 2214.51 254.682 L2214.51 239.983 L2218.77 239.983 L2218.77 265.909 L2214.51 265.909 L2214.51 261.927 Q2212.96 264.288 2210.9 265.446 Q2208.86 266.58 2206.15 266.58 Q2201.69 266.58 2199.37 263.802 Q2197.06 261.024 2197.06 255.677 M2207.77 239.358 L2207.77 239.358 Z" fill="#000000" fill-rule="nonzero" fill-opacity="1" /><path clip-path="url(#clip300)" d="M2225.07 239.983 L2229.33 239.983 L2234.65 260.214 L2239.95 239.983 L2244.97 239.983 L2250.3 260.214 L2255.6 239.983 L2259.86 239.983 L2253.08 265.909 L2248.05 265.909 L2242.47 244.659 L2236.87 265.909 L2231.85 265.909 L2225.07 239.983 Z" fill="#000000" fill-rule="nonzero" fill-opacity="1" /></svg>
