<?xml version="1.0" encoding="utf-8"?>
<svg xmlns="http://www.w3.org/2000/svg" xmlns:xlink="http://www.w3.org/1999/xlink" width="600" height="400" viewBox="0 0 2400 1600">
<defs>
  <clipPath id="clip390">
    <rect x="0" y="0" width="2400" height="1600"/>
  </clipPath>
</defs>
<path clip-path="url(#clip390)" d="M0 1600 L2400 1600 L2400 0 L0 0  Z" fill="#ffffff" fill-rule="evenodd" fill-opacity="1"/>
<defs>
  <clipPath id="clip391">
    <rect x="480" y="0" width="1681" height="1600"/>
  </clipPath>
</defs>
<path clip-path="url(#clip390)" d="M201.019 1486.45 L2352.76 1486.45 L2352.76 47.2441 L201.019 47.2441  Z" fill="#ffffff" fill-rule="evenodd" fill-opacity="1"/>
<defs>
  <clipPath id="clip392">
    <rect x="201" y="47" width="2153" height="1440"/>
  </clipPath>
</defs>
<polyline clip-path="url(#clip392)" style="stroke:#000000; stroke-linecap:round; stroke-linejoin:round; stroke-width:2; stroke-opacity:0.1; fill:none" points="398.164,1486.45 398.164,47.2441 "/>
<polyline clip-path="url(#clip392)" style="stroke:#000000; stroke-linecap:round; stroke-linejoin:round; stroke-width:2; stroke-opacity:0.1; fill:none" points="929.224,1486.45 929.224,47.2441 "/>
<polyline clip-path="url(#clip392)" style="stroke:#000000; stroke-linecap:round; stroke-linejoin:round; stroke-width:2; stroke-opacity:0.1; fill:none" points="1460.29,1486.45 1460.29,47.2441 "/>
<polyline clip-path="url(#clip392)" style="stroke:#000000; stroke-linecap:round; stroke-linejoin:round; stroke-width:2; stroke-opacity:0.1; fill:none" points="1991.35,1486.45 1991.35,47.2441 "/>
<polyline clip-path="url(#clip392)" style="stroke:#000000; stroke-linecap:round; stroke-linejoin:round; stroke-width:2; stroke-opacity:0.1; fill:none" points="201.019,1261.39 2352.76,1261.39 "/>
<polyline clip-path="url(#clip392)" style="stroke:#000000; stroke-linecap:round; stroke-linejoin:round; stroke-width:2; stroke-opacity:0.1; fill:none" points="201.019,982.975 2352.76,982.975 "/>
<polyline clip-path="url(#clip392)" style="stroke:#000000; stroke-linecap:round; stroke-linejoin:round; stroke-width:2; stroke-opacity:0.1; fill:none" points="201.019,704.561 2352.76,704.561 "/>
<polyline clip-path="url(#clip392)" style="stroke:#000000; stroke-linecap:round; stroke-linejoin:round; stroke-width:2; stroke-opacity:0.1; fill:none" points="201.019,426.147 2352.76,426.147 "/>
<polyline clip-path="url(#clip392)" style="stroke:#000000; stroke-linecap:round; stroke-linejoin:round; stroke-width:2; stroke-opacity:0.1; fill:none" points="201.019,147.734 2352.76,147.734 "/>
<polyline clip-path="url(#clip390)" style="stroke:#000000; stroke-linecap:round; stroke-linejoin:round; stroke-width:4; stroke-opacity:1; fill:none" points="201.019,1486.45 2352.76,1486.45 "/>
<polyline clip-path="url(#clip390)" style="stroke:#000000; stroke-linecap:round; stroke-linejoin:round; stroke-width:4; stroke-opacity:1; fill:none" points="398.164,1486.45 398.164,1467.55 "/>
<polyline clip-path="url(#clip390)" style="stroke:#000000; stroke-linecap:round; stroke-linejoin:round; stroke-width:4; stroke-opacity:1; fill:none" points="929.224,1486.45 929.224,1467.55 "/>
<polyline clip-path="url(#clip390)" style="stroke:#000000; stroke-linecap:round; stroke-linejoin:round; stroke-width:4; stroke-opacity:1; fill:none" points="1460.29,1486.45 1460.29,1467.55 "/>
<polyline clip-path="url(#clip390)" style="stroke:#000000; stroke-linecap:round; stroke-linejoin:round; stroke-width:4; stroke-opacity:1; fill:none" points="1991.35,1486.45 1991.35,1467.55 "/>
<path clip-path="url(#clip390)" d="M371.254 1518.36 L359.448 1536.81 L371.254 1536.81 L371.254 1518.36 M370.027 1514.29 L375.907 1514.29 L375.907 1536.81 L380.837 1536.81 L380.837 1540.7 L375.907 1540.7 L375.907 1548.85 L371.254 1548.85 L371.254 1540.7 L355.652 1540.7 L355.652 1536.19 L370.027 1514.29 Z" fill="#000000" fill-rule="nonzero" fill-opacity="1" /><path clip-path="url(#clip390)" d="M398.569 1517.37 Q394.958 1517.37 393.129 1520.93 Q391.323 1524.47 391.323 1531.6 Q391.323 1538.71 393.129 1542.27 Q394.958 1545.82 398.569 1545.82 Q402.203 1545.82 404.008 1542.27 Q405.837 1538.71 405.837 1531.6 Q405.837 1524.47 404.008 1520.93 Q402.203 1517.37 398.569 1517.37 M398.569 1513.66 Q404.379 1513.66 407.434 1518.27 Q410.513 1522.85 410.513 1531.6 Q410.513 1540.33 407.434 1544.94 Q404.379 1549.52 398.569 1549.52 Q392.758 1549.52 389.68 1544.94 Q386.624 1540.33 386.624 1531.6 Q386.624 1522.85 389.68 1518.27 Q392.758 1513.66 398.569 1513.66 Z" fill="#000000" fill-rule="nonzero" fill-opacity="1" /><path clip-path="url(#clip390)" d="M428.73 1517.37 Q425.119 1517.37 423.291 1520.93 Q421.485 1524.47 421.485 1531.6 Q421.485 1538.71 423.291 1542.27 Q425.119 1545.82 428.73 1545.82 Q432.365 1545.82 434.17 1542.27 Q435.999 1538.71 435.999 1531.6 Q435.999 1524.47 434.17 1520.93 Q432.365 1517.37 428.73 1517.37 M428.73 1513.66 Q434.541 1513.66 437.596 1518.27 Q440.675 1522.85 440.675 1531.6 Q440.675 1540.33 437.596 1544.94 Q434.541 1549.52 428.73 1549.52 Q422.92 1549.52 419.842 1544.94 Q416.786 1540.33 416.786 1531.6 Q416.786 1522.85 419.842 1518.27 Q422.92 1513.66 428.73 1513.66 Z" fill="#000000" fill-rule="nonzero" fill-opacity="1" /><path clip-path="url(#clip390)" d="M899.549 1529.7 Q896.401 1529.7 894.549 1531.86 Q892.72 1534.01 892.72 1537.76 Q892.72 1541.49 894.549 1543.66 Q896.401 1545.82 899.549 1545.82 Q902.697 1545.82 904.525 1543.66 Q906.377 1541.49 906.377 1537.76 Q906.377 1534.01 904.525 1531.86 Q902.697 1529.7 899.549 1529.7 M908.831 1515.05 L908.831 1519.31 Q907.072 1518.48 905.266 1518.04 Q903.484 1517.6 901.725 1517.6 Q897.095 1517.6 894.641 1520.72 Q892.211 1523.85 891.864 1530.17 Q893.229 1528.15 895.289 1527.09 Q897.35 1526 899.826 1526 Q905.035 1526 908.044 1529.17 Q911.076 1532.32 911.076 1537.76 Q911.076 1543.08 907.928 1546.3 Q904.78 1549.52 899.549 1549.52 Q893.553 1549.52 890.382 1544.94 Q887.211 1540.33 887.211 1531.6 Q887.211 1523.41 891.1 1518.55 Q894.989 1513.66 901.539 1513.66 Q903.299 1513.66 905.081 1514.01 Q906.887 1514.36 908.831 1515.05 Z" fill="#000000" fill-rule="nonzero" fill-opacity="1" /><path clip-path="url(#clip390)" d="M929.132 1517.37 Q925.521 1517.37 923.692 1520.93 Q921.887 1524.47 921.887 1531.6 Q921.887 1538.71 923.692 1542.27 Q925.521 1545.82 929.132 1545.82 Q932.766 1545.82 934.572 1542.27 Q936.4 1538.71 936.4 1531.6 Q936.4 1524.47 934.572 1520.93 Q932.766 1517.37 929.132 1517.37 M929.132 1513.66 Q934.942 1513.66 937.998 1518.27 Q941.076 1522.85 941.076 1531.6 Q941.076 1540.33 937.998 1544.94 Q934.942 1549.52 929.132 1549.52 Q923.322 1549.52 920.243 1544.94 Q917.187 1540.33 917.187 1531.6 Q917.187 1522.85 920.243 1518.27 Q923.322 1513.66 929.132 1513.66 Z" fill="#000000" fill-rule="nonzero" fill-opacity="1" /><path clip-path="url(#clip390)" d="M959.294 1517.37 Q955.683 1517.37 953.854 1520.93 Q952.048 1524.47 952.048 1531.6 Q952.048 1538.71 953.854 1542.27 Q955.683 1545.82 959.294 1545.82 Q962.928 1545.82 964.734 1542.27 Q966.562 1538.71 966.562 1531.6 Q966.562 1524.47 964.734 1520.93 Q962.928 1517.37 959.294 1517.37 M959.294 1513.66 Q965.104 1513.66 968.159 1518.27 Q971.238 1522.85 971.238 1531.6 Q971.238 1540.33 968.159 1544.94 Q965.104 1549.52 959.294 1549.52 Q953.484 1549.52 950.405 1544.94 Q947.349 1540.33 947.349 1531.6 Q947.349 1522.85 950.405 1518.27 Q953.484 1513.66 959.294 1513.66 Z" fill="#000000" fill-rule="nonzero" fill-opacity="1" /><path clip-path="url(#clip390)" d="M1430.08 1532.44 Q1426.74 1532.44 1424.82 1534.22 Q1422.92 1536 1422.92 1539.13 Q1422.92 1542.25 1424.82 1544.03 Q1426.74 1545.82 1430.08 1545.82 Q1433.41 1545.82 1435.33 1544.03 Q1437.25 1542.23 1437.25 1539.13 Q1437.25 1536 1435.33 1534.22 Q1433.43 1532.44 1430.08 1532.44 M1425.4 1530.45 Q1422.39 1529.7 1420.7 1527.64 Q1419.04 1525.58 1419.04 1522.62 Q1419.04 1518.48 1421.98 1516.07 Q1424.94 1513.66 1430.08 1513.66 Q1435.24 1513.66 1438.18 1516.07 Q1441.12 1518.48 1441.12 1522.62 Q1441.12 1525.58 1439.43 1527.64 Q1437.76 1529.7 1434.78 1530.45 Q1438.16 1531.23 1440.03 1533.52 Q1441.93 1535.82 1441.93 1539.13 Q1441.93 1544.15 1438.85 1546.83 Q1435.79 1549.52 1430.08 1549.52 Q1424.36 1549.52 1421.28 1546.83 Q1418.23 1544.15 1418.23 1539.13 Q1418.23 1535.82 1420.12 1533.52 Q1422.02 1531.23 1425.4 1530.45 M1423.69 1523.06 Q1423.69 1525.75 1425.35 1527.25 Q1427.04 1528.76 1430.08 1528.76 Q1433.09 1528.76 1434.78 1527.25 Q1436.49 1525.75 1436.49 1523.06 Q1436.49 1520.38 1434.78 1518.87 Q1433.09 1517.37 1430.08 1517.37 Q1427.04 1517.37 1425.35 1518.87 Q1423.69 1520.38 1423.69 1523.06 Z" fill="#000000" fill-rule="nonzero" fill-opacity="1" /><path clip-path="url(#clip390)" d="M1460.24 1517.37 Q1456.63 1517.37 1454.8 1520.93 Q1452.99 1524.47 1452.99 1531.6 Q1452.99 1538.71 1454.8 1542.27 Q1456.63 1545.82 1460.24 1545.82 Q1463.87 1545.82 1465.68 1542.27 Q1467.51 1538.71 1467.51 1531.6 Q1467.51 1524.47 1465.68 1520.93 Q1463.87 1517.37 1460.24 1517.37 M1460.24 1513.66 Q1466.05 1513.66 1469.1 1518.27 Q1472.18 1522.85 1472.18 1531.6 Q1472.18 1540.33 1469.1 1544.94 Q1466.05 1549.52 1460.24 1549.52 Q1454.43 1549.52 1451.35 1544.94 Q1448.29 1540.33 1448.29 1531.6 Q1448.29 1522.85 1451.35 1518.27 Q1454.43 1513.66 1460.24 1513.66 Z" fill="#000000" fill-rule="nonzero" fill-opacity="1" /><path clip-path="url(#clip390)" d="M1490.4 1517.37 Q1486.79 1517.37 1484.96 1520.93 Q1483.16 1524.47 1483.16 1531.6 Q1483.16 1538.71 1484.96 1542.27 Q1486.79 1545.82 1490.4 1545.82 Q1494.04 1545.82 1495.84 1542.27 Q1497.67 1538.71 1497.67 1531.6 Q1497.67 1524.47 1495.84 1520.93 Q1494.04 1517.37 1490.4 1517.37 M1490.4 1513.66 Q1496.21 1513.66 1499.27 1518.27 Q1502.35 1522.85 1502.35 1531.6 Q1502.35 1540.33 1499.27 1544.94 Q1496.21 1549.52 1490.4 1549.52 Q1484.59 1549.52 1481.51 1544.94 Q1478.46 1540.33 1478.46 1531.6 Q1478.46 1522.85 1481.51 1518.27 Q1484.59 1513.66 1490.4 1513.66 Z" fill="#000000" fill-rule="nonzero" fill-opacity="1" /><path clip-path="url(#clip390)" d="M1935.87 1544.91 L1943.51 1544.91 L1943.51 1518.55 L1935.2 1520.21 L1935.2 1515.95 L1943.46 1514.29 L1948.14 1514.29 L1948.14 1544.91 L1955.78 1544.91 L1955.78 1548.85 L1935.87 1548.85 L1935.87 1544.91 Z" fill="#000000" fill-rule="nonzero" fill-opacity="1" /><path clip-path="url(#clip390)" d="M1975.22 1517.37 Q1971.61 1517.37 1969.78 1520.93 Q1967.98 1524.47 1967.98 1531.6 Q1967.98 1538.71 1969.78 1542.27 Q1971.61 1545.82 1975.22 1545.82 Q1978.86 1545.82 1980.66 1542.27 Q1982.49 1538.71 1982.49 1531.6 Q1982.49 1524.47 1980.66 1520.93 Q1978.86 1517.37 1975.22 1517.37 M1975.22 1513.66 Q1981.03 1513.66 1984.09 1518.27 Q1987.17 1522.85 1987.17 1531.6 Q1987.17 1540.33 1984.09 1544.94 Q1981.03 1549.52 1975.22 1549.52 Q1969.41 1549.52 1966.33 1544.94 Q1963.28 1540.33 1963.28 1531.6 Q1963.28 1522.85 1966.33 1518.27 Q1969.41 1513.66 1975.22 1513.66 Z" fill="#000000" fill-rule="nonzero" fill-opacity="1" /><path clip-path="url(#clip390)" d="M2005.39 1517.37 Q2001.77 1517.37 1999.95 1520.93 Q1998.14 1524.47 1998.14 1531.6 Q1998.14 1538.71 1999.95 1542.27 Q2001.77 1545.82 2005.39 1545.82 Q2009.02 1545.82 2010.83 1542.27 Q2012.65 1538.71 2012.65 1531.6 Q2012.65 1524.47 2010.83 1520.93 Q2009.02 1517.37 2005.39 1517.37 M2005.39 1513.66 Q2011.2 1513.66 2014.25 1518.27 Q2017.33 1522.85 2017.33 1531.6 Q2017.33 1540.33 2014.25 1544.94 Q2011.2 1549.52 2005.39 1549.52 Q1999.58 1549.52 1996.5 1544.94 Q1993.44 1540.33 1993.44 1531.6 Q1993.44 1522.85 1996.5 1518.27 Q1999.58 1513.66 2005.39 1513.66 Z" fill="#000000" fill-rule="nonzero" fill-opacity="1" /><path clip-path="url(#clip390)" d="M2035.55 1517.37 Q2031.94 1517.37 2030.11 1520.93 Q2028.3 1524.47 2028.3 1531.6 Q2028.3 1538.71 2030.11 1542.27 Q2031.94 1545.82 2035.55 1545.82 Q2039.18 1545.82 2040.99 1542.27 Q2042.82 1538.71 2042.82 1531.6 Q2042.82 1524.47 2040.99 1520.93 Q2039.18 1517.37 2035.55 1517.37 M2035.55 1513.66 Q2041.36 1513.66 2044.41 1518.27 Q2047.49 1522.85 2047.49 1531.6 Q2047.49 1540.33 2044.41 1544.94 Q2041.36 1549.52 2035.55 1549.52 Q2029.74 1549.52 2026.66 1544.94 Q2023.6 1540.33 2023.6 1531.6 Q2023.6 1522.85 2026.66 1518.27 Q2029.74 1513.66 2035.55 1513.66 Z" fill="#000000" fill-rule="nonzero" fill-opacity="1" /><polyline clip-path="url(#clip390)" style="stroke:#000000; stroke-linecap:round; stroke-linejoin:round; stroke-width:4; stroke-opacity:1; fill:none" points="201.019,1486.45 201.019,47.2441 "/>
<polyline clip-path="url(#clip390)" style="stroke:#000000; stroke-linecap:round; stroke-linejoin:round; stroke-width:4; stroke-opacity:1; fill:none" points="201.019,1261.39 219.917,1261.39 "/>
<polyline clip-path="url(#clip390)" style="stroke:#000000; stroke-linecap:round; stroke-linejoin:round; stroke-width:4; stroke-opacity:1; fill:none" points="201.019,982.975 219.917,982.975 "/>
<polyline clip-path="url(#clip390)" style="stroke:#000000; stroke-linecap:round; stroke-linejoin:round; stroke-width:4; stroke-opacity:1; fill:none" points="201.019,704.561 219.917,704.561 "/>
<polyline clip-path="url(#clip390)" style="stroke:#000000; stroke-linecap:round; stroke-linejoin:round; stroke-width:4; stroke-opacity:1; fill:none" points="201.019,426.147 219.917,426.147 "/>
<polyline clip-path="url(#clip390)" style="stroke:#000000; stroke-linecap:round; stroke-linejoin:round; stroke-width:4; stroke-opacity:1; fill:none" points="201.019,147.734 219.917,147.734 "/>
<path clip-path="url(#clip390)" d="M53.3995 1274.73 L61.0384 1274.73 L61.0384 1248.37 L52.7282 1250.03 L52.7282 1245.77 L60.9921 1244.11 L65.668 1244.11 L65.668 1274.73 L73.3068 1274.73 L73.3068 1278.67 L53.3995 1278.67 L53.3995 1274.73 Z" fill="#000000" fill-rule="nonzero" fill-opacity="1" /><path clip-path="url(#clip390)" d="M92.7512 1247.19 Q89.1401 1247.19 87.3114 1250.75 Q85.5058 1254.29 85.5058 1261.42 Q85.5058 1268.53 87.3114 1272.09 Q89.1401 1275.64 92.7512 1275.64 Q96.3854 1275.64 98.1909 1272.09 Q100.02 1268.53 100.02 1261.42 Q100.02 1254.29 98.1909 1250.75 Q96.3854 1247.19 92.7512 1247.19 M92.7512 1243.48 Q98.5613 1243.48 101.617 1248.09 Q104.696 1252.67 104.696 1261.42 Q104.696 1270.15 101.617 1274.76 Q98.5613 1279.34 92.7512 1279.34 Q86.941 1279.34 83.8623 1274.76 Q80.8068 1270.15 80.8068 1261.42 Q80.8068 1252.67 83.8623 1248.09 Q86.941 1243.48 92.7512 1243.48 Z" fill="#000000" fill-rule="nonzero" fill-opacity="1" /><path clip-path="url(#clip390)" d="M122.913 1247.19 Q119.302 1247.19 117.473 1250.75 Q115.668 1254.29 115.668 1261.42 Q115.668 1268.53 117.473 1272.09 Q119.302 1275.64 122.913 1275.64 Q126.547 1275.64 128.353 1272.09 Q130.182 1268.53 130.182 1261.42 Q130.182 1254.29 128.353 1250.75 Q126.547 1247.19 122.913 1247.19 M122.913 1243.48 Q128.723 1243.48 131.779 1248.09 Q134.857 1252.67 134.857 1261.42 Q134.857 1270.15 131.779 1274.76 Q128.723 1279.34 122.913 1279.34 Q117.103 1279.34 114.024 1274.76 Q110.969 1270.15 110.969 1261.42 Q110.969 1252.67 114.024 1248.09 Q117.103 1243.48 122.913 1243.48 Z" fill="#000000" fill-rule="nonzero" fill-opacity="1" /><path clip-path="url(#clip390)" d="M153.075 1247.19 Q149.464 1247.19 147.635 1250.75 Q145.83 1254.29 145.83 1261.42 Q145.83 1268.53 147.635 1272.09 Q149.464 1275.64 153.075 1275.64 Q156.709 1275.64 158.515 1272.09 Q160.343 1268.53 160.343 1261.42 Q160.343 1254.29 158.515 1250.75 Q156.709 1247.19 153.075 1247.19 M153.075 1243.48 Q158.885 1243.48 161.941 1248.09 Q165.019 1252.67 165.019 1261.42 Q165.019 1270.15 161.941 1274.76 Q158.885 1279.34 153.075 1279.34 Q147.265 1279.34 144.186 1274.76 Q141.131 1270.15 141.131 1261.42 Q141.131 1252.67 144.186 1248.09 Q147.265 1243.48 153.075 1243.48 Z" fill="#000000" fill-rule="nonzero" fill-opacity="1" /><path clip-path="url(#clip390)" d="M53.3995 996.319 L61.0384 996.319 L61.0384 969.954 L52.7282 971.62 L52.7282 967.361 L60.9921 965.695 L65.668 965.695 L65.668 996.319 L73.3068 996.319 L73.3068 1000.25 L53.3995 1000.25 L53.3995 996.319 Z" fill="#000000" fill-rule="nonzero" fill-opacity="1" /><path clip-path="url(#clip390)" d="M82.7975 965.695 L101.154 965.695 L101.154 969.63 L87.0799 969.63 L87.0799 978.102 Q88.0984 977.755 89.1169 977.593 Q90.1354 977.407 91.1539 977.407 Q96.941 977.407 100.321 980.579 Q103.7 983.75 103.7 989.167 Q103.7 994.745 100.228 997.847 Q96.7558 1000.93 90.4364 1000.93 Q88.2604 1000.93 85.9919 1000.56 Q83.7466 1000.19 81.3392 999.444 L81.3392 994.745 Q83.4225 995.88 85.6447 996.435 Q87.8669 996.991 90.3438 996.991 Q94.3484 996.991 96.6863 994.884 Q99.0243 992.778 99.0243 989.167 Q99.0243 985.556 96.6863 983.449 Q94.3484 981.343 90.3438 981.343 Q88.4688 981.343 86.5938 981.759 Q84.7419 982.176 82.7975 983.056 L82.7975 965.695 Z" fill="#000000" fill-rule="nonzero" fill-opacity="1" /><path clip-path="url(#clip390)" d="M122.913 968.773 Q119.302 968.773 117.473 972.338 Q115.668 975.88 115.668 983.009 Q115.668 990.116 117.473 993.681 Q119.302 997.222 122.913 997.222 Q126.547 997.222 128.353 993.681 Q130.182 990.116 130.182 983.009 Q130.182 975.88 128.353 972.338 Q126.547 968.773 122.913 968.773 M122.913 965.07 Q128.723 965.07 131.779 969.676 Q134.857 974.259 134.857 983.009 Q134.857 991.736 131.779 996.343 Q128.723 1000.93 122.913 1000.93 Q117.103 1000.93 114.024 996.343 Q110.969 991.736 110.969 983.009 Q110.969 974.259 114.024 969.676 Q117.103 965.07 122.913 965.07 Z" fill="#000000" fill-rule="nonzero" fill-opacity="1" /><path clip-path="url(#clip390)" d="M153.075 968.773 Q149.464 968.773 147.635 972.338 Q145.83 975.88 145.83 983.009 Q145.83 990.116 147.635 993.681 Q149.464 997.222 153.075 997.222 Q156.709 997.222 158.515 993.681 Q160.343 990.116 160.343 983.009 Q160.343 975.88 158.515 972.338 Q156.709 968.773 153.075 968.773 M153.075 965.07 Q158.885 965.07 161.941 969.676 Q165.019 974.259 165.019 983.009 Q165.019 991.736 161.941 996.343 Q158.885 1000.93 153.075 1000.93 Q147.265 1000.93 144.186 996.343 Q141.131 991.736 141.131 983.009 Q141.131 974.259 144.186 969.676 Q147.265 965.07 153.075 965.07 Z" fill="#000000" fill-rule="nonzero" fill-opacity="1" /><path clip-path="url(#clip390)" d="M56.6171 717.906 L72.9365 717.906 L72.9365 721.841 L50.9921 721.841 L50.9921 717.906 Q53.6541 715.151 58.2375 710.522 Q62.8439 705.869 64.0245 704.526 Q66.2698 702.003 67.1494 700.267 Q68.0522 698.508 68.0522 696.818 Q68.0522 694.063 66.1078 692.327 Q64.1865 690.591 61.0847 690.591 Q58.8856 690.591 56.4319 691.355 Q54.0014 692.119 51.2236 693.67 L51.2236 688.948 Q54.0477 687.813 56.5014 687.235 Q58.955 686.656 60.9921 686.656 Q66.3624 686.656 69.5568 689.341 Q72.7513 692.026 72.7513 696.517 Q72.7513 698.647 71.9411 700.568 Q71.1541 702.466 69.0476 705.059 Q68.4689 705.73 65.367 708.948 Q62.2652 712.142 56.6171 717.906 Z" fill="#000000" fill-rule="nonzero" fill-opacity="1" /><path clip-path="url(#clip390)" d="M92.7512 690.36 Q89.1401 690.36 87.3114 693.924 Q85.5058 697.466 85.5058 704.596 Q85.5058 711.702 87.3114 715.267 Q89.1401 718.809 92.7512 718.809 Q96.3854 718.809 98.1909 715.267 Q100.02 711.702 100.02 704.596 Q100.02 697.466 98.1909 693.924 Q96.3854 690.36 92.7512 690.36 M92.7512 686.656 Q98.5613 686.656 101.617 691.262 Q104.696 695.846 104.696 704.596 Q104.696 713.323 101.617 717.929 Q98.5613 722.512 92.7512 722.512 Q86.941 722.512 83.8623 717.929 Q80.8068 713.323 80.8068 704.596 Q80.8068 695.846 83.8623 691.262 Q86.941 686.656 92.7512 686.656 Z" fill="#000000" fill-rule="nonzero" fill-opacity="1" /><path clip-path="url(#clip390)" d="M122.913 690.36 Q119.302 690.36 117.473 693.924 Q115.668 697.466 115.668 704.596 Q115.668 711.702 117.473 715.267 Q119.302 718.809 122.913 718.809 Q126.547 718.809 128.353 715.267 Q130.182 711.702 130.182 704.596 Q130.182 697.466 128.353 693.924 Q126.547 690.36 122.913 690.36 M122.913 686.656 Q128.723 686.656 131.779 691.262 Q134.857 695.846 134.857 704.596 Q134.857 713.323 131.779 717.929 Q128.723 722.512 122.913 722.512 Q117.103 722.512 114.024 717.929 Q110.969 713.323 110.969 704.596 Q110.969 695.846 114.024 691.262 Q117.103 686.656 122.913 686.656 Z" fill="#000000" fill-rule="nonzero" fill-opacity="1" /><path clip-path="url(#clip390)" d="M153.075 690.36 Q149.464 690.36 147.635 693.924 Q145.83 697.466 145.83 704.596 Q145.83 711.702 147.635 715.267 Q149.464 718.809 153.075 718.809 Q156.709 718.809 158.515 715.267 Q160.343 711.702 160.343 704.596 Q160.343 697.466 158.515 693.924 Q156.709 690.36 153.075 690.36 M153.075 686.656 Q158.885 686.656 161.941 691.262 Q165.019 695.846 165.019 704.596 Q165.019 713.323 161.941 717.929 Q158.885 722.512 153.075 722.512 Q147.265 722.512 144.186 717.929 Q141.131 713.323 141.131 704.596 Q141.131 695.846 144.186 691.262 Q147.265 686.656 153.075 686.656 Z" fill="#000000" fill-rule="nonzero" fill-opacity="1" /><path clip-path="url(#clip390)" d="M56.6171 439.492 L72.9365 439.492 L72.9365 443.427 L50.9921 443.427 L50.9921 439.492 Q53.6541 436.738 58.2375 432.108 Q62.8439 427.455 64.0245 426.113 Q66.2698 423.59 67.1494 421.853 Q68.0522 420.094 68.0522 418.404 Q68.0522 415.65 66.1078 413.914 Q64.1865 412.178 61.0847 412.178 Q58.8856 412.178 56.4319 412.941 Q54.0014 413.705 51.2236 415.256 L51.2236 410.534 Q54.0477 409.4 56.5014 408.821 Q58.955 408.242 60.9921 408.242 Q66.3624 408.242 69.5568 410.928 Q72.7513 413.613 72.7513 418.103 Q72.7513 420.233 71.9411 422.154 Q71.1541 424.052 69.0476 426.645 Q68.4689 427.316 65.367 430.534 Q62.2652 433.728 56.6171 439.492 Z" fill="#000000" fill-rule="nonzero" fill-opacity="1" /><path clip-path="url(#clip390)" d="M82.7975 408.867 L101.154 408.867 L101.154 412.803 L87.0799 412.803 L87.0799 421.275 Q88.0984 420.928 89.1169 420.765 Q90.1354 420.58 91.1539 420.58 Q96.941 420.58 100.321 423.752 Q103.7 426.923 103.7 432.339 Q103.7 437.918 100.228 441.02 Q96.7558 444.099 90.4364 444.099 Q88.2604 444.099 85.9919 443.728 Q83.7466 443.358 81.3392 442.617 L81.3392 437.918 Q83.4225 439.052 85.6447 439.608 Q87.8669 440.164 90.3438 440.164 Q94.3484 440.164 96.6863 438.057 Q99.0243 435.951 99.0243 432.339 Q99.0243 428.728 96.6863 426.622 Q94.3484 424.515 90.3438 424.515 Q88.4688 424.515 86.5938 424.932 Q84.7419 425.349 82.7975 426.228 L82.7975 408.867 Z" fill="#000000" fill-rule="nonzero" fill-opacity="1" /><path clip-path="url(#clip390)" d="M122.913 411.946 Q119.302 411.946 117.473 415.511 Q115.668 419.053 115.668 426.182 Q115.668 433.289 117.473 436.853 Q119.302 440.395 122.913 440.395 Q126.547 440.395 128.353 436.853 Q130.182 433.289 130.182 426.182 Q130.182 419.053 128.353 415.511 Q126.547 411.946 122.913 411.946 M122.913 408.242 Q128.723 408.242 131.779 412.849 Q134.857 417.432 134.857 426.182 Q134.857 434.909 131.779 439.515 Q128.723 444.099 122.913 444.099 Q117.103 444.099 114.024 439.515 Q110.969 434.909 110.969 426.182 Q110.969 417.432 114.024 412.849 Q117.103 408.242 122.913 408.242 Z" fill="#000000" fill-rule="nonzero" fill-opacity="1" /><path clip-path="url(#clip390)" d="M153.075 411.946 Q149.464 411.946 147.635 415.511 Q145.83 419.053 145.83 426.182 Q145.83 433.289 147.635 436.853 Q149.464 440.395 153.075 440.395 Q156.709 440.395 158.515 436.853 Q160.343 433.289 160.343 426.182 Q160.343 419.053 158.515 415.511 Q156.709 411.946 153.075 411.946 M153.075 408.242 Q158.885 408.242 161.941 412.849 Q165.019 417.432 165.019 426.182 Q165.019 434.909 161.941 439.515 Q158.885 444.099 153.075 444.099 Q147.265 444.099 144.186 439.515 Q141.131 434.909 141.131 426.182 Q141.131 417.432 144.186 412.849 Q147.265 408.242 153.075 408.242 Z" fill="#000000" fill-rule="nonzero" fill-opacity="1" /><path clip-path="url(#clip390)" d="M66.7559 146.38 Q70.1124 147.097 71.9874 149.366 Q73.8855 151.634 73.8855 154.968 Q73.8855 160.083 70.367 162.884 Q66.8485 165.685 60.3671 165.685 Q58.1912 165.685 55.8764 165.245 Q53.5847 164.829 51.131 163.972 L51.131 159.458 Q53.0754 160.593 55.3903 161.171 Q57.7051 161.75 60.2282 161.75 Q64.6263 161.75 66.918 160.014 Q69.2328 158.278 69.2328 154.968 Q69.2328 151.912 67.08 150.199 Q64.9504 148.463 61.131 148.463 L57.1032 148.463 L57.1032 144.62 L61.3161 144.62 Q64.7652 144.62 66.5939 143.255 Q68.4226 141.866 68.4226 139.273 Q68.4226 136.611 66.5245 135.199 Q64.6495 133.764 61.131 133.764 Q59.2097 133.764 57.0106 134.181 Q54.8115 134.597 52.1727 135.477 L52.1727 131.31 Q54.8347 130.57 57.1495 130.199 Q59.4875 129.829 61.5476 129.829 Q66.8717 129.829 69.9735 132.259 Q73.0753 134.667 73.0753 138.787 Q73.0753 141.657 71.4318 143.648 Q69.7883 145.616 66.7559 146.38 Z" fill="#000000" fill-rule="nonzero" fill-opacity="1" /><path clip-path="url(#clip390)" d="M92.7512 133.532 Q89.1401 133.532 87.3114 137.097 Q85.5058 140.639 85.5058 147.769 Q85.5058 154.875 87.3114 158.44 Q89.1401 161.981 92.7512 161.981 Q96.3854 161.981 98.1909 158.44 Q100.02 154.875 100.02 147.769 Q100.02 140.639 98.1909 137.097 Q96.3854 133.532 92.7512 133.532 M92.7512 129.829 Q98.5613 129.829 101.617 134.435 Q104.696 139.019 104.696 147.769 Q104.696 156.495 101.617 161.102 Q98.5613 165.685 92.7512 165.685 Q86.941 165.685 83.8623 161.102 Q80.8068 156.495 80.8068 147.769 Q80.8068 139.019 83.8623 134.435 Q86.941 129.829 92.7512 129.829 Z" fill="#000000" fill-rule="nonzero" fill-opacity="1" /><path clip-path="url(#clip390)" d="M122.913 133.532 Q119.302 133.532 117.473 137.097 Q115.668 140.639 115.668 147.769 Q115.668 154.875 117.473 158.44 Q119.302 161.981 122.913 161.981 Q126.547 161.981 128.353 158.44 Q130.182 154.875 130.182 147.769 Q130.182 140.639 128.353 137.097 Q126.547 133.532 122.913 133.532 M122.913 129.829 Q128.723 129.829 131.779 134.435 Q134.857 139.019 134.857 147.769 Q134.857 156.495 131.779 161.102 Q128.723 165.685 122.913 165.685 Q117.103 165.685 114.024 161.102 Q110.969 156.495 110.969 147.769 Q110.969 139.019 114.024 134.435 Q117.103 129.829 122.913 129.829 Z" fill="#000000" fill-rule="nonzero" fill-opacity="1" /><path clip-path="url(#clip390)" d="M153.075 133.532 Q149.464 133.532 147.635 137.097 Q145.83 140.639 145.83 147.769 Q145.83 154.875 147.635 158.44 Q149.464 161.981 153.075 161.981 Q156.709 161.981 158.515 158.44 Q160.343 154.875 160.343 147.769 Q160.343 140.639 158.515 137.097 Q156.709 133.532 153.075 133.532 M153.075 129.829 Q158.885 129.829 161.941 134.435 Q165.019 139.019 165.019 147.769 Q165.019 156.495 161.941 161.102 Q158.885 165.685 153.075 165.685 Q147.265 165.685 144.186 161.102 Q141.131 156.495 141.131 147.769 Q141.131 139.019 144.186 134.435 Q147.265 129.829 153.075 129.829 Z" fill="#000000" fill-rule="nonzero" fill-opacity="1" /><polyline clip-path="url(#clip392)" style="stroke:#009af9; stroke-linecap:round; stroke-linejoin:round; stroke-width:4; stroke-opacity:1; fill:none" points="625.37,87.9763 338.77,276.825 279.844,461.344 261.917,1054.99 410.835,1329.8 597.843,1445.72 1755.9,1103.11 2291.86,935.945 2200.61,787.002 625.37,87.9763 "/>
<path clip-path="url(#clip390)" d="M1775.74 198.898 L2281.03 198.898 L2281.03 95.2176 L1775.74 95.2176  Z" fill="#ffffff" fill-rule="evenodd" fill-opacity="1"/>
<polyline clip-path="url(#clip390)" style="stroke:#000000; stroke-linecap:round; stroke-linejoin:round; stroke-width:4; stroke-opacity:1; fill:none" points="1775.74,198.898 2281.03,198.898 2281.03,95.2176 1775.74,95.2176 1775.74,198.898 "/>
<polyline clip-path="url(#clip390)" style="stroke:#009af9; stroke-linecap:round; stroke-linejoin:round; stroke-width:4; stroke-opacity:1; fill:none" points="1799.65,147.058 1943.1,147.058 "/>
<path clip-path="url(#clip390)" d="M1980.2 164.338 L1967.01 129.778 L1971.89 129.778 L1982.84 158.875 L1993.81 129.778 L1998.68 129.778 L1985.5 164.338 L1980.2 164.338 Z" fill="#000000" fill-rule="nonzero" fill-opacity="1" /><path clip-path="url(#clip390)" d="M2009.9 141.398 Q2006.48 141.398 2004.49 144.083 Q2002.49 146.745 2002.49 151.398 Q2002.49 156.051 2004.46 158.736 Q2006.45 161.398 2009.9 161.398 Q2013.31 161.398 2015.3 158.713 Q2017.29 156.027 2017.29 151.398 Q2017.29 146.791 2015.3 144.106 Q2013.31 141.398 2009.9 141.398 M2009.9 137.787 Q2015.46 137.787 2018.63 141.398 Q2021.8 145.009 2021.8 151.398 Q2021.8 157.764 2018.63 161.398 Q2015.46 165.009 2009.9 165.009 Q2004.32 165.009 2001.15 161.398 Q1998 157.764 1998 151.398 Q1998 145.009 2001.15 141.398 Q2004.32 137.787 2009.9 137.787 Z" fill="#000000" fill-rule="nonzero" fill-opacity="1" /><path clip-path="url(#clip390)" d="M2026.38 138.412 L2030.64 138.412 L2035.97 158.643 L2041.27 138.412 L2046.29 138.412 L2051.62 158.643 L2056.92 138.412 L2061.18 138.412 L2054.39 164.338 L2049.37 164.338 L2043.79 143.088 L2038.19 164.338 L2033.17 164.338 L2026.38 138.412 Z" fill="#000000" fill-rule="nonzero" fill-opacity="1" /><path clip-path="url(#clip390)" d="M2089.81 150.31 L2089.81 152.393 L2070.23 152.393 Q2070.5 156.791 2072.86 159.106 Q2075.25 161.398 2079.49 161.398 Q2081.94 161.398 2084.23 160.796 Q2086.55 160.194 2088.81 158.99 L2088.81 163.018 Q2086.52 163.99 2084.11 164.5 Q2081.71 165.009 2079.23 165.009 Q2073.03 165.009 2069.39 161.398 Q2065.78 157.787 2065.78 151.629 Q2065.78 145.264 2069.21 141.537 Q2072.66 137.787 2078.49 137.787 Q2083.72 137.787 2086.75 141.166 Q2089.81 144.523 2089.81 150.31 M2085.55 149.06 Q2085.5 145.565 2083.58 143.481 Q2081.68 141.398 2078.54 141.398 Q2074.97 141.398 2072.82 143.412 Q2070.69 145.426 2070.36 149.083 L2085.55 149.06 Z" fill="#000000" fill-rule="nonzero" fill-opacity="1" /><path clip-path="url(#clip390)" d="M2096.8 128.319 L2101.06 128.319 L2101.06 164.338 L2096.8 164.338 L2096.8 128.319 Z" fill="#000000" fill-rule="nonzero" fill-opacity="1" /><path clip-path="url(#clip390)" d="M2141.57 139.176 L2141.57 143.203 Q2139.76 142.277 2137.82 141.815 Q2135.87 141.352 2133.79 141.352 Q2130.62 141.352 2129.02 142.324 Q2127.45 143.296 2127.45 145.24 Q2127.45 146.722 2128.58 147.578 Q2129.72 148.412 2133.14 149.176 L2134.6 149.5 Q2139.14 150.472 2141.04 152.254 Q2142.96 154.014 2142.96 157.185 Q2142.96 160.796 2140.09 162.902 Q2137.24 165.009 2132.24 165.009 Q2130.16 165.009 2127.89 164.592 Q2125.64 164.199 2123.14 163.388 L2123.14 158.99 Q2125.5 160.217 2127.8 160.842 Q2130.09 161.444 2132.33 161.444 Q2135.34 161.444 2136.96 160.426 Q2138.58 159.384 2138.58 157.509 Q2138.58 155.773 2137.4 154.847 Q2136.24 153.921 2132.29 153.064 L2130.8 152.717 Q2126.85 151.884 2125.09 150.171 Q2123.33 148.435 2123.33 145.426 Q2123.33 141.768 2125.92 139.778 Q2128.51 137.787 2133.28 137.787 Q2135.64 137.787 2137.73 138.134 Q2139.81 138.481 2141.57 139.176 Z" fill="#000000" fill-rule="nonzero" fill-opacity="1" /><path clip-path="url(#clip390)" d="M2153.86 160.449 L2153.86 174.199 L2149.58 174.199 L2149.58 138.412 L2153.86 138.412 L2153.86 142.347 Q2155.2 140.032 2157.24 138.921 Q2159.3 137.787 2162.15 137.787 Q2166.87 137.787 2169.81 141.537 Q2172.77 145.287 2172.77 151.398 Q2172.77 157.509 2169.81 161.259 Q2166.87 165.009 2162.15 165.009 Q2159.3 165.009 2157.24 163.898 Q2155.2 162.763 2153.86 160.449 M2168.35 151.398 Q2168.35 146.699 2166.41 144.037 Q2164.48 141.352 2161.11 141.352 Q2157.73 141.352 2155.78 144.037 Q2153.86 146.699 2153.86 151.398 Q2153.86 156.097 2155.78 158.782 Q2157.73 161.444 2161.11 161.444 Q2164.48 161.444 2166.41 158.782 Q2168.35 156.097 2168.35 151.398 Z" fill="#000000" fill-rule="nonzero" fill-opacity="1" /><path clip-path="url(#clip390)" d="M2191.61 151.305 Q2186.45 151.305 2184.46 152.486 Q2182.47 153.666 2182.47 156.514 Q2182.47 158.782 2183.95 160.125 Q2185.46 161.444 2188.03 161.444 Q2191.57 161.444 2193.7 158.944 Q2195.85 156.421 2195.85 152.254 L2195.85 151.305 L2191.61 151.305 M2200.11 149.546 L2200.11 164.338 L2195.85 164.338 L2195.85 160.402 Q2194.39 162.763 2192.22 163.898 Q2190.04 165.009 2186.89 165.009 Q2182.91 165.009 2180.55 162.787 Q2178.21 160.541 2178.21 156.791 Q2178.21 152.416 2181.13 150.194 Q2184.07 147.972 2189.88 147.972 L2195.85 147.972 L2195.85 147.555 Q2195.85 144.615 2193.91 143.018 Q2191.98 141.398 2188.49 141.398 Q2186.27 141.398 2184.16 141.93 Q2182.05 142.463 2180.11 143.527 L2180.11 139.592 Q2182.45 138.69 2184.65 138.25 Q2186.85 137.787 2188.93 137.787 Q2194.55 137.787 2197.33 140.703 Q2200.11 143.62 2200.11 149.546 Z" fill="#000000" fill-rule="nonzero" fill-opacity="1" /><path clip-path="url(#clip390)" d="M2227.54 139.407 L2227.54 143.389 Q2225.73 142.393 2223.91 141.907 Q2222.1 141.398 2220.25 141.398 Q2216.1 141.398 2213.81 144.037 Q2211.52 146.652 2211.52 151.398 Q2211.52 156.143 2213.81 158.782 Q2216.1 161.398 2220.25 161.398 Q2222.1 161.398 2223.91 160.912 Q2225.73 160.402 2227.54 159.407 L2227.54 163.342 Q2225.76 164.176 2223.84 164.592 Q2221.94 165.009 2219.79 165.009 Q2213.93 165.009 2210.48 161.328 Q2207.03 157.648 2207.03 151.398 Q2207.03 145.055 2210.5 141.421 Q2214 137.787 2220.06 137.787 Q2222.03 137.787 2223.91 138.203 Q2225.78 138.597 2227.54 139.407 Z" fill="#000000" fill-rule="nonzero" fill-opacity="1" /><path clip-path="url(#clip390)" d="M2257.12 150.31 L2257.12 152.393 L2237.54 152.393 Q2237.82 156.791 2240.18 159.106 Q2242.56 161.398 2246.8 161.398 Q2249.25 161.398 2251.54 160.796 Q2253.86 160.194 2256.13 158.99 L2256.13 163.018 Q2253.84 163.99 2251.43 164.5 Q2249.02 165.009 2246.54 165.009 Q2240.34 165.009 2236.71 161.398 Q2233.1 157.787 2233.1 151.629 Q2233.1 145.264 2236.52 141.537 Q2239.97 137.787 2245.8 137.787 Q2251.04 137.787 2254.07 141.166 Q2257.12 144.523 2257.12 150.31 M2252.86 149.06 Q2252.82 145.565 2250.9 143.481 Q2249 141.398 2245.85 141.398 Q2242.29 141.398 2240.13 143.412 Q2238 145.426 2237.68 149.083 L2252.86 149.06 Z" fill="#000000" fill-rule="nonzero" fill-opacity="1" /></svg>
