<?xml version="1.0" encoding="utf-8"?>
<svg xmlns="http://www.w3.org/2000/svg" xmlns:xlink="http://www.w3.org/1999/xlink" width="600" height="400" viewBox="0 0 2400 1600">
<defs>
  <clipPath id="clip420">
    <rect x="0" y="0" width="2400" height="1600"/>
  </clipPath>
</defs>
<path clip-path="url(#clip420)" d="M0 1600 L2400 1600 L2400 0 L0 0  Z" fill="#ffffff" fill-rule="evenodd" fill-opacity="1"/>
<defs>
  <clipPath id="clip421">
    <rect x="480" y="0" width="1681" height="1600"/>
  </clipPath>
</defs>
<path clip-path="url(#clip420)" d="M264.287 1423.18 L2352.76 1423.18 L2352.76 47.2441 L264.287 47.2441  Z" fill="#ffffff" fill-rule="evenodd" fill-opacity="1"/>
<defs>
  <clipPath id="clip422">
    <rect x="264" y="47" width="2089" height="1377"/>
  </clipPath>
</defs>
<polyline clip-path="url(#clip422)" style="stroke:#000000; stroke-linecap:round; stroke-linejoin:round; stroke-width:2; stroke-opacity:0.1; fill:none" points="455.635,1423.18 455.635,47.2441 "/>
<polyline clip-path="url(#clip422)" style="stroke:#000000; stroke-linecap:round; stroke-linejoin:round; stroke-width:2; stroke-opacity:0.1; fill:none" points="971.081,1423.18 971.081,47.2441 "/>
<polyline clip-path="url(#clip422)" style="stroke:#000000; stroke-linecap:round; stroke-linejoin:round; stroke-width:2; stroke-opacity:0.1; fill:none" points="1486.53,1423.18 1486.53,47.2441 "/>
<polyline clip-path="url(#clip422)" style="stroke:#000000; stroke-linecap:round; stroke-linejoin:round; stroke-width:2; stroke-opacity:0.1; fill:none" points="2001.97,1423.18 2001.97,47.2441 "/>
<polyline clip-path="url(#clip422)" style="stroke:#000000; stroke-linecap:round; stroke-linejoin:round; stroke-width:2; stroke-opacity:0.1; fill:none" points="264.287,1208.01 2352.76,1208.01 "/>
<polyline clip-path="url(#clip422)" style="stroke:#000000; stroke-linecap:round; stroke-linejoin:round; stroke-width:2; stroke-opacity:0.1; fill:none" points="264.287,941.839 2352.76,941.839 "/>
<polyline clip-path="url(#clip422)" style="stroke:#000000; stroke-linecap:round; stroke-linejoin:round; stroke-width:2; stroke-opacity:0.1; fill:none" points="264.287,675.665 2352.76,675.665 "/>
<polyline clip-path="url(#clip422)" style="stroke:#000000; stroke-linecap:round; stroke-linejoin:round; stroke-width:2; stroke-opacity:0.1; fill:none" points="264.287,409.491 2352.76,409.491 "/>
<polyline clip-path="url(#clip422)" style="stroke:#000000; stroke-linecap:round; stroke-linejoin:round; stroke-width:2; stroke-opacity:0.1; fill:none" points="264.287,143.316 2352.76,143.316 "/>
<polyline clip-path="url(#clip420)" style="stroke:#000000; stroke-linecap:round; stroke-linejoin:round; stroke-width:4; stroke-opacity:1; fill:none" points="264.287,1423.18 2352.76,1423.18 "/>
<polyline clip-path="url(#clip420)" style="stroke:#000000; stroke-linecap:round; stroke-linejoin:round; stroke-width:4; stroke-opacity:1; fill:none" points="455.635,1423.18 455.635,1404.28 "/>
<polyline clip-path="url(#clip420)" style="stroke:#000000; stroke-linecap:round; stroke-linejoin:round; stroke-width:4; stroke-opacity:1; fill:none" points="971.081,1423.18 971.081,1404.28 "/>
<polyline clip-path="url(#clip420)" style="stroke:#000000; stroke-linecap:round; stroke-linejoin:round; stroke-width:4; stroke-opacity:1; fill:none" points="1486.53,1423.18 1486.53,1404.28 "/>
<polyline clip-path="url(#clip420)" style="stroke:#000000; stroke-linecap:round; stroke-linejoin:round; stroke-width:4; stroke-opacity:1; fill:none" points="2001.97,1423.18 2001.97,1404.28 "/>
<path clip-path="url(#clip420)" d="M428.725 1455.09 L416.92 1473.54 L428.725 1473.54 L428.725 1455.09 M427.498 1451.02 L433.378 1451.02 L433.378 1473.54 L438.309 1473.54 L438.309 1477.43 L433.378 1477.43 L433.378 1485.58 L428.725 1485.58 L428.725 1477.43 L413.124 1477.43 L413.124 1472.92 L427.498 1451.02 Z" fill="#000000" fill-rule="nonzero" fill-opacity="1" /><path clip-path="url(#clip420)" d="M456.04 1454.1 Q452.429 1454.1 450.6 1457.66 Q448.795 1461.2 448.795 1468.33 Q448.795 1475.44 450.6 1479.01 Q452.429 1482.55 456.04 1482.55 Q459.674 1482.55 461.48 1479.01 Q463.308 1475.44 463.308 1468.33 Q463.308 1461.2 461.48 1457.66 Q459.674 1454.1 456.04 1454.1 M456.04 1450.39 Q461.85 1450.39 464.906 1455 Q467.984 1459.58 467.984 1468.33 Q467.984 1477.06 464.906 1481.67 Q461.85 1486.25 456.04 1486.25 Q450.23 1486.25 447.151 1481.67 Q444.096 1477.06 444.096 1468.33 Q444.096 1459.58 447.151 1455 Q450.23 1450.39 456.04 1450.39 Z" fill="#000000" fill-rule="nonzero" fill-opacity="1" /><path clip-path="url(#clip420)" d="M486.202 1454.1 Q482.591 1454.1 480.762 1457.66 Q478.957 1461.2 478.957 1468.33 Q478.957 1475.44 480.762 1479.01 Q482.591 1482.55 486.202 1482.55 Q489.836 1482.55 491.642 1479.01 Q493.47 1475.44 493.47 1468.33 Q493.47 1461.2 491.642 1457.66 Q489.836 1454.1 486.202 1454.1 M486.202 1450.39 Q492.012 1450.39 495.068 1455 Q498.146 1459.58 498.146 1468.33 Q498.146 1477.06 495.068 1481.67 Q492.012 1486.25 486.202 1486.25 Q480.392 1486.25 477.313 1481.67 Q474.257 1477.06 474.257 1468.33 Q474.257 1459.58 477.313 1455 Q480.392 1450.39 486.202 1450.39 Z" fill="#000000" fill-rule="nonzero" fill-opacity="1" /><path clip-path="url(#clip420)" d="M941.405 1466.44 Q938.257 1466.44 936.405 1468.59 Q934.576 1470.74 934.576 1474.49 Q934.576 1478.22 936.405 1480.39 Q938.257 1482.55 941.405 1482.55 Q944.553 1482.55 946.382 1480.39 Q948.234 1478.22 948.234 1474.49 Q948.234 1470.74 946.382 1468.59 Q944.553 1466.44 941.405 1466.44 M950.687 1451.78 L950.687 1456.04 Q948.928 1455.21 947.123 1454.77 Q945.34 1454.33 943.581 1454.33 Q938.951 1454.33 936.498 1457.45 Q934.067 1460.58 933.72 1466.9 Q935.086 1464.89 937.146 1463.82 Q939.206 1462.73 941.683 1462.73 Q946.891 1462.73 949.9 1465.9 Q952.933 1469.05 952.933 1474.49 Q952.933 1479.82 949.785 1483.03 Q946.637 1486.25 941.405 1486.25 Q935.41 1486.25 932.238 1481.67 Q929.067 1477.06 929.067 1468.33 Q929.067 1460.14 932.956 1455.28 Q936.845 1450.39 943.396 1450.39 Q945.155 1450.39 946.937 1450.74 Q948.743 1451.09 950.687 1451.78 Z" fill="#000000" fill-rule="nonzero" fill-opacity="1" /><path clip-path="url(#clip420)" d="M970.988 1454.1 Q967.377 1454.1 965.548 1457.66 Q963.743 1461.2 963.743 1468.33 Q963.743 1475.44 965.548 1479.01 Q967.377 1482.55 970.988 1482.55 Q974.623 1482.55 976.428 1479.01 Q978.257 1475.44 978.257 1468.33 Q978.257 1461.2 976.428 1457.66 Q974.623 1454.1 970.988 1454.1 M970.988 1450.39 Q976.798 1450.39 979.854 1455 Q982.933 1459.58 982.933 1468.33 Q982.933 1477.06 979.854 1481.67 Q976.798 1486.25 970.988 1486.25 Q965.178 1486.25 962.099 1481.67 Q959.044 1477.06 959.044 1468.33 Q959.044 1459.58 962.099 1455 Q965.178 1450.39 970.988 1450.39 Z" fill="#000000" fill-rule="nonzero" fill-opacity="1" /><path clip-path="url(#clip420)" d="M1001.15 1454.1 Q997.539 1454.1 995.71 1457.66 Q993.905 1461.2 993.905 1468.33 Q993.905 1475.44 995.71 1479.01 Q997.539 1482.55 1001.15 1482.55 Q1004.78 1482.55 1006.59 1479.01 Q1008.42 1475.44 1008.42 1468.33 Q1008.42 1461.2 1006.59 1457.66 Q1004.78 1454.1 1001.15 1454.1 M1001.15 1450.39 Q1006.96 1450.39 1010.02 1455 Q1013.09 1459.58 1013.09 1468.33 Q1013.09 1477.06 1010.02 1481.67 Q1006.96 1486.25 1001.15 1486.25 Q995.34 1486.25 992.261 1481.67 Q989.206 1477.06 989.206 1468.33 Q989.206 1459.58 992.261 1455 Q995.34 1450.39 1001.15 1450.39 Z" fill="#000000" fill-rule="nonzero" fill-opacity="1" /><path clip-path="url(#clip420)" d="M1456.32 1469.17 Q1452.99 1469.17 1451.06 1470.95 Q1449.17 1472.73 1449.17 1475.86 Q1449.17 1478.98 1451.06 1480.77 Q1452.99 1482.55 1456.32 1482.55 Q1459.65 1482.55 1461.57 1480.77 Q1463.49 1478.96 1463.49 1475.86 Q1463.49 1472.73 1461.57 1470.95 Q1459.68 1469.17 1456.32 1469.17 M1451.64 1467.18 Q1448.63 1466.44 1446.94 1464.38 Q1445.28 1462.32 1445.28 1459.35 Q1445.28 1455.21 1448.22 1452.8 Q1451.18 1450.39 1456.32 1450.39 Q1461.48 1450.39 1464.42 1452.8 Q1467.36 1455.21 1467.36 1459.35 Q1467.36 1462.32 1465.67 1464.38 Q1464 1466.44 1461.02 1467.18 Q1464.4 1467.96 1466.27 1470.26 Q1468.17 1472.55 1468.17 1475.86 Q1468.17 1480.88 1465.09 1483.57 Q1462.04 1486.25 1456.32 1486.25 Q1450.6 1486.25 1447.52 1483.57 Q1444.47 1480.88 1444.47 1475.86 Q1444.47 1472.55 1446.37 1470.26 Q1448.26 1467.96 1451.64 1467.18 M1449.93 1459.79 Q1449.93 1462.48 1451.6 1463.98 Q1453.29 1465.49 1456.32 1465.49 Q1459.33 1465.49 1461.02 1463.98 Q1462.73 1462.48 1462.73 1459.79 Q1462.73 1457.11 1461.02 1455.6 Q1459.33 1454.1 1456.32 1454.1 Q1453.29 1454.1 1451.6 1455.6 Q1449.93 1457.11 1449.93 1459.79 Z" fill="#000000" fill-rule="nonzero" fill-opacity="1" /><path clip-path="url(#clip420)" d="M1486.48 1454.1 Q1482.87 1454.1 1481.04 1457.66 Q1479.24 1461.2 1479.24 1468.33 Q1479.24 1475.44 1481.04 1479.01 Q1482.87 1482.55 1486.48 1482.55 Q1490.11 1482.55 1491.92 1479.01 Q1493.75 1475.44 1493.75 1468.33 Q1493.75 1461.2 1491.92 1457.66 Q1490.11 1454.1 1486.48 1454.1 M1486.48 1450.39 Q1492.29 1450.39 1495.35 1455 Q1498.42 1459.58 1498.42 1468.33 Q1498.42 1477.06 1495.35 1481.67 Q1492.29 1486.25 1486.48 1486.25 Q1480.67 1486.25 1477.59 1481.67 Q1474.54 1477.06 1474.54 1468.33 Q1474.54 1459.58 1477.59 1455 Q1480.67 1450.39 1486.48 1450.39 Z" fill="#000000" fill-rule="nonzero" fill-opacity="1" /><path clip-path="url(#clip420)" d="M1516.64 1454.1 Q1513.03 1454.1 1511.2 1457.66 Q1509.4 1461.2 1509.4 1468.33 Q1509.4 1475.44 1511.2 1479.01 Q1513.03 1482.55 1516.64 1482.55 Q1520.28 1482.55 1522.08 1479.01 Q1523.91 1475.44 1523.91 1468.33 Q1523.91 1461.2 1522.08 1457.66 Q1520.28 1454.1 1516.64 1454.1 M1516.64 1450.39 Q1522.45 1450.39 1525.51 1455 Q1528.59 1459.58 1528.59 1468.33 Q1528.59 1477.06 1525.51 1481.67 Q1522.45 1486.25 1516.64 1486.25 Q1510.83 1486.25 1507.75 1481.67 Q1504.7 1477.06 1504.7 1468.33 Q1504.7 1459.58 1507.75 1455 Q1510.83 1450.39 1516.64 1450.39 Z" fill="#000000" fill-rule="nonzero" fill-opacity="1" /><path clip-path="url(#clip420)" d="M1946.5 1481.64 L1954.14 1481.64 L1954.14 1455.28 L1945.83 1456.95 L1945.83 1452.69 L1954.09 1451.02 L1958.77 1451.02 L1958.77 1481.64 L1966.41 1481.64 L1966.41 1485.58 L1946.5 1485.58 L1946.5 1481.64 Z" fill="#000000" fill-rule="nonzero" fill-opacity="1" /><path clip-path="url(#clip420)" d="M1985.85 1454.1 Q1982.24 1454.1 1980.41 1457.66 Q1978.6 1461.2 1978.6 1468.33 Q1978.6 1475.44 1980.41 1479.01 Q1982.24 1482.55 1985.85 1482.55 Q1989.48 1482.55 1991.29 1479.01 Q1993.12 1475.44 1993.12 1468.33 Q1993.12 1461.2 1991.29 1457.66 Q1989.48 1454.1 1985.85 1454.1 M1985.85 1450.39 Q1991.66 1450.39 1994.72 1455 Q1997.79 1459.58 1997.79 1468.33 Q1997.79 1477.06 1994.72 1481.67 Q1991.66 1486.25 1985.85 1486.25 Q1980.04 1486.25 1976.96 1481.67 Q1973.91 1477.06 1973.91 1468.33 Q1973.91 1459.58 1976.96 1455 Q1980.04 1450.39 1985.85 1450.39 Z" fill="#000000" fill-rule="nonzero" fill-opacity="1" /><path clip-path="url(#clip420)" d="M2016.01 1454.1 Q2012.4 1454.1 2010.57 1457.66 Q2008.77 1461.2 2008.77 1468.33 Q2008.77 1475.44 2010.57 1479.01 Q2012.4 1482.55 2016.01 1482.55 Q2019.65 1482.55 2021.45 1479.01 Q2023.28 1475.44 2023.28 1468.33 Q2023.28 1461.2 2021.45 1457.66 Q2019.65 1454.1 2016.01 1454.1 M2016.01 1450.39 Q2021.82 1450.39 2024.88 1455 Q2027.96 1459.58 2027.96 1468.33 Q2027.96 1477.06 2024.88 1481.67 Q2021.82 1486.25 2016.01 1486.25 Q2010.2 1486.25 2007.12 1481.67 Q2004.07 1477.06 2004.07 1468.33 Q2004.07 1459.58 2007.12 1455 Q2010.2 1450.39 2016.01 1450.39 Z" fill="#000000" fill-rule="nonzero" fill-opacity="1" /><path clip-path="url(#clip420)" d="M2046.17 1454.1 Q2042.56 1454.1 2040.73 1457.66 Q2038.93 1461.2 2038.93 1468.33 Q2038.93 1475.44 2040.73 1479.01 Q2042.56 1482.55 2046.17 1482.55 Q2049.81 1482.55 2051.61 1479.01 Q2053.44 1475.44 2053.44 1468.33 Q2053.44 1461.2 2051.61 1457.66 Q2049.81 1454.1 2046.17 1454.1 M2046.17 1450.39 Q2051.98 1450.39 2055.04 1455 Q2058.12 1459.58 2058.12 1468.33 Q2058.12 1477.06 2055.04 1481.67 Q2051.98 1486.25 2046.17 1486.25 Q2040.36 1486.25 2037.29 1481.67 Q2034.23 1477.06 2034.23 1468.33 Q2034.23 1459.58 2037.29 1455 Q2040.36 1450.39 2046.17 1450.39 Z" fill="#000000" fill-rule="nonzero" fill-opacity="1" /><path clip-path="url(#clip420)" d="M1197.63 1520.52 L1224.94 1520.52 L1224.94 1525.93 L1204.06 1525.93 L1204.06 1539.94 L1222.9 1539.94 L1222.9 1545.35 L1204.06 1545.35 L1204.06 1568.04 L1197.63 1568.04 L1197.63 1520.52 Z" fill="#000000" fill-rule="nonzero" fill-opacity="1" /><path clip-path="url(#clip420)" d="M1236.81 1562.63 L1247.32 1562.63 L1247.32 1526.38 L1235.89 1528.67 L1235.89 1522.82 L1247.25 1520.52 L1253.68 1520.52 L1253.68 1562.63 L1264.18 1562.63 L1264.18 1568.04 L1236.81 1568.04 L1236.81 1562.63 Z" fill="#000000" fill-rule="nonzero" fill-opacity="1" /><path clip-path="url(#clip420)" d="M1311.13 1518.58 Q1306.87 1525.9 1304.8 1533.06 Q1302.73 1540.23 1302.73 1547.58 Q1302.73 1554.93 1304.8 1562.16 Q1306.9 1569.35 1311.13 1576.64 L1306.04 1576.64 Q1301.26 1569.16 1298.88 1561.93 Q1296.52 1554.71 1296.52 1547.58 Q1296.52 1540.48 1298.88 1533.29 Q1301.23 1526.09 1306.04 1518.58 L1311.13 1518.58 Z" fill="#000000" fill-rule="nonzero" fill-opacity="1" /><path clip-path="url(#clip420)" d="M1322.75 1520.52 L1329.18 1520.52 L1329.18 1540 L1352.54 1540 L1352.54 1520.52 L1358.97 1520.52 L1358.97 1568.04 L1352.54 1568.04 L1352.54 1545.41 L1329.18 1545.41 L1329.18 1568.04 L1322.75 1568.04 L1322.75 1520.52 Z" fill="#000000" fill-rule="nonzero" fill-opacity="1" /><path clip-path="url(#clip420)" d="M1368.96 1532.4 L1396.78 1532.4 L1396.78 1537.74 L1374.76 1563.37 L1396.78 1563.37 L1396.78 1568.04 L1368.17 1568.04 L1368.17 1562.7 L1390.19 1537.07 L1368.96 1537.07 L1368.96 1532.4 Z" fill="#000000" fill-rule="nonzero" fill-opacity="1" /><path clip-path="url(#clip420)" d="M1404.8 1518.58 L1409.9 1518.58 Q1414.67 1526.09 1417.03 1533.29 Q1419.41 1540.48 1419.41 1547.58 Q1419.41 1554.71 1417.03 1561.93 Q1414.67 1569.16 1409.9 1576.64 L1404.8 1576.64 Q1409.04 1569.35 1411.1 1562.16 Q1413.21 1554.93 1413.21 1547.58 Q1413.21 1540.23 1411.1 1533.06 Q1409.04 1525.9 1404.8 1518.58 Z" fill="#000000" fill-rule="nonzero" fill-opacity="1" /><polyline clip-path="url(#clip420)" style="stroke:#000000; stroke-linecap:round; stroke-linejoin:round; stroke-width:4; stroke-opacity:1; fill:none" points="264.287,1423.18 264.287,47.2441 "/>
<polyline clip-path="url(#clip420)" style="stroke:#000000; stroke-linecap:round; stroke-linejoin:round; stroke-width:4; stroke-opacity:1; fill:none" points="264.287,1208.01 283.185,1208.01 "/>
<polyline clip-path="url(#clip420)" style="stroke:#000000; stroke-linecap:round; stroke-linejoin:round; stroke-width:4; stroke-opacity:1; fill:none" points="264.287,941.839 283.185,941.839 "/>
<polyline clip-path="url(#clip420)" style="stroke:#000000; stroke-linecap:round; stroke-linejoin:round; stroke-width:4; stroke-opacity:1; fill:none" points="264.287,675.665 283.185,675.665 "/>
<polyline clip-path="url(#clip420)" style="stroke:#000000; stroke-linecap:round; stroke-linejoin:round; stroke-width:4; stroke-opacity:1; fill:none" points="264.287,409.491 283.185,409.491 "/>
<polyline clip-path="url(#clip420)" style="stroke:#000000; stroke-linecap:round; stroke-linejoin:round; stroke-width:4; stroke-opacity:1; fill:none" points="264.287,143.316 283.185,143.316 "/>
<path clip-path="url(#clip420)" d="M116.668 1221.36 L124.306 1221.36 L124.306 1194.99 L115.996 1196.66 L115.996 1192.4 L124.26 1190.73 L128.936 1190.73 L128.936 1221.36 L136.575 1221.36 L136.575 1225.29 L116.668 1225.29 L116.668 1221.36 Z" fill="#000000" fill-rule="nonzero" fill-opacity="1" /><path clip-path="url(#clip420)" d="M156.019 1193.81 Q152.408 1193.81 150.579 1197.38 Q148.774 1200.92 148.774 1208.05 Q148.774 1215.16 150.579 1218.72 Q152.408 1222.26 156.019 1222.26 Q159.653 1222.26 161.459 1218.72 Q163.288 1215.16 163.288 1208.05 Q163.288 1200.92 161.459 1197.38 Q159.653 1193.81 156.019 1193.81 M156.019 1190.11 Q161.829 1190.11 164.885 1194.72 Q167.964 1199.3 167.964 1208.05 Q167.964 1216.78 164.885 1221.38 Q161.829 1225.97 156.019 1225.97 Q150.209 1225.97 147.13 1221.38 Q144.075 1216.78 144.075 1208.05 Q144.075 1199.3 147.13 1194.72 Q150.209 1190.11 156.019 1190.11 Z" fill="#000000" fill-rule="nonzero" fill-opacity="1" /><path clip-path="url(#clip420)" d="M186.181 1193.81 Q182.57 1193.81 180.741 1197.38 Q178.936 1200.92 178.936 1208.05 Q178.936 1215.16 180.741 1218.72 Q182.57 1222.26 186.181 1222.26 Q189.815 1222.26 191.621 1218.72 Q193.45 1215.16 193.45 1208.05 Q193.45 1200.92 191.621 1197.38 Q189.815 1193.81 186.181 1193.81 M186.181 1190.11 Q191.991 1190.11 195.047 1194.72 Q198.125 1199.3 198.125 1208.05 Q198.125 1216.78 195.047 1221.38 Q191.991 1225.97 186.181 1225.97 Q180.371 1225.97 177.292 1221.38 Q174.237 1216.78 174.237 1208.05 Q174.237 1199.3 177.292 1194.72 Q180.371 1190.11 186.181 1190.11 Z" fill="#000000" fill-rule="nonzero" fill-opacity="1" /><path clip-path="url(#clip420)" d="M216.343 1193.81 Q212.732 1193.81 210.903 1197.38 Q209.098 1200.92 209.098 1208.05 Q209.098 1215.16 210.903 1218.72 Q212.732 1222.26 216.343 1222.26 Q219.977 1222.26 221.783 1218.72 Q223.611 1215.16 223.611 1208.05 Q223.611 1200.92 221.783 1197.38 Q219.977 1193.81 216.343 1193.81 M216.343 1190.11 Q222.153 1190.11 225.209 1194.72 Q228.287 1199.3 228.287 1208.05 Q228.287 1216.78 225.209 1221.38 Q222.153 1225.97 216.343 1225.97 Q210.533 1225.97 207.454 1221.38 Q204.399 1216.78 204.399 1208.05 Q204.399 1199.3 207.454 1194.72 Q210.533 1190.11 216.343 1190.11 Z" fill="#000000" fill-rule="nonzero" fill-opacity="1" /><path clip-path="url(#clip420)" d="M116.668 955.184 L124.306 955.184 L124.306 928.819 L115.996 930.485 L115.996 926.226 L124.26 924.559 L128.936 924.559 L128.936 955.184 L136.575 955.184 L136.575 959.119 L116.668 959.119 L116.668 955.184 Z" fill="#000000" fill-rule="nonzero" fill-opacity="1" /><path clip-path="url(#clip420)" d="M146.066 924.559 L164.422 924.559 L164.422 928.495 L150.348 928.495 L150.348 936.967 Q151.366 936.62 152.385 936.458 Q153.403 936.272 154.422 936.272 Q160.209 936.272 163.589 939.444 Q166.968 942.615 166.968 948.032 Q166.968 953.61 163.496 956.712 Q160.024 959.791 153.704 959.791 Q151.528 959.791 149.26 959.42 Q147.015 959.05 144.607 958.309 L144.607 953.61 Q146.691 954.744 148.913 955.3 Q151.135 955.856 153.612 955.856 Q157.616 955.856 159.954 953.749 Q162.292 951.643 162.292 948.032 Q162.292 944.42 159.954 942.314 Q157.616 940.208 153.612 940.208 Q151.737 940.208 149.862 940.624 Q148.01 941.041 146.066 941.92 L146.066 924.559 Z" fill="#000000" fill-rule="nonzero" fill-opacity="1" /><path clip-path="url(#clip420)" d="M186.181 927.638 Q182.57 927.638 180.741 931.203 Q178.936 934.745 178.936 941.874 Q178.936 948.981 180.741 952.545 Q182.57 956.087 186.181 956.087 Q189.815 956.087 191.621 952.545 Q193.45 948.981 193.45 941.874 Q193.45 934.745 191.621 931.203 Q189.815 927.638 186.181 927.638 M186.181 923.934 Q191.991 923.934 195.047 928.541 Q198.125 933.124 198.125 941.874 Q198.125 950.601 195.047 955.207 Q191.991 959.791 186.181 959.791 Q180.371 959.791 177.292 955.207 Q174.237 950.601 174.237 941.874 Q174.237 933.124 177.292 928.541 Q180.371 923.934 186.181 923.934 Z" fill="#000000" fill-rule="nonzero" fill-opacity="1" /><path clip-path="url(#clip420)" d="M216.343 927.638 Q212.732 927.638 210.903 931.203 Q209.098 934.745 209.098 941.874 Q209.098 948.981 210.903 952.545 Q212.732 956.087 216.343 956.087 Q219.977 956.087 221.783 952.545 Q223.611 948.981 223.611 941.874 Q223.611 934.745 221.783 931.203 Q219.977 927.638 216.343 927.638 M216.343 923.934 Q222.153 923.934 225.209 928.541 Q228.287 933.124 228.287 941.874 Q228.287 950.601 225.209 955.207 Q222.153 959.791 216.343 959.791 Q210.533 959.791 207.454 955.207 Q204.399 950.601 204.399 941.874 Q204.399 933.124 207.454 928.541 Q210.533 923.934 216.343 923.934 Z" fill="#000000" fill-rule="nonzero" fill-opacity="1" /><path clip-path="url(#clip420)" d="M119.885 689.01 L136.204 689.01 L136.204 692.945 L114.26 692.945 L114.26 689.01 Q116.922 686.255 121.505 681.626 Q126.112 676.973 127.292 675.63 Q129.538 673.107 130.417 671.371 Q131.32 669.612 131.32 667.922 Q131.32 665.167 129.376 663.431 Q127.455 661.695 124.353 661.695 Q122.154 661.695 119.7 662.459 Q117.269 663.223 114.492 664.774 L114.492 660.052 Q117.316 658.917 119.769 658.339 Q122.223 657.76 124.26 657.76 Q129.63 657.76 132.825 660.445 Q136.019 663.13 136.019 667.621 Q136.019 669.751 135.209 671.672 Q134.422 673.57 132.316 676.163 Q131.737 676.834 128.635 680.052 Q125.533 683.246 119.885 689.01 Z" fill="#000000" fill-rule="nonzero" fill-opacity="1" /><path clip-path="url(#clip420)" d="M156.019 661.464 Q152.408 661.464 150.579 665.029 Q148.774 668.57 148.774 675.7 Q148.774 682.806 150.579 686.371 Q152.408 689.913 156.019 689.913 Q159.653 689.913 161.459 686.371 Q163.288 682.806 163.288 675.7 Q163.288 668.57 161.459 665.029 Q159.653 661.464 156.019 661.464 M156.019 657.76 Q161.829 657.76 164.885 662.367 Q167.964 666.95 167.964 675.7 Q167.964 684.427 164.885 689.033 Q161.829 693.616 156.019 693.616 Q150.209 693.616 147.13 689.033 Q144.075 684.427 144.075 675.7 Q144.075 666.95 147.13 662.367 Q150.209 657.76 156.019 657.76 Z" fill="#000000" fill-rule="nonzero" fill-opacity="1" /><path clip-path="url(#clip420)" d="M186.181 661.464 Q182.57 661.464 180.741 665.029 Q178.936 668.57 178.936 675.7 Q178.936 682.806 180.741 686.371 Q182.57 689.913 186.181 689.913 Q189.815 689.913 191.621 686.371 Q193.45 682.806 193.45 675.7 Q193.45 668.57 191.621 665.029 Q189.815 661.464 186.181 661.464 M186.181 657.76 Q191.991 657.76 195.047 662.367 Q198.125 666.95 198.125 675.7 Q198.125 684.427 195.047 689.033 Q191.991 693.616 186.181 693.616 Q180.371 693.616 177.292 689.033 Q174.237 684.427 174.237 675.7 Q174.237 666.95 177.292 662.367 Q180.371 657.76 186.181 657.76 Z" fill="#000000" fill-rule="nonzero" fill-opacity="1" /><path clip-path="url(#clip420)" d="M216.343 661.464 Q212.732 661.464 210.903 665.029 Q209.098 668.57 209.098 675.7 Q209.098 682.806 210.903 686.371 Q212.732 689.913 216.343 689.913 Q219.977 689.913 221.783 686.371 Q223.611 682.806 223.611 675.7 Q223.611 668.57 221.783 665.029 Q219.977 661.464 216.343 661.464 M216.343 657.76 Q222.153 657.76 225.209 662.367 Q228.287 666.95 228.287 675.7 Q228.287 684.427 225.209 689.033 Q222.153 693.616 216.343 693.616 Q210.533 693.616 207.454 689.033 Q204.399 684.427 204.399 675.7 Q204.399 666.95 207.454 662.367 Q210.533 657.76 216.343 657.76 Z" fill="#000000" fill-rule="nonzero" fill-opacity="1" /><path clip-path="url(#clip420)" d="M119.885 422.835 L136.204 422.835 L136.204 426.771 L114.26 426.771 L114.26 422.835 Q116.922 420.081 121.505 415.451 Q126.112 410.798 127.292 409.456 Q129.538 406.933 130.417 405.197 Q131.32 403.437 131.32 401.748 Q131.32 398.993 129.376 397.257 Q127.455 395.521 124.353 395.521 Q122.154 395.521 119.7 396.285 Q117.269 397.049 114.492 398.599 L114.492 393.877 Q117.316 392.743 119.769 392.164 Q122.223 391.586 124.26 391.586 Q129.63 391.586 132.825 394.271 Q136.019 396.956 136.019 401.447 Q136.019 403.576 135.209 405.498 Q134.422 407.396 132.316 409.988 Q131.737 410.66 128.635 413.877 Q125.533 417.072 119.885 422.835 Z" fill="#000000" fill-rule="nonzero" fill-opacity="1" /><path clip-path="url(#clip420)" d="M146.066 392.211 L164.422 392.211 L164.422 396.146 L150.348 396.146 L150.348 404.618 Q151.366 404.271 152.385 404.109 Q153.403 403.924 154.422 403.924 Q160.209 403.924 163.589 407.095 Q166.968 410.266 166.968 415.683 Q166.968 421.261 163.496 424.363 Q160.024 427.442 153.704 427.442 Q151.528 427.442 149.26 427.072 Q147.015 426.701 144.607 425.96 L144.607 421.261 Q146.691 422.396 148.913 422.951 Q151.135 423.507 153.612 423.507 Q157.616 423.507 159.954 421.4 Q162.292 419.294 162.292 415.683 Q162.292 412.072 159.954 409.965 Q157.616 407.859 153.612 407.859 Q151.737 407.859 149.862 408.275 Q148.01 408.692 146.066 409.572 L146.066 392.211 Z" fill="#000000" fill-rule="nonzero" fill-opacity="1" /><path clip-path="url(#clip420)" d="M186.181 395.289 Q182.57 395.289 180.741 398.854 Q178.936 402.396 178.936 409.525 Q178.936 416.632 180.741 420.197 Q182.57 423.738 186.181 423.738 Q189.815 423.738 191.621 420.197 Q193.45 416.632 193.45 409.525 Q193.45 402.396 191.621 398.854 Q189.815 395.289 186.181 395.289 M186.181 391.586 Q191.991 391.586 195.047 396.192 Q198.125 400.775 198.125 409.525 Q198.125 418.252 195.047 422.859 Q191.991 427.442 186.181 427.442 Q180.371 427.442 177.292 422.859 Q174.237 418.252 174.237 409.525 Q174.237 400.775 177.292 396.192 Q180.371 391.586 186.181 391.586 Z" fill="#000000" fill-rule="nonzero" fill-opacity="1" /><path clip-path="url(#clip420)" d="M216.343 395.289 Q212.732 395.289 210.903 398.854 Q209.098 402.396 209.098 409.525 Q209.098 416.632 210.903 420.197 Q212.732 423.738 216.343 423.738 Q219.977 423.738 221.783 420.197 Q223.611 416.632 223.611 409.525 Q223.611 402.396 221.783 398.854 Q219.977 395.289 216.343 395.289 M216.343 391.586 Q222.153 391.586 225.209 396.192 Q228.287 400.775 228.287 409.525 Q228.287 418.252 225.209 422.859 Q222.153 427.442 216.343 427.442 Q210.533 427.442 207.454 422.859 Q204.399 418.252 204.399 409.525 Q204.399 400.775 207.454 396.192 Q210.533 391.586 216.343 391.586 Z" fill="#000000" fill-rule="nonzero" fill-opacity="1" /><path clip-path="url(#clip420)" d="M130.024 141.962 Q133.38 142.68 135.255 144.948 Q137.154 147.217 137.154 150.55 Q137.154 155.666 133.635 158.467 Q130.117 161.268 123.635 161.268 Q121.459 161.268 119.144 160.828 Q116.853 160.411 114.399 159.555 L114.399 155.041 Q116.343 156.175 118.658 156.754 Q120.973 157.332 123.496 157.332 Q127.894 157.332 130.186 155.596 Q132.501 153.86 132.501 150.55 Q132.501 147.494 130.348 145.781 Q128.218 144.045 124.399 144.045 L120.371 144.045 L120.371 140.203 L124.584 140.203 Q128.033 140.203 129.862 138.837 Q131.691 137.448 131.691 134.856 Q131.691 132.194 129.792 130.782 Q127.917 129.346 124.399 129.346 Q122.478 129.346 120.279 129.763 Q118.08 130.18 115.441 131.059 L115.441 126.893 Q118.103 126.152 120.418 125.782 Q122.755 125.411 124.816 125.411 Q130.14 125.411 133.242 127.842 Q136.343 130.249 136.343 134.37 Q136.343 137.24 134.7 139.231 Q133.056 141.198 130.024 141.962 Z" fill="#000000" fill-rule="nonzero" fill-opacity="1" /><path clip-path="url(#clip420)" d="M156.019 129.115 Q152.408 129.115 150.579 132.68 Q148.774 136.221 148.774 143.351 Q148.774 150.457 150.579 154.022 Q152.408 157.564 156.019 157.564 Q159.653 157.564 161.459 154.022 Q163.288 150.457 163.288 143.351 Q163.288 136.221 161.459 132.68 Q159.653 129.115 156.019 129.115 M156.019 125.411 Q161.829 125.411 164.885 130.018 Q167.964 134.601 167.964 143.351 Q167.964 152.078 164.885 156.684 Q161.829 161.268 156.019 161.268 Q150.209 161.268 147.13 156.684 Q144.075 152.078 144.075 143.351 Q144.075 134.601 147.13 130.018 Q150.209 125.411 156.019 125.411 Z" fill="#000000" fill-rule="nonzero" fill-opacity="1" /><path clip-path="url(#clip420)" d="M186.181 129.115 Q182.57 129.115 180.741 132.68 Q178.936 136.221 178.936 143.351 Q178.936 150.457 180.741 154.022 Q182.57 157.564 186.181 157.564 Q189.815 157.564 191.621 154.022 Q193.45 150.457 193.45 143.351 Q193.45 136.221 191.621 132.68 Q189.815 129.115 186.181 129.115 M186.181 125.411 Q191.991 125.411 195.047 130.018 Q198.125 134.601 198.125 143.351 Q198.125 152.078 195.047 156.684 Q191.991 161.268 186.181 161.268 Q180.371 161.268 177.292 156.684 Q174.237 152.078 174.237 143.351 Q174.237 134.601 177.292 130.018 Q180.371 125.411 186.181 125.411 Z" fill="#000000" fill-rule="nonzero" fill-opacity="1" /><path clip-path="url(#clip420)" d="M216.343 129.115 Q212.732 129.115 210.903 132.68 Q209.098 136.221 209.098 143.351 Q209.098 150.457 210.903 154.022 Q212.732 157.564 216.343 157.564 Q219.977 157.564 221.783 154.022 Q223.611 150.457 223.611 143.351 Q223.611 136.221 221.783 132.68 Q219.977 129.115 216.343 129.115 M216.343 125.411 Q222.153 125.411 225.209 130.018 Q228.287 134.601 228.287 143.351 Q228.287 152.078 225.209 156.684 Q222.153 161.268 216.343 161.268 Q210.533 161.268 207.454 156.684 Q204.399 152.078 204.399 143.351 Q204.399 134.601 207.454 130.018 Q210.533 125.411 216.343 125.411 Z" fill="#000000" fill-rule="nonzero" fill-opacity="1" /><path clip-path="url(#clip420)" d="M16.4842 846.103 L16.4842 818.794 L21.895 818.794 L21.895 839.673 L35.8996 839.673 L35.8996 820.831 L41.3104 820.831 L41.3104 839.673 L64.0042 839.673 L64.0042 846.103 L16.4842 846.103 Z" fill="#000000" fill-rule="nonzero" fill-opacity="1" /><path clip-path="url(#clip420)" d="M58.5933 802.497 L58.5933 780.058 L64.0042 780.058 L64.0042 810.232 L58.5933 810.232 Q54.8057 806.572 48.44 800.269 Q42.0425 793.936 40.1964 792.312 Q36.7271 789.225 34.34 788.016 Q31.921 786.774 29.5975 786.774 Q25.8099 786.774 23.4228 789.448 Q21.0356 792.09 21.0356 796.355 Q21.0356 799.378 22.086 802.752 Q23.1363 806.094 25.2688 809.914 L18.7758 809.914 Q17.2162 806.03 16.4205 802.657 Q15.6248 799.283 15.6248 796.482 Q15.6248 789.098 19.3169 784.705 Q23.009 780.313 29.1837 780.313 Q32.112 780.313 34.7537 781.427 Q37.3637 782.509 40.9285 785.406 Q41.8515 786.201 46.2757 790.466 Q50.668 794.731 58.5933 802.497 Z" fill="#000000" fill-rule="nonzero" fill-opacity="1" /><path clip-path="url(#clip420)" d="M14.5426 732.602 Q21.8632 736.867 29.0246 738.936 Q36.186 741.005 43.5384 741.005 Q50.8908 741.005 58.1159 738.936 Q65.3091 736.835 72.5979 732.602 L72.5979 737.695 Q65.1182 742.469 57.8931 744.856 Q50.668 747.211 43.5384 747.211 Q36.4406 747.211 29.2474 744.856 Q22.0542 742.501 14.5426 737.695 L14.5426 732.602 Z" fill="#000000" fill-rule="nonzero" fill-opacity="1" /><path clip-path="url(#clip420)" d="M16.4842 720.985 L16.4842 714.555 L35.9632 714.555 L35.9632 691.193 L16.4842 691.193 L16.4842 684.764 L64.0042 684.764 L64.0042 691.193 L41.3741 691.193 L41.3741 714.555 L64.0042 714.555 L64.0042 720.985 L16.4842 720.985 Z" fill="#000000" fill-rule="nonzero" fill-opacity="1" /><path clip-path="url(#clip420)" d="M28.3562 674.77 L28.3562 646.951 L33.7034 646.951 L59.3254 668.977 L59.3254 646.951 L64.0042 646.951 L64.0042 675.565 L58.657 675.565 L33.035 653.54 L33.035 674.77 L28.3562 674.77 Z" fill="#000000" fill-rule="nonzero" fill-opacity="1" /><path clip-path="url(#clip420)" d="M14.5426 638.931 L14.5426 633.838 Q22.0542 629.064 29.2474 626.708 Q36.4406 624.321 43.5384 624.321 Q50.668 624.321 57.8931 626.708 Q65.1182 629.064 72.5979 633.838 L72.5979 638.931 Q65.3091 634.697 58.1159 632.629 Q50.8908 630.528 43.5384 630.528 Q36.186 630.528 29.0246 632.629 Q21.8632 634.697 14.5426 638.931 Z" fill="#000000" fill-rule="nonzero" fill-opacity="1" /><circle clip-path="url(#clip422)" cx="510.518" cy="285.066" r="10.8" fill="#009af9" fill-rule="evenodd" fill-opacity="1" stroke="#000000" stroke-opacity="1" stroke-width="3.2"/>
<polyline clip-path="url(#clip422)" style="stroke:#009af9; stroke-linecap:round; stroke-linejoin:round; stroke-width:12; stroke-opacity:1; fill:none" points="631.926,222.608 631.917,221.58 631.888,220.562 631.84,219.555 631.772,218.558 631.686,217.571 631.58,216.596 631.455,215.631 631.311,214.677 631.147,213.734 630.965,212.803 630.763,211.883 630.543,210.974 630.303,210.078 630.045,209.193 629.767,208.32 629.471,207.459 629.155,206.611 628.821,205.775 628.468,204.952 628.097,204.142 627.706,203.344 627.298,202.559 626.87,201.787 626.425,201.029 625.96,200.284 625.478,199.552 624.977,198.834 624.458,198.129 623.921,197.439 623.367,196.762 622.794,196.099 622.203,195.45 621.595,194.816 620.969,194.196 620.326,193.59 619.665,192.999 618.987,192.422 618.292,191.86 617.579,191.313 616.85,190.78 616.104,190.263 615.341,189.761 614.561,189.273 613.765,188.801 612.952,188.344 612.124,187.903 611.279,187.477 610.418,187.066 609.542,186.671 608.649,186.292 607.741,185.928 606.818,185.58 605.88,185.247 604.926,184.931 603.957,184.63 602.974,184.346 601.976,184.077 600.963,183.824 599.936,183.588 598.895,183.367 597.84,183.163 596.771,182.974 595.688,182.802 594.592,182.646 593.483,182.507 592.36,182.383 591.224,182.276 590.076,182.185 588.915,182.111 587.741,182.053 586.556,182.011 585.358,181.985 584.148,181.976 582.927,181.983 581.694,182.007 580.45,182.047 579.195,182.103 577.929,182.175 576.652,182.264 575.365,182.369 574.068,182.491 572.76,182.629 571.443,182.782 570.115,182.953 568.779,183.139 567.433,183.341 566.078,183.56 564.715,183.795 563.342,184.045 561.962,184.312 560.573,184.595 559.176,184.894 557.772,185.208 556.36,185.539 554.941,185.885 553.515,186.247 552.082,186.624 550.642,187.017 549.196,187.426 547.744,187.85 546.286,188.29 544.823,188.745 543.353,189.215 541.879,189.701 540.4,190.201 538.916,190.717 537.427,191.247 535.934,191.793 534.438,192.353 532.937,192.928 531.433,193.517 529.925,194.121 528.415,194.74 526.901,195.373 525.385,196.02 523.867,196.681 522.347,197.356 520.824,198.045 519.3,198.748 517.775,199.464 516.248,200.194 514.721,200.938 513.193,201.695 511.664,202.465 510.136,203.248 508.607,204.044 507.079,204.853 505.551,205.675 504.024,206.509 502.498,207.356 500.973,208.215 499.45,209.086 497.929,209.97 496.409,210.865 494.892,211.772 493.377,212.69 491.865,213.621 490.356,214.562 488.85,215.515 487.348,216.478 485.849,217.453 484.354,218.438 482.864,219.434 481.377,220.44 479.896,221.456 478.419,222.483 476.947,223.519 475.481,224.565 474.02,225.621 472.565,226.686 471.116,227.761 469.673,228.844 468.237,229.937 466.807,231.038 465.384,232.148 463.969,233.266 462.561,234.392 461.16,235.527 459.767,236.669 458.383,237.819 457.006,238.976 455.638,240.141 454.279,241.313 452.929,242.492 451.587,243.677 450.256,244.869 448.933,246.068 447.621,247.273 446.318,248.483 445.026,249.7 443.744,250.922 442.472,252.149 441.212,253.382 439.962,254.62 438.724,255.862 437.497,257.109 436.281,258.361 435.077,259.617 433.886,260.877 432.706,262.14 431.539,263.408 430.384,264.678 429.242,265.952 428.113,267.229 426.997,268.509 425.894,269.792 424.804,271.077 423.729,272.364 422.667,273.653 421.618,274.944 420.584,276.237 419.565,277.531 418.559,278.826 417.568,280.122 416.592,281.419 415.631,282.716 414.685,284.014 413.754,285.312 412.838,286.61 411.938,287.908 411.054,289.205 410.185,290.502 409.332,291.798 408.496,293.092 407.675,294.386 406.871,295.678 406.083,296.968 405.312,298.257 404.557,299.543 403.819,300.827 403.098,302.108 402.394,303.387 401.708,304.663 401.038,305.936 400.386,307.205 399.751,308.471 399.134,309.734 398.535,310.992 397.953,312.246 397.389,313.496 396.844,314.742 396.316,315.983 395.806,317.218 395.314,318.449 394.841,319.675 394.386,320.894 393.949,322.109 393.531,323.317 393.132,324.52 392.751,325.716 392.389,326.905 392.045,328.088 391.72,329.264 391.415,330.434 391.128,331.596 390.859,332.75 390.61,333.897 390.38,335.037 390.169,336.168 389.977,337.291 389.804,338.406 389.651,339.513 389.516,340.611 389.401,341.7 389.304,342.78 389.227,343.851 389.17,344.913 389.131,345.965 389.112,347.007 389.112,348.04 389.131,349.063 389.17,350.075 389.227,351.077 389.304,352.069 389.401,353.05 389.516,354.021 389.651,354.98 389.804,355.929 389.977,356.866 390.169,357.792 390.38,358.706 390.61,359.608 390.859,360.499 391.128,361.378 391.415,362.244 391.72,363.099 392.045,363.941 392.389,364.771 392.751,365.587 393.132,366.392 393.531,367.183 393.949,367.961 394.386,368.726 394.841,369.478 395.314,370.217 395.806,370.941 396.316,371.653 396.844,372.35 397.389,373.034 397.953,373.704 398.535,374.36 399.134,375.001 399.751,375.629 400.386,376.242 401.038,376.84 401.708,377.424 402.394,377.994 403.098,378.548 403.819,379.088 404.557,379.613 405.312,380.123 406.083,380.618 406.871,381.097 407.675,381.562 408.496,382.011 409.332,382.445 410.185,382.863 411.054,383.266 411.938,383.653 412.838,384.025 413.754,384.381 414.685,384.721 415.631,385.045 416.592,385.354 417.568,385.647 418.559,385.923 419.565,386.184 420.584,386.429 421.618,386.657 422.667,386.87 423.729,387.066 424.804,387.246 425.894,387.41 426.997,387.558 428.113,387.69 429.242,387.805 430.384,387.904 431.539,387.987 432.706,388.053 433.886,388.103 435.077,388.137 436.281,388.154 437.497,388.155 438.724,388.14 439.962,388.108 441.212,388.06 442.472,387.996 443.744,387.915 445.026,387.818 446.318,387.705 447.621,387.575 448.933,387.429 450.256,387.267 451.587,387.089 452.929,386.895 454.279,386.684 455.638,386.457 457.006,386.215 458.383,385.956 459.767,385.681 461.16,385.39 462.561,385.084 463.969,384.761 465.384,384.423 466.807,384.069 468.237,383.699 469.673,383.314 471.116,382.913 472.565,382.496 474.02,382.064 475.481,381.617 476.947,381.154 478.419,380.677 479.896,380.184 481.377,379.676 482.864,379.152 484.354,378.615 485.849,378.062 487.348,377.494 488.85,376.912 490.356,376.315 491.865,375.704 493.377,375.078 494.892,374.438 496.409,373.784 497.929,373.116 499.45,372.434 500.973,371.738 502.498,371.028 504.024,370.305 505.551,369.568 507.079,368.818 508.607,368.055 510.136,367.278 511.664,366.488 513.193,365.686 514.721,364.87 516.248,364.042 517.775,363.202 519.3,362.349 520.824,361.484 522.347,360.606 523.867,359.717 525.385,358.816 526.901,357.903 528.415,356.979 529.925,356.043 531.433,355.096 532.937,354.138 534.438,353.169 535.934,352.189 537.427,351.198 538.916,350.197 540.4,349.186 541.879,348.164 543.353,347.133 544.823,346.092 546.286,345.041 547.744,343.98 549.196,342.91 550.642,341.831 552.082,340.743 553.515,339.646 554.941,338.541 556.36,337.427 557.772,336.305 559.176,335.174 560.573,334.036 561.962,332.89 563.342,331.736 564.715,330.575 566.078,329.407 567.433,328.231 568.779,327.049 570.115,325.86 571.443,324.665 572.76,323.463 574.068,322.256 575.365,321.042 576.652,319.823 577.929,318.598 579.195,317.368 580.45,316.133 581.694,314.892 582.927,313.648 584.148,312.398 585.358,311.144 586.556,309.887 587.741,308.625 588.915,307.359 590.076,306.09 591.224,304.818 592.36,303.542 593.483,302.264 594.592,300.982 595.688,299.699 596.771,298.413 597.84,297.124 598.895,295.834 599.936,294.543 600.963,293.249 601.976,291.955 602.974,290.659 603.957,289.362 604.926,288.065 605.88,286.768 606.818,285.47 607.741,284.171 608.649,282.874 609.542,281.576 610.418,280.279 611.279,278.983 612.124,277.687 612.952,276.393 613.765,275.101 614.561,273.809 615.341,272.52 616.104,271.233 616.85,269.947 617.579,268.665 618.292,267.384 618.987,266.107 619.665,264.833 620.326,263.562 620.969,262.294 621.595,261.03 622.203,259.769 622.794,258.513 623.367,257.261 623.921,256.013 624.458,254.77 624.977,253.532 625.478,252.298 625.96,251.07 626.425,249.847 626.87,248.63 627.298,247.419 627.706,246.214 628.097,245.014 628.468,243.821 628.821,242.635 629.155,241.455 629.471,240.283 629.767,239.117 630.045,237.959 630.303,236.808 630.543,235.665 630.763,234.529 630.965,233.402 631.147,232.283 631.311,231.172 631.455,230.07 631.58,228.976 631.686,227.892 631.772,226.816 631.84,225.75 631.888,224.693 631.917,223.645 631.926,222.608 "/>
<circle clip-path="url(#clip422)" cx="1759.83" cy="933.539" r="10.8" fill="#e26f46" fill-rule="evenodd" fill-opacity="1" stroke="#000000" stroke-opacity="1" stroke-width="3.2"/>
<polyline clip-path="url(#clip422)" style="stroke:#e26f46; stroke-linecap:round; stroke-linejoin:round; stroke-width:12; stroke-opacity:1; fill:none" points="2100.63,868.325 2100.61,867.064 2100.53,865.814 2100.39,864.575 2100.2,863.347 2099.96,862.129 2099.66,860.923 2099.31,859.729 2098.91,858.546 2098.45,857.376 2097.94,856.217 2097.37,855.07 2096.75,853.936 2096.08,852.815 2095.35,851.706 2094.57,850.611 2093.74,849.528 2092.86,848.459 2091.92,847.403 2090.93,846.361 2089.88,845.333 2088.79,844.319 2087.64,843.319 2086.44,842.333 2085.19,841.362 2083.89,840.405 2082.53,839.463 2081.13,838.536 2079.67,837.624 2078.16,836.727 2076.61,835.846 2075,834.98 2073.34,834.13 2071.63,833.295 2069.88,832.477 2068.07,831.674 2066.22,830.888 2064.31,830.118 2062.36,829.364 2060.36,828.626 2058.31,827.906 2056.22,827.202 2054.08,826.515 2051.89,825.845 2049.65,825.192 2047.37,824.556 2045.05,823.938 2042.67,823.336 2040.26,822.753 2037.8,822.187 2035.29,821.638 2032.74,821.107 2030.15,820.595 2027.52,820.1 2024.84,819.623 2022.12,819.164 2019.36,818.723 2016.56,818.3 2013.72,817.896 2010.83,817.51 2007.91,817.142 2004.95,816.793 2001.95,816.463 1998.91,816.15 1995.83,815.857 1992.72,815.582 1989.57,815.326 1986.38,815.089 1983.15,814.87 1979.9,814.67 1976.6,814.489 1973.27,814.327 1969.91,814.184 1966.52,814.06 1963.09,813.955 1959.63,813.868 1956.13,813.801 1952.61,813.753 1949.06,813.723 1945.47,813.713 1941.86,813.722 1938.22,813.749 1934.55,813.796 1930.85,813.861 1927.12,813.946 1923.37,814.05 1919.59,814.172 1915.79,814.313 1911.96,814.474 1908.11,814.653 1904.24,814.851 1900.34,815.068 1896.42,815.303 1892.47,815.558 1888.51,815.831 1884.53,816.123 1880.52,816.433 1876.5,816.762 1872.46,817.109 1868.4,817.475 1864.32,817.86 1860.23,818.262 1856.12,818.683 1852,819.122 1847.86,819.579 1843.71,820.055 1839.54,820.548 1835.36,821.059 1831.17,821.588 1826.97,822.135 1822.76,822.7 1818.54,823.282 1814.3,823.881 1810.06,824.498 1805.82,825.132 1801.56,825.784 1797.3,826.452 1793.03,827.138 1788.76,827.84 1784.48,828.559 1780.2,829.295 1775.91,830.047 1771.62,830.816 1767.33,831.601 1763.04,832.402 1758.75,833.219 1754.46,834.052 1750.17,834.901 1745.88,835.765 1741.6,836.645 1737.31,837.541 1733.03,838.451 1728.76,839.377 1724.49,840.317 1720.22,841.273 1715.96,842.243 1711.71,843.227 1707.46,844.226 1703.23,845.239 1699,846.266 1694.78,847.307 1690.58,848.361 1686.38,849.429 1682.2,850.51 1678.02,851.605 1673.86,852.712 1669.72,853.832 1665.59,854.965 1661.47,856.11 1657.37,857.268 1653.29,858.438 1649.22,859.619 1645.17,860.813 1641.14,862.018 1637.12,863.234 1633.13,864.461 1629.16,865.699 1625.2,866.948 1621.27,868.208 1617.36,869.478 1613.47,870.758 1609.61,872.048 1605.77,873.348 1601.96,874.657 1598.16,875.976 1594.4,877.304 1590.66,878.641 1586.95,879.986 1583.27,881.34 1579.61,882.702 1575.98,884.072 1572.38,885.451 1568.81,886.836 1565.27,888.229 1561.77,889.63 1558.29,891.037 1554.85,892.451 1551.43,893.872 1548.05,895.298 1544.71,896.731 1541.4,898.17 1538.12,899.614 1534.88,901.064 1531.67,902.519 1528.5,903.979 1525.37,905.443 1522.28,906.912 1519.22,908.385 1516.2,909.862 1513.22,911.343 1510.27,912.828 1507.37,914.315 1504.51,915.806 1501.69,917.3 1498.9,918.796 1496.16,920.294 1493.47,921.795 1490.81,923.297 1488.2,924.801 1485.63,926.307 1483.1,927.813 1480.62,929.321 1478.18,930.829 1475.78,932.338 1473.44,933.846 1471.13,935.355 1468.87,936.864 1466.66,938.371 1464.5,939.879 1462.38,941.385 1460.31,942.89 1458.28,944.393 1456.31,945.895 1454.38,947.394 1452.5,948.892 1450.67,950.387 1448.89,951.879 1447.16,953.369 1445.47,954.855 1443.84,956.338 1442.26,957.818 1440.73,959.293 1439.25,960.765 1437.81,962.232 1436.43,963.694 1435.11,965.152 1433.83,966.605 1432.6,968.053 1431.43,969.495 1430.31,970.931 1429.24,972.362 1428.22,973.786 1427.26,975.204 1426.35,976.615 1425.49,978.02 1424.68,979.417 1423.93,980.807 1423.23,982.19 1422.58,983.565 1421.99,984.932 1421.45,986.291 1420.97,987.641 1420.54,988.983 1420.16,990.316 1419.83,991.64 1419.56,992.955 1419.35,994.261 1419.19,995.557 1419.08,996.843 1419.02,998.119 1419.02,999.384 1419.08,1000.64 1419.19,1001.88 1419.35,1003.12 1419.56,1004.34 1419.83,1005.55 1420.16,1006.75 1420.54,1007.94 1420.97,1009.12 1421.45,1010.28 1421.99,1011.44 1422.58,1012.58 1423.23,1013.7 1423.93,1014.82 1424.68,1015.92 1425.49,1017.01 1426.35,1018.09 1427.26,1019.15 1428.22,1020.2 1429.24,1021.23 1430.31,1022.25 1431.43,1023.26 1432.6,1024.25 1433.83,1025.23 1435.11,1026.2 1436.43,1027.15 1437.81,1028.08 1439.25,1029 1440.73,1029.9 1442.26,1030.79 1443.84,1031.67 1445.47,1032.52 1447.16,1033.37 1448.89,1034.19 1450.67,1035 1452.5,1035.8 1454.38,1036.58 1456.31,1037.34 1458.28,1038.08 1460.31,1038.81 1462.38,1039.53 1464.5,1040.22 1466.66,1040.9 1468.87,1041.56 1471.13,1042.21 1473.44,1042.83 1475.78,1043.44 1478.18,1044.04 1480.62,1044.61 1483.1,1045.17 1485.63,1045.71 1488.2,1046.23 1490.81,1046.73 1493.47,1047.22 1496.16,1047.69 1498.9,1048.14 1501.69,1048.57 1504.51,1048.98 1507.37,1049.38 1510.27,1049.75 1513.22,1050.11 1516.2,1050.45 1519.22,1050.77 1522.28,1051.08 1525.37,1051.36 1528.5,1051.63 1531.67,1051.87 1534.88,1052.1 1538.12,1052.31 1541.4,1052.5 1544.71,1052.67 1548.05,1052.82 1551.43,1052.96 1554.85,1053.07 1558.29,1053.17 1561.77,1053.25 1565.27,1053.3 1568.81,1053.34 1572.38,1053.36 1575.98,1053.36 1579.61,1053.34 1583.27,1053.31 1586.95,1053.25 1590.66,1053.18 1594.4,1053.08 1598.16,1052.97 1601.96,1052.84 1605.77,1052.69 1609.61,1052.52 1613.47,1052.33 1617.36,1052.12 1621.27,1051.89 1625.2,1051.65 1629.16,1051.39 1633.13,1051.1 1637.12,1050.8 1641.14,1050.48 1645.17,1050.14 1649.22,1049.79 1653.29,1049.41 1657.37,1049.02 1661.47,1048.61 1665.59,1048.18 1669.72,1047.73 1673.86,1047.26 1678.02,1046.78 1682.2,1046.28 1686.38,1045.76 1690.58,1045.22 1694.78,1044.66 1699,1044.09 1703.23,1043.5 1707.46,1042.89 1711.71,1042.26 1715.96,1041.62 1720.22,1040.96 1724.49,1040.28 1728.76,1039.59 1733.03,1038.88 1737.31,1038.15 1741.6,1037.41 1745.88,1036.65 1750.17,1035.87 1754.46,1035.08 1758.75,1034.27 1763.04,1033.44 1767.33,1032.6 1771.62,1031.75 1775.91,1030.87 1780.2,1029.99 1784.48,1029.08 1788.76,1028.17 1793.03,1027.23 1797.3,1026.28 1801.56,1025.32 1805.82,1024.34 1810.06,1023.35 1814.3,1022.35 1818.54,1021.33 1822.76,1020.29 1826.97,1019.25 1831.17,1018.18 1835.36,1017.11 1839.54,1016.02 1843.71,1014.92 1847.86,1013.81 1852,1012.68 1856.12,1011.54 1860.23,1010.39 1864.32,1009.23 1868.4,1008.05 1872.46,1006.86 1876.5,1005.66 1880.52,1004.45 1884.53,1003.23 1888.51,1002 1892.47,1000.76 1896.42,999.501 1900.34,998.236 1904.24,996.961 1908.11,995.676 1911.96,994.381 1915.79,993.076 1919.59,991.762 1923.37,990.439 1927.12,989.106 1930.85,987.765 1934.55,986.416 1938.22,985.058 1941.86,983.691 1945.47,982.317 1949.06,980.935 1952.61,979.546 1956.13,978.149 1959.63,976.745 1963.09,975.334 1966.52,973.917 1969.91,972.493 1973.27,971.063 1976.6,969.628 1979.9,968.186 1983.15,966.739 1986.38,965.287 1989.57,963.829 1992.72,962.367 1995.83,960.9 1998.91,959.429 2001.95,957.954 2004.95,956.475 2007.91,954.993 2010.83,953.506 2013.72,952.017 2016.56,950.525 2019.36,949.03 2022.12,947.533 2024.84,946.033 2027.52,944.532 2030.15,943.029 2032.74,941.524 2035.29,940.018 2037.8,938.511 2040.26,937.003 2042.67,935.494 2045.05,933.986 2047.37,932.477 2049.65,930.968 2051.89,929.46 2054.08,927.953 2056.22,926.446 2058.31,924.94 2060.36,923.436 2062.36,921.934 2064.31,920.433 2066.22,918.934 2068.07,917.438 2069.88,915.944 2071.63,914.453 2073.34,912.965 2075,911.48 2076.61,909.999 2078.16,908.522 2079.67,907.048 2081.13,905.579 2082.53,904.114 2083.89,902.654 2085.19,901.198 2086.44,899.748 2087.64,898.303 2088.79,896.864 2089.88,895.431 2090.93,894.003 2091.92,892.582 2092.86,891.167 2093.74,889.759 2094.57,888.359 2095.35,886.965 2096.08,885.578 2096.75,884.199 2097.37,882.828 2097.94,881.465 2098.45,880.111 2098.91,878.765 2099.31,877.427 2099.66,876.098 2099.96,874.779 2100.2,873.469 2100.39,872.168 2100.53,870.877 2100.61,869.596 2100.63,868.325 "/>
<circle clip-path="url(#clip422)" cx="584.422" cy="1136.67" r="10.8" fill="#3da44d" fill-rule="evenodd" fill-opacity="1" stroke="#000000" stroke-opacity="1" stroke-width="3.2"/>
<polyline clip-path="url(#clip422)" style="stroke:#3da44d; stroke-linecap:round; stroke-linejoin:round; stroke-width:12; stroke-opacity:1; fill:none" points="760.041,1162.02 760.027,1160.09 759.985,1158.16 759.916,1156.23 759.818,1154.29 759.693,1152.35 759.54,1150.41 759.359,1148.46 759.151,1146.52 758.915,1144.57 758.651,1142.62 758.359,1140.67 758.04,1138.72 757.694,1136.77 757.32,1134.82 756.918,1132.87 756.489,1130.92 756.033,1128.97 755.55,1127.03 755.039,1125.08 754.502,1123.14 753.937,1121.19 753.346,1119.25 752.728,1117.32 752.083,1115.38 751.412,1113.45 750.714,1111.53 749.989,1109.6 749.239,1107.68 748.462,1105.77 747.66,1103.86 746.831,1101.96 745.977,1100.06 745.097,1098.17 744.192,1096.28 743.261,1094.4 742.305,1092.53 741.324,1090.66 740.318,1088.8 739.288,1086.95 738.233,1085.11 737.153,1083.27 736.05,1081.45 734.922,1079.63 733.771,1077.82 732.595,1076.02 731.397,1074.23 730.175,1072.45 728.93,1070.68 727.662,1068.92 726.371,1067.17 725.058,1065.43 723.722,1063.71 722.364,1061.99 720.985,1060.29 719.584,1058.6 718.161,1056.92 716.717,1055.25 715.253,1053.6 713.767,1051.96 712.261,1050.33 710.735,1048.72 709.188,1047.12 707.622,1045.54 706.037,1043.97 704.432,1042.41 702.808,1040.87 701.165,1039.35 699.504,1037.84 697.825,1036.34 696.127,1034.86 694.412,1033.4 692.679,1031.96 690.93,1030.53 689.163,1029.11 687.38,1027.72 685.58,1026.34 683.765,1024.98 681.933,1023.64 680.086,1022.31 678.224,1021.01 676.348,1019.72 674.456,1018.45 672.55,1017.2 670.631,1015.96 668.697,1014.75 666.751,1013.56 664.791,1012.38 662.819,1011.23 660.834,1010.09 658.837,1008.98 656.828,1007.89 654.807,1006.81 652.776,1005.76 650.734,1004.73 648.681,1003.71 646.618,1002.72 644.545,1001.75 642.462,1000.81 640.371,999.88 638.27,998.975 636.161,998.092 634.044,997.232 631.919,996.393 629.786,995.576 627.647,994.782 625.5,994.01 623.347,993.261 621.187,992.535 619.022,991.832 616.852,991.151 614.676,990.494 612.495,989.86 610.31,989.249 608.121,988.661 605.928,988.097 603.732,987.556 601.532,987.039 599.33,986.546 597.126,986.077 594.919,985.631 592.711,985.21 590.502,984.812 588.291,984.439 586.08,984.089 583.869,983.764 581.658,983.463 579.447,983.187 577.237,982.934 575.028,982.706 572.821,982.503 570.615,982.324 568.412,982.169 566.211,982.039 564.013,981.934 561.819,981.852 559.628,981.796 557.44,981.764 555.258,981.757 553.079,981.774 550.906,981.816 548.738,981.882 546.576,981.973 544.419,982.088 542.269,982.228 540.126,982.392 537.99,982.581 535.861,982.794 533.74,983.032 531.627,983.294 529.522,983.58 527.426,983.891 525.339,984.226 523.261,984.585 521.193,984.968 519.135,985.375 517.088,985.806 515.051,986.261 513.025,986.74 511.01,987.243 509.007,987.769 507.016,988.319 505.037,988.892 503.071,989.489 501.118,990.11 499.178,990.753 497.251,991.42 495.339,992.109 493.44,992.822 491.556,993.557 489.686,994.316 487.832,995.096 485.993,995.899 484.169,996.725 482.362,997.572 480.57,998.442 478.795,999.333 477.037,1000.25 475.296,1001.18 473.572,1002.14 471.866,1003.12 470.177,1004.12 468.507,1005.13 466.855,1006.18 465.221,1007.24 463.607,1008.32 462.012,1009.42 460.436,1010.54 458.88,1011.69 457.343,1012.85 455.827,1014.03 454.331,1015.23 452.856,1016.45 451.402,1017.69 449.969,1018.95 448.557,1020.23 447.166,1021.52 445.798,1022.84 444.451,1024.17 443.127,1025.52 441.825,1026.89 440.545,1028.27 439.289,1029.68 438.055,1031.09 436.845,1032.53 435.658,1033.98 434.494,1035.45 433.355,1036.94 432.239,1038.44 431.147,1039.95 430.08,1041.48 429.037,1043.03 428.019,1044.59 427.026,1046.17 426.057,1047.76 425.114,1049.36 424.196,1050.98 423.303,1052.61 422.436,1054.26 421.595,1055.92 420.779,1057.59 419.99,1059.27 419.226,1060.97 418.489,1062.67 417.778,1064.39 417.093,1066.12 416.435,1067.87 415.803,1069.62 415.199,1071.38 414.621,1073.16 414.07,1074.94 413.546,1076.74 413.049,1078.54 412.579,1080.35 412.137,1082.17 411.721,1084 411.334,1085.84 410.973,1087.69 410.64,1089.54 410.335,1091.4 410.057,1093.27 409.807,1095.15 409.585,1097.03 409.39,1098.92 409.223,1100.82 409.084,1102.72 408.973,1104.62 408.889,1106.53 408.834,1108.45 408.806,1110.37 408.806,1112.29 408.834,1114.22 408.889,1116.15 408.973,1118.09 409.084,1120.03 409.223,1121.97 409.39,1123.91 409.585,1125.86 409.807,1127.8 410.057,1129.75 410.335,1131.7 410.64,1133.65 410.973,1135.6 411.334,1137.55 411.721,1139.5 412.137,1141.45 412.579,1143.4 413.049,1145.35 413.546,1147.3 414.07,1149.24 414.621,1151.18 415.199,1153.12 415.803,1155.06 416.435,1157 417.093,1158.93 417.778,1160.86 418.489,1162.78 419.226,1164.7 419.99,1166.62 420.779,1168.53 421.595,1170.44 422.436,1172.34 423.303,1174.23 424.196,1176.12 425.114,1178.01 426.057,1179.88 427.026,1181.75 428.019,1183.62 429.037,1185.47 430.08,1187.32 431.147,1189.16 432.239,1190.99 433.355,1192.81 434.494,1194.63 435.658,1196.43 436.845,1198.22 438.055,1200.01 439.289,1201.78 440.545,1203.55 441.825,1205.3 443.127,1207.05 444.451,1208.78 445.798,1210.5 447.166,1212.21 448.557,1213.91 449.969,1215.59 451.402,1217.26 452.856,1218.92 454.331,1220.57 455.827,1222.2 457.343,1223.82 458.88,1225.43 460.436,1227.02 462.012,1228.6 463.607,1230.16 465.221,1231.71 466.855,1233.24 468.507,1234.76 470.177,1236.26 471.866,1237.75 473.572,1239.22 475.296,1240.67 477.037,1242.11 478.795,1243.53 480.57,1244.93 482.362,1246.32 484.169,1247.69 485.993,1249.04 487.832,1250.37 489.686,1251.69 491.556,1252.99 493.44,1254.27 495.339,1255.53 497.251,1256.77 499.178,1257.99 501.118,1259.2 503.071,1260.38 505.037,1261.54 507.016,1262.69 509.007,1263.81 511.01,1264.92 513.025,1266 515.051,1267.07 517.088,1268.11 519.135,1269.13 521.193,1270.13 523.261,1271.11 525.339,1272.07 527.426,1273.01 529.522,1273.92 531.627,1274.82 533.74,1275.69 535.861,1276.54 537.99,1277.37 540.126,1278.17 542.269,1278.95 544.419,1279.71 546.576,1280.45 548.738,1281.17 550.906,1281.86 553.079,1282.53 555.258,1283.17 557.44,1283.8 559.628,1284.4 561.819,1284.97 564.013,1285.52 566.211,1286.05 568.412,1286.56 570.615,1287.04 572.821,1287.5 575.028,1287.93 577.237,1288.34 579.447,1288.73 581.658,1289.09 583.869,1289.42 586.08,1289.74 588.291,1290.03 590.502,1290.29 592.711,1290.53 594.919,1290.75 597.126,1290.94 599.33,1291.1 601.532,1291.25 603.732,1291.36 605.928,1291.46 608.121,1291.53 610.31,1291.57 612.495,1291.59 614.676,1291.59 616.852,1291.56 619.022,1291.5 621.187,1291.42 623.347,1291.32 625.5,1291.19 627.647,1291.04 629.786,1290.86 631.919,1290.66 634.044,1290.44 636.161,1290.19 638.27,1289.91 640.371,1289.61 642.462,1289.29 644.545,1288.95 646.618,1288.57 648.681,1288.18 650.734,1287.76 652.776,1287.32 654.807,1286.85 656.828,1286.36 658.837,1285.84 660.834,1285.31 662.819,1284.74 664.791,1284.16 666.751,1283.55 668.697,1282.92 670.631,1282.26 672.55,1281.59 674.456,1280.88 676.348,1280.16 678.224,1279.41 680.086,1278.64 681.933,1277.85 683.765,1277.04 685.58,1276.2 687.38,1275.34 689.163,1274.46 690.93,1273.56 692.679,1272.64 694.412,1271.69 696.127,1270.72 697.825,1269.73 699.504,1268.72 701.165,1267.69 702.808,1266.64 704.432,1265.57 706.037,1264.48 707.622,1263.37 709.188,1262.23 710.735,1261.08 712.261,1259.91 713.767,1258.72 715.253,1257.51 716.717,1256.28 718.161,1255.03 719.584,1253.76 720.985,1252.47 722.364,1251.17 723.722,1249.84 725.058,1248.5 726.371,1247.14 727.662,1245.77 728.93,1244.38 730.175,1242.96 731.397,1241.54 732.595,1240.09 733.771,1238.63 734.922,1237.16 736.05,1235.66 737.153,1234.15 738.233,1232.63 739.288,1231.09 740.318,1229.54 741.324,1227.97 742.305,1226.39 743.261,1224.79 744.192,1223.18 745.097,1221.55 745.977,1219.91 746.831,1218.26 747.66,1216.6 748.462,1214.92 749.239,1213.23 749.989,1211.53 750.714,1209.82 751.412,1208.09 752.083,1206.35 752.728,1204.61 753.346,1202.85 753.937,1201.08 754.502,1199.3 755.039,1197.51 755.55,1195.71 756.033,1193.9 756.489,1192.09 756.918,1190.26 757.32,1188.43 757.694,1186.58 758.04,1184.73 758.359,1182.87 758.651,1181.01 758.915,1179.14 759.151,1177.26 759.359,1175.37 759.54,1173.48 759.693,1171.58 759.818,1169.68 759.916,1167.77 759.985,1165.86 760.027,1163.94 760.041,1162.02 "/>
<circle clip-path="url(#clip422)" style="fill:#ed5d92; stroke:none; fill-opacity:1" cx="586.86" cy="237.303" r="2"/>
<circle clip-path="url(#clip422)" style="fill:#ed5d92; stroke:none; fill-opacity:1" cx="1836.17" cy="885.775" r="2"/>
<circle clip-path="url(#clip422)" style="fill:#ed5d92; stroke:none; fill-opacity:1" cx="660.764" cy="1088.91" r="2"/>
<path clip-path="url(#clip420)" d="M555.931 222.173 L563.385 222.173 L563.385 267.543 L555.931 267.543 L555.931 222.173 M555.931 204.511 L563.385 204.511 L563.385 213.949 L555.931 213.949 L555.931 204.511 Z" fill="#000000" fill-rule="nonzero" fill-opacity="1" /><path clip-path="url(#clip420)" d="M597.858 271.756 Q594.699 279.858 591.701 282.329 Q588.703 284.8 583.68 284.8 L577.725 284.8 L577.725 278.561 L582.1 278.561 Q585.179 278.561 586.88 277.103 Q588.582 275.645 590.648 270.216 L591.985 266.814 L573.634 222.173 L581.533 222.173 L595.711 257.659 L609.89 222.173 L617.789 222.173 L597.858 271.756 Z" fill="#000000" fill-rule="nonzero" fill-opacity="1" /><path clip-path="url(#clip420)" d="M1815.04 893.209 Q1806.01 893.209 1802.52 895.275 Q1799.04 897.341 1799.04 902.323 Q1799.04 906.293 1801.63 908.643 Q1804.27 910.952 1808.76 910.952 Q1814.96 910.952 1818.69 906.577 Q1822.46 902.161 1822.46 894.87 L1822.46 893.209 L1815.04 893.209 M1829.91 890.13 L1829.91 916.015 L1822.46 916.015 L1822.46 909.129 Q1819.9 913.261 1816.1 915.246 Q1812.29 917.19 1806.78 917.19 Q1799.81 917.19 1795.68 913.301 Q1791.59 909.372 1791.59 902.809 Q1791.59 895.153 1796.69 891.264 Q1801.84 887.375 1812 887.375 L1822.46 887.375 L1822.46 886.646 Q1822.46 881.502 1819.05 878.707 Q1815.69 875.871 1809.57 875.871 Q1805.68 875.871 1802 876.803 Q1798.31 877.734 1794.91 879.598 L1794.91 872.711 Q1799 871.131 1802.85 870.362 Q1806.7 869.551 1810.34 869.551 Q1820.19 869.551 1825.05 874.656 Q1829.91 879.76 1829.91 890.13 Z" fill="#000000" fill-rule="nonzero" fill-opacity="1" /><path clip-path="url(#clip420)" d="M1865.88 893.209 Q1856.85 893.209 1853.36 895.275 Q1849.88 897.341 1849.88 902.323 Q1849.88 906.293 1852.47 908.643 Q1855.11 910.952 1859.6 910.952 Q1865.8 910.952 1869.53 906.577 Q1873.29 902.161 1873.29 894.87 L1873.29 893.209 L1865.88 893.209 M1880.75 890.13 L1880.75 916.015 L1873.29 916.015 L1873.29 909.129 Q1870.74 913.261 1866.93 915.246 Q1863.13 917.19 1857.62 917.19 Q1850.65 917.19 1846.52 913.301 Q1842.43 909.372 1842.43 902.809 Q1842.43 895.153 1847.53 891.264 Q1852.68 887.375 1862.84 887.375 L1873.29 887.375 L1873.29 886.646 Q1873.29 881.502 1869.89 878.707 Q1866.53 875.871 1860.41 875.871 Q1856.52 875.871 1852.84 876.803 Q1849.15 877.734 1845.75 879.598 L1845.75 872.711 Q1849.84 871.131 1853.69 870.362 Q1857.54 869.551 1861.18 869.551 Q1871.03 869.551 1875.89 874.656 Q1880.75 879.76 1880.75 890.13 Z" fill="#000000" fill-rule="nonzero" fill-opacity="1" /><path clip-path="url(#clip420)" d="M605.814 1101.25 L605.814 1073.78 L613.267 1073.78 L613.267 1100.96 Q613.267 1107.4 615.779 1110.64 Q618.29 1113.84 623.313 1113.84 Q629.349 1113.84 632.833 1110 Q636.357 1106.15 636.357 1099.5 L636.357 1073.78 L643.811 1073.78 L643.811 1119.15 L636.357 1119.15 L636.357 1112.18 Q633.643 1116.31 630.038 1118.34 Q626.473 1120.32 621.734 1120.32 Q613.915 1120.32 609.864 1115.46 Q605.814 1110.6 605.814 1101.25 M624.569 1072.69 L624.569 1072.69 Z" fill="#000000" fill-rule="nonzero" fill-opacity="1" /><path clip-path="url(#clip420)" d="M654.83 1073.78 L662.283 1073.78 L671.6 1109.18 L680.877 1073.78 L689.667 1073.78 L698.984 1109.18 L708.261 1073.78 L715.715 1073.78 L703.845 1119.15 L695.055 1119.15 L685.292 1081.96 L675.489 1119.15 L666.699 1119.15 L654.83 1073.78 Z" fill="#000000" fill-rule="nonzero" fill-opacity="1" /><polyline clip-path="url(#clip422)" style="stroke:#c68125; stroke-linecap:round; stroke-linejoin:round; stroke-width:4; stroke-opacity:1; fill:none" points="676.161,86.1857 397.988,266.733 340.795,443.14 323.395,1010.69 467.933,1273.42 649.444,1384.24 1773.45,1056.69 2293.65,896.878 2205.09,754.482 676.161,86.1857 "/>
<path clip-path="url(#clip420)" d="M2011.49 300.469 L2283.14 300.469 L2283.14 93.1086 L2011.49 93.1086  Z" fill="#ffffff" fill-rule="evenodd" fill-opacity="1"/>
<polyline clip-path="url(#clip420)" style="stroke:#000000; stroke-linecap:round; stroke-linejoin:round; stroke-width:4; stroke-opacity:1; fill:none" points="2011.49,300.469 2283.14,300.469 2283.14,93.1086 2011.49,93.1086 2011.49,300.469 "/>
<circle clip-path="url(#clip420)" cx="2104.31" cy="144.949" r="19.7486" fill="#009af9" fill-rule="evenodd" fill-opacity="1" stroke="#000000" stroke-opacity="1" stroke-width="5.85143"/>
<path clip-path="url(#clip420)" d="M2197.13 136.303 L2201.39 136.303 L2201.39 162.229 L2197.13 162.229 L2197.13 136.303 M2197.13 126.21 L2201.39 126.21 L2201.39 131.604 L2197.13 131.604 L2197.13 126.21 Z" fill="#000000" fill-rule="nonzero" fill-opacity="1" /><path clip-path="url(#clip420)" d="M2221.09 164.636 Q2219.29 169.266 2217.57 170.678 Q2215.86 172.09 2212.99 172.09 L2209.59 172.09 L2209.59 168.525 L2212.09 168.525 Q2213.85 168.525 2214.82 167.692 Q2215.79 166.858 2216.97 163.756 L2217.74 161.812 L2207.25 136.303 L2211.76 136.303 L2219.87 156.581 L2227.97 136.303 L2232.48 136.303 L2221.09 164.636 Z" fill="#000000" fill-rule="nonzero" fill-opacity="1" /><circle clip-path="url(#clip420)" cx="2104.31" cy="196.789" r="19.7486" fill="#e26f46" fill-rule="evenodd" fill-opacity="1" stroke="#000000" stroke-opacity="1" stroke-width="5.85143"/>
<path clip-path="url(#clip420)" d="M2210.54 201.036 Q2205.38 201.036 2203.38 202.217 Q2201.39 203.397 2201.39 206.245 Q2201.39 208.513 2202.88 209.856 Q2204.38 211.175 2206.95 211.175 Q2210.49 211.175 2212.62 208.675 Q2214.77 206.152 2214.77 201.985 L2214.77 201.036 L2210.54 201.036 M2219.03 199.277 L2219.03 214.069 L2214.77 214.069 L2214.77 210.133 Q2213.31 212.495 2211.14 213.629 Q2208.96 214.74 2205.81 214.74 Q2201.83 214.74 2199.47 212.518 Q2197.13 210.272 2197.13 206.522 Q2197.13 202.147 2200.05 199.925 Q2202.99 197.703 2208.8 197.703 L2214.77 197.703 L2214.77 197.286 Q2214.77 194.347 2212.83 192.749 Q2210.91 191.129 2207.41 191.129 Q2205.19 191.129 2203.08 191.661 Q2200.98 192.194 2199.03 193.259 L2199.03 189.323 Q2201.37 188.421 2203.57 187.981 Q2205.77 187.518 2207.85 187.518 Q2213.48 187.518 2216.25 190.434 Q2219.03 193.351 2219.03 199.277 Z" fill="#000000" fill-rule="nonzero" fill-opacity="1" /><path clip-path="url(#clip420)" d="M2239.59 201.036 Q2234.43 201.036 2232.44 202.217 Q2230.44 203.397 2230.44 206.245 Q2230.44 208.513 2231.93 209.856 Q2233.43 211.175 2236 211.175 Q2239.54 211.175 2241.67 208.675 Q2243.82 206.152 2243.82 201.985 L2243.82 201.036 L2239.59 201.036 M2248.08 199.277 L2248.08 214.069 L2243.82 214.069 L2243.82 210.133 Q2242.37 212.495 2240.19 213.629 Q2238.01 214.74 2234.87 214.74 Q2230.88 214.74 2228.52 212.518 Q2226.19 210.272 2226.19 206.522 Q2226.19 202.147 2229.1 199.925 Q2232.04 197.703 2237.85 197.703 L2243.82 197.703 L2243.82 197.286 Q2243.82 194.347 2241.88 192.749 Q2239.96 191.129 2236.46 191.129 Q2234.24 191.129 2232.13 191.661 Q2230.03 192.194 2228.08 193.259 L2228.08 189.323 Q2230.42 188.421 2232.62 187.981 Q2234.82 187.518 2236.9 187.518 Q2242.53 187.518 2245.31 190.434 Q2248.08 193.351 2248.08 199.277 Z" fill="#000000" fill-rule="nonzero" fill-opacity="1" /><circle clip-path="url(#clip420)" cx="2104.31" cy="248.629" r="19.7486" fill="#3da44d" fill-rule="evenodd" fill-opacity="1" stroke="#000000" stroke-opacity="1" stroke-width="5.85143"/>
<path clip-path="url(#clip420)" d="M2197.13 255.677 L2197.13 239.983 L2201.39 239.983 L2201.39 255.515 Q2201.39 259.196 2202.83 261.048 Q2204.26 262.876 2207.13 262.876 Q2210.58 262.876 2212.57 260.677 Q2214.59 258.478 2214.59 254.682 L2214.59 239.983 L2218.85 239.983 L2218.85 265.909 L2214.59 265.909 L2214.59 261.927 Q2213.04 264.288 2210.98 265.446 Q2208.94 266.58 2206.23 266.58 Q2201.76 266.58 2199.45 263.802 Q2197.13 261.024 2197.13 255.677 M2207.85 239.358 L2207.85 239.358 Z" fill="#000000" fill-rule="nonzero" fill-opacity="1" /><path clip-path="url(#clip420)" d="M2225.14 239.983 L2229.4 239.983 L2234.73 260.214 L2240.03 239.983 L2245.05 239.983 L2250.37 260.214 L2255.68 239.983 L2259.94 239.983 L2253.15 265.909 L2248.13 265.909 L2242.55 244.659 L2236.95 265.909 L2231.93 265.909 L2225.14 239.983 Z" fill="#000000" fill-rule="nonzero" fill-opacity="1" /></svg>
