<?xml version="1.0" encoding="UTF-8" standalone="no"?>
<svg
   xmlns:dc="http://purl.org/dc/elements/1.1/"
   xmlns:cc="http://creativecommons.org/ns#"
   xmlns:rdf="http://www.w3.org/1999/02/22-rdf-syntax-ns#"
   xmlns:svg="http://www.w3.org/2000/svg"
   xmlns="http://www.w3.org/2000/svg"
   xmlns:sodipodi="http://sodipodi.sourceforge.net/DTD/sodipodi-0.dtd"
   xmlns:inkscape="http://www.inkscape.org/namespaces/inkscape"
   inkscape:version="1.0 (4035a4fb49, 2020-05-01)"
   sodipodi:docname="phnoeticslogo_not_looking_like_R_cleaned.svg"
   id="svg663"
   version="1.1"
   viewBox="0 0 2400 1600"
   height="400"
   width="600">
  <metadata
     id="metadata667">
    <rdf:RDF>
      <cc:Work
         rdf:about="">
        <dc:format>image/svg+xml</dc:format>
        <dc:type
           rdf:resource="http://purl.org/dc/dcmitype/StillImage" />
        <dc:title></dc:title>
      </cc:Work>
    </rdf:RDF>
  </metadata>
  <sodipodi:namedview
     inkscape:current-layer="svg663"
     inkscape:window-maximized="1"
     inkscape:window-y="-11"
     inkscape:window-x="-11"
     inkscape:cy="211.1329"
     inkscape:cx="208.4504"
     inkscape:zoom="1.4142136"
     showgrid="false"
     id="namedview665"
     inkscape:window-height="986"
     inkscape:window-width="1920"
     inkscape:pageshadow="2"
     inkscape:pageopacity="0"
     guidetolerance="10"
     gridtolerance="10"
     objecttolerance="10"
     borderopacity="1"
     bordercolor="#666666"
     pagecolor="#ffffff" />
  <defs
     id="defs543">
    <clipPath
       id="clip660">
      <rect
         id="rect540"
         height="1600"
         width="2400"
         y="0"
         x="0" />
    </clipPath>
  </defs>
  <defs
     id="defs550">
    <clipPath
       id="clip661">
      <rect
         id="rect547"
         height="1600"
         width="1681"
         y="0"
         x="480" />
    </clipPath>
  </defs>
  <defs
     id="defs557">
    <clipPath
       id="clip662">
      <rect
         id="rect554"
         height="1440"
         width="2191"
         y="47"
         x="162" />
    </clipPath>
  </defs>
  <polyline
     id="polyline659"
     points="   224.444,286.652 245.316,257.168 266.188,229.736 287.06,204.467 307.932,181.461 328.804,160.813 349.676,142.604 370.548,126.909 391.42,113.79 412.292,103.301    433.164,95.4827 454.036,90.3677 474.908,87.9763 495.78,88.3181 516.651,91.3917 537.523,97.1849 558.395,105.674 579.267,116.825 600.139,130.594 621.011,146.924    641.883,165.749 662.755,186.995 683.627,210.576 704.499,236.395 725.371,264.351 746.243,294.329 767.115,326.21 787.987,359.865 808.859,395.158 829.731,431.948    850.602,470.085 871.474,509.418 892.346,549.786 913.218,591.028 934.09,632.978 954.962,675.467 975.834,718.323 996.706,761.374 1017.58,804.447 1038.45,847.368    1059.32,889.964 1080.19,932.065 1101.07,973.5 1121.94,1014.1 1142.81,1053.71 1163.68,1092.16 1184.55,1129.3 1205.43,1164.98 1226.3,1199.06 1247.17,1231.39    1268.04,1261.86 1288.91,1290.33 1309.79,1316.7 1330.66,1340.85 1351.53,1362.68 1372.4,1382.12 1393.27,1399.08 1414.14,1413.5 1435.02,1425.31 1455.89,1434.47    1476.76,1440.94 1497.63,1444.69 1518.5,1445.72 1539.38,1444.01 1560.25,1439.57 1581.12,1432.43 1601.99,1422.6 1622.86,1410.14 1643.74,1395.08 1664.61,1377.49    1685.48,1357.45 1706.35,1335.02 1727.22,1310.31 1748.1,1283.41 1768.97,1254.43 1789.84,1223.48 1810.71,1190.7 1831.58,1156.21 1852.46,1120.15 1873.33,1082.66    1894.2,1043.91 1915.07,1004.04 1935.94,963.213 1956.82,921.596 1977.69,879.355 1998.56,836.661 2019.43,793.686 2040.3,750.602 2061.17,707.584 2082.05,664.803    2102.92,622.434 2123.79,580.645 2144.66,539.606 2165.53,499.481 2186.41,460.433 2207.28,422.618 2228.15,386.189 2249.02,351.292 2269.89,318.069 2290.77,286.652       "
     style="stroke:#000000; stroke-width:60; stroke-opacity:1; fill:none"
     clip-path="url(#clip662)" />
  <path
     id="path661"
     fill-opacity="1"
     fill-rule="evenodd"
     fill="#000000"
     d="M 0 0 M1170.54 229.263 L1170.54 748.705 L1405.72 748.705 Q1536.28 748.705 1607.58 681.113 Q1678.87 613.521 1678.87 488.521 Q1678.87 364.448 1607.58 296.856 Q1536.28 229.263 1405.72 229.263 L1170.54 229.263 M983.505 75.5605 L1405.72 75.5605 Q1638.13 75.5605 1756.65 181.116 Q1876.09 285.745 1876.09 488.521 Q1876.09 693.15 1756.65 797.779 Q1638.13 902.408 1405.72 902.408 L1170.54 902.408 L1170.54 1457.96 L983.505 1457.96 L983.505 75.5605 Z"
     clip-path="url(#clip660)" />
</svg>
